{"glyphs":{"0":{"ha":914,"x_min":149,"x_max":928,"o":"m 363 -1 q 207 43 265 -1 q 149 181 149 88 q 153 235 149 206 l 240 789 q 337 966 258 904 q 526 1028 415 1028 l 721 1028 q 877 979 826 1028 q 928 844 928 931 q 922 789 928 815 l 836 235 q 743 56 817 114 q 557 -1 669 -1 l 363 -1 m 553 71 q 757 243 728 71 l 842 783 q 844 825 844 799 q 694 956 844 956 l 525 956 q 388 910 443 956 q 319 783 333 865 l 235 243 q 231 204 231 222 q 272 105 231 139 q 388 71 314 71 l 553 71 z "},"1":{"ha":499,"x_min":204,"x_max":528,"o":"m 435 942 l 204 871 l 213 924 l 453 1019 l 528 1019 l 367 0 l 286 0 l 435 942 z "},"2":{"ha":826,"x_min":79,"x_max":838,"o":"m 89 67 l 515 436 q 699 638 640 544 q 757 808 757 732 q 709 915 757 878 q 544 953 661 953 l 269 953 l 279 1013 q 569 1028 460 1028 q 774 974 711 1028 q 838 825 838 919 q 572 397 838 631 l 206 75 l 767 75 l 756 0 l 79 0 l 89 67 z "},"3":{"ha":815,"x_min":64,"x_max":818,"o":"m 425 -8 q 64 6 210 -8 l 74 64 l 414 64 q 581 103 515 64 q 664 239 646 142 q 679 342 679 322 q 627 442 679 410 q 501 478 575 475 l 246 488 l 254 542 l 519 551 q 656 590 603 554 q 721 700 708 626 q 736 814 736 801 q 687 919 736 882 q 544 956 638 956 l 251 956 l 261 1014 q 581 1028 390 1028 q 759 978 700 1028 q 818 839 818 929 q 801 701 818 808 q 730 569 786 613 q 618 515 674 525 q 715 463 669 504 q 760 347 760 421 q 751 286 760 331 l 743 229 q 642 53 725 114 q 425 -8 560 -8 z "},"4":{"ha":815,"x_min":89,"x_max":835,"o":"m 594 274 l 103 274 l 89 324 l 600 1019 l 683 1019 l 185 343 l 604 343 l 651 639 l 683 726 l 744 726 l 685 343 l 835 343 l 826 289 l 675 274 l 631 3 l 550 3 l 594 274 z "},"5":{"ha":886,"x_min":160,"x_max":918,"o":"m 478 -6 q 160 6 272 -6 l 171 67 l 490 67 q 663 115 590 67 q 749 250 735 164 l 768 375 q 771 418 771 406 q 729 517 771 482 q 606 553 688 553 l 488 553 q 304 424 347 553 l 228 424 l 351 1019 l 918 1019 l 907 947 l 415 947 l 332 543 q 400 599 353 576 q 513 622 447 622 l 638 622 q 798 572 742 622 q 854 436 854 521 q 851 388 854 421 l 826 236 q 713 57 808 119 q 478 -6 618 -6 z "},"6":{"ha":872,"x_min":168,"x_max":875,"o":"m 382 -3 q 222 61 276 -3 q 168 285 168 125 q 216 654 168 486 q 366 925 264 822 q 625 1028 468 1028 q 875 1015 744 1028 l 864 956 l 608 956 q 398 852 489 956 q 276 551 307 749 q 575 564 393 564 q 769 528 703 564 q 835 403 835 492 q 831 356 835 383 l 808 214 q 718 49 790 100 q 543 -3 646 -3 l 382 -3 m 540 69 q 667 103 617 69 q 731 224 717 138 l 750 346 q 753 382 753 371 q 703 471 753 447 q 549 494 653 494 l 267 494 q 247 289 247 365 q 287 119 247 168 q 404 69 326 69 l 540 69 z "},"7":{"ha":750,"x_min":208,"x_max":854,"o":"m 749 939 l 208 939 l 222 1019 l 831 1019 l 854 972 l 317 0 l 222 0 l 749 939 z "},"8":{"ha":900,"x_min":151,"x_max":890,"o":"m 363 -1 q 203 38 256 -1 q 151 151 151 78 q 154 193 151 165 l 178 343 q 240 460 190 415 q 342 515 289 504 q 250 654 250 558 q 254 696 250 675 l 272 814 q 358 976 290 925 q 526 1026 425 1026 l 721 1026 q 848 990 806 1026 q 890 875 890 954 q 885 814 890 846 l 867 696 q 822 592 858 642 q 733 528 786 543 q 810 482 783 519 q 836 392 836 444 q 833 353 836 381 l 807 194 q 726 47 790 94 q 556 -1 661 -1 l 363 -1 m 619 556 q 736 597 693 556 q 788 692 779 639 l 804 799 q 808 850 808 828 q 780 932 808 907 q 692 957 751 957 l 526 957 q 404 919 446 957 q 349 799 363 882 l 332 692 q 331 665 331 682 q 363 585 331 615 q 463 556 396 556 l 619 556 m 550 68 q 728 203 707 68 l 750 343 q 754 383 754 367 q 720 461 754 438 q 608 485 686 485 l 450 485 q 374 470 415 485 q 299 424 332 456 q 258 343 267 393 l 236 203 q 235 175 235 193 q 276 94 235 121 q 386 68 317 68 l 550 68 z "},"9":{"ha":872,"x_min":158,"x_max":865,"o":"m 651 1025 q 811 961 757 1025 q 865 738 865 897 q 817 368 865 536 q 667 97 769 200 q 408 -6 565 -6 q 158 7 289 -6 l 169 67 l 425 67 q 635 170 544 67 q 757 471 726 274 q 458 458 640 458 q 265 494 331 458 q 199 619 199 531 q 203 667 199 640 l 225 808 q 315 974 243 922 q 490 1025 388 1025 l 651 1025 m 493 953 q 367 919 417 953 q 303 799 317 885 l 283 676 q 281 640 281 651 q 331 551 281 575 q 485 528 381 528 l 767 528 q 786 733 786 657 q 747 903 786 854 q 629 953 707 953 l 493 953 z "},"\u0000":{"ha":0,"x_min":0,"x_max":0,"o":""},"\r":{"ha":329,"x_min":0,"x_max":0,"o":""}," ":{"ha":329,"x_min":0,"x_max":0,"o":""},"A":{"ha":931,"x_min":54,"x_max":876,"o":"m 582 1019 l 686 1019 l 876 0 l 793 0 l 733 315 l 301 315 l 138 0 l 54 0 l 582 1019 m 724 388 l 622 944 l 335 388 l 724 388 z "},"Á":{"ha":931,"x_min":54,"x_max":876,"o":"m 582 1019 l 686 1019 l 876 0 l 793 0 l 733 315 l 301 315 l 138 0 l 54 0 l 582 1019 m 724 388 l 622 944 l 335 388 l 724 388 m 778 1286 l 851 1286 l 647 1099 l 597 1099 l 778 1286 z "},"Ă":{"ha":931,"x_min":54,"x_max":876,"o":"m 582 1019 l 686 1019 l 876 0 l 793 0 l 733 315 l 301 315 l 138 0 l 54 0 l 582 1019 m 724 388 l 622 944 l 335 388 l 724 388 m 633 1097 q 524 1132 565 1097 q 482 1242 482 1167 q 485 1290 482 1254 l 525 1290 q 522 1251 522 1263 q 554 1165 522 1193 q 636 1138 586 1138 q 745 1174 700 1138 q 803 1290 790 1210 l 843 1290 q 770 1142 828 1186 q 633 1097 713 1097 z "},"Ắ":{"ha":931,"x_min":54,"x_max":876,"o":"m 582 1019 l 686 1019 l 876 0 l 793 0 l 733 315 l 301 315 l 138 0 l 54 0 l 582 1019 m 724 388 l 622 944 l 335 388 l 724 388 m 792 1433 l 865 1433 l 661 1246 l 611 1246 l 792 1433 m 622 1092 q 508 1121 553 1092 q 464 1213 464 1150 q 467 1243 464 1221 l 507 1243 q 506 1221 506 1235 q 539 1152 506 1175 q 624 1129 572 1129 q 727 1154 679 1129 q 785 1243 775 1179 l 825 1243 q 757 1126 813 1161 q 622 1092 701 1092 z "},"Ặ":{"ha":931,"x_min":54,"x_max":876,"o":"m 582 1019 l 686 1019 l 876 0 l 793 0 l 733 315 l 301 315 l 138 0 l 54 0 l 582 1019 m 724 388 l 622 944 l 335 388 l 724 388 m 633 1097 q 524 1132 565 1097 q 482 1242 482 1167 q 485 1290 482 1254 l 525 1290 q 522 1251 522 1263 q 554 1165 522 1193 q 636 1138 586 1138 q 745 1174 700 1138 q 803 1290 790 1210 l 843 1290 q 770 1142 828 1186 q 633 1097 713 1097 m 389 -285 q 377 -280 382 -285 q 372 -268 372 -275 l 372 -265 l 389 -165 q 413 -144 390 -144 l 449 -144 q 465 -160 465 -144 l 465 -165 l 450 -265 q 442 -280 449 -275 q 426 -285 436 -285 l 389 -285 z "},"Ằ":{"ha":931,"x_min":54,"x_max":876,"o":"m 582 1019 l 686 1019 l 876 0 l 793 0 l 733 315 l 301 315 l 138 0 l 54 0 l 582 1019 m 724 388 l 622 944 l 335 388 l 724 388 m 501 1433 l 574 1433 l 697 1246 l 650 1246 l 501 1433 m 622 1092 q 508 1121 553 1092 q 464 1213 464 1150 q 467 1243 464 1221 l 507 1243 q 506 1221 506 1235 q 539 1152 506 1175 q 624 1129 572 1129 q 729 1153 683 1129 q 785 1243 775 1178 l 825 1243 q 757 1126 813 1161 q 622 1092 701 1092 z "},"Ẳ":{"ha":931,"x_min":54,"x_max":876,"o":"m 582 1019 l 686 1019 l 876 0 l 793 0 l 733 315 l 301 315 l 138 0 l 54 0 l 582 1019 m 724 388 l 622 944 l 335 388 l 724 388 m 617 1228 q 717 1335 717 1257 q 656 1386 717 1386 q 601 1378 628 1386 l 607 1414 q 671 1424 638 1424 q 763 1340 763 1424 q 726 1251 763 1290 q 610 1189 689 1211 l 617 1228 m 622 1092 q 508 1121 553 1092 q 464 1213 464 1150 q 467 1243 464 1221 l 507 1243 q 506 1221 506 1235 q 539 1152 506 1175 q 624 1129 572 1129 q 728 1153 682 1129 q 785 1243 775 1178 l 825 1243 q 757 1126 813 1161 q 622 1092 701 1092 z "},"Ẵ":{"ha":931,"x_min":54,"x_max":910,"o":"m 582 1019 l 686 1019 l 876 0 l 793 0 l 733 315 l 301 315 l 138 0 l 54 0 l 582 1019 m 724 388 l 622 944 l 335 388 l 724 388 m 443 1292 q 492 1374 454 1350 q 578 1399 529 1399 q 630 1390 607 1399 q 685 1365 653 1382 q 737 1342 718 1349 q 778 1335 756 1335 q 838 1352 813 1335 q 868 1401 863 1369 l 910 1401 q 863 1320 899 1349 q 772 1292 828 1292 q 726 1299 747 1292 q 671 1324 706 1307 q 620 1347 642 1339 q 574 1356 599 1356 q 515 1340 540 1356 q 485 1292 490 1324 l 443 1292 m 629 1092 q 515 1120 560 1092 q 471 1211 471 1149 q 475 1243 471 1226 l 515 1243 q 514 1221 514 1235 q 547 1152 514 1175 q 631 1129 579 1129 q 738 1153 693 1129 q 792 1243 782 1178 l 833 1243 q 764 1126 819 1161 q 629 1092 708 1092 z "},"Â":{"ha":931,"x_min":54,"x_max":876,"o":"m 582 1019 l 686 1019 l 876 0 l 793 0 l 733 315 l 301 315 l 138 0 l 54 0 l 582 1019 m 724 388 l 622 944 l 335 388 l 724 388 m 632 1283 l 690 1283 l 819 1099 l 768 1099 l 653 1243 l 479 1099 l 428 1099 l 632 1283 z "},"Ấ":{"ha":931,"x_min":54,"x_max":1007,"o":"m 582 1019 l 686 1019 l 876 0 l 793 0 l 733 315 l 301 315 l 138 0 l 54 0 l 582 1019 m 724 388 l 622 944 l 335 388 l 724 388 m 938 1383 l 1007 1383 l 814 1201 l 769 1201 l 938 1383 m 629 1231 l 688 1231 l 826 1099 l 775 1099 l 651 1190 l 485 1099 l 435 1099 l 629 1231 z "},"Ậ":{"ha":931,"x_min":54,"x_max":876,"o":"m 582 1019 l 686 1019 l 876 0 l 793 0 l 733 315 l 301 315 l 138 0 l 54 0 l 582 1019 m 724 388 l 622 944 l 335 388 l 724 388 m 632 1283 l 690 1283 l 819 1099 l 768 1099 l 653 1243 l 479 1099 l 428 1099 l 632 1283 m 389 -285 q 377 -280 382 -285 q 372 -268 372 -275 l 372 -265 l 389 -165 q 413 -144 390 -144 l 449 -144 q 465 -160 465 -144 l 465 -165 l 450 -265 q 442 -280 449 -275 q 426 -285 436 -285 l 389 -285 z "},"Ầ":{"ha":931,"x_min":54,"x_max":876,"o":"m 582 1019 l 686 1019 l 876 0 l 793 0 l 733 315 l 301 315 l 138 0 l 54 0 l 582 1019 m 724 388 l 622 944 l 335 388 l 724 388 m 357 1383 l 425 1383 l 536 1201 l 492 1201 l 357 1383 m 621 1231 l 679 1231 l 817 1099 l 767 1099 l 643 1190 l 476 1099 l 425 1099 l 621 1231 z "},"Ẩ":{"ha":931,"x_min":54,"x_max":935,"o":"m 582 1019 l 686 1019 l 876 0 l 793 0 l 733 315 l 301 315 l 138 0 l 54 0 l 582 1019 m 724 388 l 622 944 l 335 388 l 724 388 m 800 1206 q 890 1297 890 1235 q 833 1339 890 1339 q 782 1331 804 1339 l 788 1367 q 849 1376 817 1376 q 913 1358 892 1376 q 935 1304 935 1339 q 901 1224 935 1260 q 794 1169 867 1189 l 800 1206 m 633 1231 l 692 1231 l 831 1099 l 779 1099 l 656 1190 l 490 1099 l 439 1099 l 633 1231 z "},"Ẫ":{"ha":931,"x_min":54,"x_max":911,"o":"m 582 1019 l 686 1019 l 876 0 l 793 0 l 733 315 l 301 315 l 138 0 l 54 0 l 582 1019 m 724 388 l 622 944 l 335 388 l 724 388 m 446 1297 q 494 1380 457 1356 q 579 1404 531 1404 q 631 1396 608 1404 q 688 1369 654 1388 q 735 1348 714 1356 q 778 1340 756 1340 q 839 1358 814 1340 q 869 1407 864 1375 l 911 1407 q 865 1326 900 1354 q 775 1297 831 1297 q 726 1306 749 1297 q 671 1331 703 1314 q 619 1353 639 1346 q 575 1361 599 1361 q 517 1345 542 1361 q 488 1297 493 1329 l 446 1297 m 635 1231 l 693 1231 l 831 1099 l 779 1099 l 656 1190 l 489 1099 l 439 1099 l 635 1231 z "},"Ȁ":{"ha":931,"x_min":54,"x_max":876,"o":"m 582 1019 l 686 1019 l 876 0 l 793 0 l 733 315 l 301 315 l 138 0 l 54 0 l 582 1019 m 724 388 l 622 944 l 335 388 l 724 388 m 374 1286 l 446 1286 l 569 1099 l 522 1099 l 374 1286 m 563 1286 l 635 1286 l 758 1099 l 711 1099 l 563 1286 z "},"Ä":{"ha":931,"x_min":54,"x_max":876,"o":"m 582 1019 l 686 1019 l 876 0 l 793 0 l 733 315 l 301 315 l 138 0 l 54 0 l 582 1019 m 724 388 l 622 944 l 335 388 l 724 388 m 457 1136 q 440 1153 440 1136 l 456 1256 q 481 1276 460 1276 l 517 1276 q 533 1261 533 1276 l 517 1156 q 509 1141 515 1146 q 493 1136 503 1136 l 457 1136 m 742 1136 q 730 1141 735 1136 q 725 1153 725 1146 q 742 1256 725 1144 q 765 1276 743 1276 l 803 1276 q 819 1261 819 1276 q 803 1156 819 1267 q 795 1141 801 1146 q 779 1136 789 1136 l 742 1136 z "},"Ạ":{"ha":931,"x_min":54,"x_max":876,"o":"m 582 1019 l 686 1019 l 876 0 l 793 0 l 733 315 l 301 315 l 138 0 l 54 0 l 582 1019 m 724 388 l 622 944 l 335 388 l 724 388 m 389 -285 q 377 -280 382 -285 q 372 -268 372 -275 l 372 -265 l 389 -165 q 413 -144 390 -144 l 449 -144 q 465 -160 465 -144 l 465 -165 l 450 -265 q 442 -280 449 -275 q 426 -285 436 -285 l 389 -285 z "},"À":{"ha":931,"x_min":54,"x_max":876,"o":"m 582 1019 l 686 1019 l 876 0 l 793 0 l 733 315 l 301 315 l 138 0 l 54 0 l 582 1019 m 724 388 l 622 944 l 335 388 l 724 388 m 493 1286 l 565 1286 l 689 1099 l 642 1099 l 493 1286 z "},"Ả":{"ha":931,"x_min":54,"x_max":876,"o":"m 582 1019 l 686 1019 l 876 0 l 793 0 l 733 315 l 301 315 l 138 0 l 54 0 l 582 1019 m 724 388 l 622 944 l 335 388 l 724 388 m 594 1117 q 694 1224 694 1146 q 633 1275 694 1275 q 579 1267 607 1275 l 585 1303 q 649 1313 615 1313 q 740 1229 740 1313 q 703 1140 740 1179 q 588 1078 667 1100 l 594 1117 z "},"Ȃ":{"ha":931,"x_min":54,"x_max":876,"o":"m 582 1019 l 686 1019 l 876 0 l 793 0 l 733 315 l 301 315 l 138 0 l 54 0 l 582 1019 m 724 388 l 622 944 l 335 388 l 724 388 m 457 1099 q 530 1247 472 1203 q 667 1292 588 1292 q 776 1257 735 1292 q 818 1147 818 1222 q 815 1099 818 1135 l 775 1099 q 778 1138 778 1126 q 746 1224 778 1196 q 661 1251 714 1251 q 555 1215 600 1251 q 497 1099 510 1178 l 457 1099 z "},"Ā":{"ha":931,"x_min":54,"x_max":876,"o":"m 582 1019 l 686 1019 l 876 0 l 793 0 l 733 315 l 301 315 l 138 0 l 54 0 l 582 1019 m 724 388 l 622 944 l 335 388 l 724 388 m 471 1214 l 832 1214 l 824 1165 l 463 1165 l 471 1214 z "},"Ą":{"ha":931,"x_min":54,"x_max":876,"o":"m 582 1019 l 686 1019 l 876 0 l 793 0 l 733 315 l 301 315 l 138 0 l 54 0 l 582 1019 m 724 388 l 622 944 l 335 388 l 724 388 m 790 -257 q 697 -228 731 -257 q 663 -154 663 -200 q 694 -72 663 -114 q 793 0 726 -29 l 826 0 q 741 -65 771 -26 q 711 -135 711 -103 q 740 -193 711 -172 q 824 -214 768 -214 l 832 -214 l 825 -254 q 790 -257 803 -257 z "},"Å":{"ha":931,"x_min":54,"x_max":876,"o":"m 582 1019 l 686 1019 l 876 0 l 793 0 l 733 315 l 301 315 l 138 0 l 54 0 l 582 1019 m 724 388 l 622 944 l 335 388 l 724 388 m 639 1078 q 506 1199 506 1078 q 552 1321 506 1271 q 681 1371 599 1371 q 774 1342 739 1371 q 810 1251 810 1314 q 765 1127 810 1176 q 639 1078 719 1078 m 642 1115 q 735 1153 704 1115 q 767 1249 767 1190 q 742 1314 767 1294 q 678 1333 717 1333 q 581 1295 614 1333 q 547 1200 547 1257 q 574 1135 547 1154 q 642 1115 600 1115 z "},"Ǻ":{"ha":931,"x_min":54,"x_max":901,"o":"m 639 1078 q 506 1199 506 1078 q 550 1319 506 1269 q 674 1371 594 1369 l 828 1531 l 901 1531 l 722 1367 q 810 1251 810 1347 q 765 1127 810 1176 q 639 1078 719 1078 m 678 1333 q 581 1295 614 1333 q 547 1200 547 1257 q 574 1135 547 1154 q 642 1115 600 1115 q 735 1153 704 1115 q 767 1249 767 1190 q 742 1314 767 1294 q 678 1333 717 1333 m 686 1019 l 876 0 l 793 0 l 733 315 l 301 315 l 138 0 l 54 0 l 582 1019 l 686 1019 m 724 388 l 622 944 l 335 388 l 724 388 z "},"Ã":{"ha":931,"x_min":54,"x_max":932,"o":"m 582 1019 l 686 1019 l 876 0 l 793 0 l 733 315 l 301 315 l 138 0 l 54 0 l 582 1019 m 724 388 l 622 944 l 335 388 l 724 388 m 428 1131 q 482 1234 440 1201 q 578 1267 524 1267 q 633 1254 607 1267 q 692 1219 660 1242 q 745 1188 725 1199 q 789 1178 765 1178 q 856 1202 828 1178 q 890 1269 883 1226 l 932 1269 q 883 1167 921 1204 q 783 1131 844 1131 q 733 1142 757 1131 q 676 1175 710 1153 q 620 1208 643 1197 q 572 1219 597 1219 q 506 1197 535 1219 q 469 1131 478 1175 l 428 1131 z "},"Æ":{"ha":1276,"x_min":35,"x_max":1393,"o":"m 874 -6 q 735 21 786 -7 q 683 128 683 49 q 686 163 683 138 l 710 313 l 365 313 l 121 0 l 35 0 l 658 808 q 768 933 719 889 q 872 999 817 978 q 1004 1019 928 1019 q 1393 1008 1124 1019 l 1383 946 l 1014 946 q 916 930 946 946 q 879 890 886 914 q 861 796 872 867 l 821 543 l 1261 536 l 1250 476 l 810 469 l 767 200 q 764 165 764 188 q 799 89 764 108 q 890 69 833 69 l 1244 69 l 1235 7 q 907 -4 1179 4 q 874 -6 896 -6 m 721 383 l 800 881 l 417 383 l 721 383 z "},"Ǽ":{"ha":1276,"x_min":35,"x_max":1393,"o":"m 874 -6 q 735 21 786 -7 q 683 128 683 49 q 686 163 683 138 l 710 313 l 365 313 l 121 0 l 35 0 l 658 808 q 768 933 719 889 q 872 999 817 978 q 1004 1019 928 1019 q 1393 1008 1124 1019 l 1383 946 l 1014 946 q 916 930 946 946 q 879 890 886 914 q 861 796 872 867 l 821 543 l 1261 536 l 1250 476 l 810 469 l 767 200 q 764 165 764 188 q 799 89 764 108 q 890 69 833 69 l 1244 69 l 1235 7 q 907 -4 1179 4 q 874 -6 896 -6 m 721 383 l 800 881 l 417 383 l 721 383 m 1000 1286 l 1074 1286 l 869 1099 l 819 1099 l 1000 1286 z "},"B":{"ha":843,"x_min":104,"x_max":850,"o":"m 265 1019 l 610 1019 q 850 826 850 1019 q 844 757 850 789 q 779 608 831 665 q 656 533 728 551 q 758 465 713 517 q 803 325 803 413 q 794 247 803 282 q 469 0 747 0 l 104 0 l 265 1019 m 558 563 q 694 609 643 563 q 763 743 744 656 q 771 810 771 781 q 594 947 771 947 l 335 947 l 274 563 l 558 563 m 482 72 q 645 123 590 72 q 721 272 700 174 q 726 331 726 301 q 678 453 726 408 q 550 497 629 497 l 264 497 l 196 72 l 482 72 z "},"Ḃ":{"ha":843,"x_min":104,"x_max":850,"o":"m 265 1019 l 610 1019 q 850 826 850 1019 q 844 757 850 789 q 779 608 831 665 q 656 533 728 551 q 758 465 713 517 q 803 325 803 413 q 794 247 803 282 q 469 0 747 0 l 104 0 l 265 1019 m 558 563 q 694 609 643 563 q 763 743 744 656 q 771 810 771 781 q 594 947 771 947 l 335 947 l 274 563 l 558 563 m 482 72 q 645 123 590 72 q 721 272 700 174 q 726 331 726 301 q 678 453 726 408 q 550 497 629 497 l 264 497 l 196 72 l 482 72 m 539 1146 q 527 1151 532 1146 q 522 1163 522 1156 l 522 1165 l 539 1265 q 563 1286 540 1286 l 599 1286 q 615 1271 615 1286 l 615 1265 l 600 1165 q 592 1151 599 1156 q 576 1146 586 1146 l 539 1146 z "},"C":{"ha":819,"x_min":150,"x_max":888,"o":"m 432 -8 q 218 70 286 -8 q 150 306 150 149 q 172 529 150 393 q 307 903 211 779 q 581 1028 403 1028 q 742 1017 672 1028 q 888 990 813 1007 l 876 929 q 589 956 721 956 q 427 910 492 956 q 321 767 363 864 q 251 508 279 669 q 232 306 232 394 q 283 120 232 176 q 453 64 333 64 q 616 69 551 64 q 742 83 681 74 l 732 22 q 432 -8 600 -8 z "},"Ć":{"ha":819,"x_min":150,"x_max":888,"o":"m 432 -8 q 218 70 286 -8 q 150 306 150 149 q 172 529 150 393 q 307 903 211 779 q 581 1028 403 1028 q 742 1017 672 1028 q 888 990 813 1007 l 876 929 q 589 956 721 956 q 427 910 492 956 q 321 767 363 864 q 251 508 279 669 q 232 306 232 394 q 283 120 232 176 q 453 64 333 64 q 616 69 551 64 q 742 83 681 74 l 732 22 q 432 -8 600 -8 m 739 1286 l 813 1286 l 608 1099 l 558 1099 l 739 1286 z "},"Č":{"ha":819,"x_min":150,"x_max":888,"o":"m 432 -8 q 218 70 286 -8 q 150 306 150 149 q 172 529 150 393 q 307 903 211 779 q 581 1028 403 1028 q 742 1017 672 1028 q 888 990 813 1007 l 876 929 q 589 956 721 956 q 427 910 492 956 q 321 767 363 864 q 251 508 279 669 q 232 306 232 394 q 283 120 232 176 q 453 64 333 64 q 616 69 551 64 q 742 83 681 74 l 732 22 q 432 -8 600 -8 m 458 1283 l 510 1283 l 624 1139 l 800 1283 l 850 1283 l 646 1099 l 588 1099 l 458 1283 z "},"Ç":{"ha":819,"x_min":150,"x_max":888,"o":"m 589 956 q 427 910 492 956 q 321 767 363 864 q 251 508 279 669 q 232 306 232 394 q 283 120 232 176 q 453 64 333 64 q 616 69 551 64 q 742 83 681 74 l 732 22 q 460 -8 613 -6 l 393 -89 q 483 -160 483 -93 q 466 -210 483 -183 q 416 -253 449 -236 q 338 -271 383 -271 l 299 -271 l 304 -237 l 338 -235 q 407 -205 382 -231 q 432 -156 432 -179 q 412 -119 432 -132 q 340 -104 392 -106 l 421 -8 q 215 74 281 -6 q 150 306 150 153 q 172 529 150 393 q 307 903 211 779 q 581 1028 403 1028 q 742 1017 672 1028 q 888 990 813 1007 l 876 929 q 589 956 721 956 z "},"Ḉ":{"ha":819,"x_min":150,"x_max":888,"o":"m 608 1099 l 558 1099 l 739 1286 l 813 1286 l 608 1099 m 589 956 q 427 910 492 956 q 321 767 363 864 q 251 508 279 669 q 232 306 232 394 q 283 120 232 176 q 453 64 333 64 q 616 69 551 64 q 742 83 681 74 l 732 22 q 460 -8 613 -6 l 393 -89 q 483 -160 483 -93 q 466 -210 483 -183 q 416 -253 449 -236 q 338 -271 383 -271 l 299 -271 l 304 -237 l 338 -235 q 407 -205 382 -231 q 432 -156 432 -179 q 412 -119 432 -132 q 340 -104 392 -106 l 421 -8 q 215 74 281 -6 q 150 306 150 153 q 172 529 150 393 q 307 903 211 779 q 581 1028 403 1028 q 742 1017 672 1028 q 888 990 813 1007 l 876 929 q 589 956 721 956 z "},"Ĉ":{"ha":819,"x_min":150,"x_max":888,"o":"m 432 -8 q 218 70 286 -8 q 150 306 150 149 q 172 529 150 393 q 307 903 211 779 q 581 1028 403 1028 q 742 1017 672 1028 q 888 990 813 1007 l 876 929 q 589 956 721 956 q 427 910 492 956 q 321 767 363 864 q 251 508 279 669 q 232 306 232 394 q 283 120 232 176 q 453 64 333 64 q 616 69 551 64 q 742 83 681 74 l 732 22 q 432 -8 600 -8 m 593 1283 l 651 1283 l 781 1099 l 729 1099 l 614 1243 l 440 1099 l 389 1099 l 593 1283 z "},"Ċ":{"ha":819,"x_min":150,"x_max":888,"o":"m 432 -8 q 218 70 286 -8 q 150 306 150 149 q 172 529 150 393 q 307 903 211 779 q 581 1028 403 1028 q 742 1017 672 1028 q 888 990 813 1007 l 876 929 q 589 956 721 956 q 427 910 492 956 q 321 767 363 864 q 251 508 279 669 q 232 306 232 394 q 283 120 232 176 q 453 64 333 64 q 616 69 551 64 q 742 83 681 74 l 732 22 q 432 -8 600 -8 m 586 1146 q 574 1151 579 1146 q 569 1163 569 1156 l 569 1165 l 586 1265 q 610 1286 588 1286 l 646 1286 q 663 1271 663 1286 l 663 1265 l 647 1165 q 640 1151 646 1156 q 624 1146 633 1146 l 586 1146 z "},"D":{"ha":931,"x_min":104,"x_max":936,"o":"m 265 1019 l 626 1019 q 866 932 796 1019 q 936 665 936 844 q 919 490 936 586 q 775 131 883 261 q 471 0 667 0 l 104 0 l 265 1019 m 476 72 q 722 191 635 72 q 840 508 810 310 q 856 667 856 604 q 801 879 856 811 q 608 947 746 947 l 335 947 l 196 72 l 476 72 z "},"Ð":{"ha":931,"x_min":83,"x_max":936,"o":"m 626 1019 q 866 932 796 1019 q 936 665 936 844 q 919 490 936 586 q 775 131 883 261 q 471 0 667 0 l 104 0 l 182 489 l 83 489 l 94 547 l 190 547 l 265 1019 l 626 1019 m 840 508 q 856 667 856 604 q 801 879 856 811 q 608 947 746 947 l 335 947 l 271 547 l 544 547 l 533 489 l 263 489 l 196 72 l 476 72 q 722 191 635 72 q 840 508 810 310 z "},"Ď":{"ha":931,"x_min":104,"x_max":936,"o":"m 265 1019 l 626 1019 q 866 932 796 1019 q 936 665 936 844 q 919 490 936 586 q 775 131 883 261 q 471 0 667 0 l 104 0 l 265 1019 m 476 72 q 722 191 635 72 q 840 508 810 310 q 856 667 856 604 q 801 879 856 811 q 608 947 746 947 l 335 947 l 196 72 l 476 72 m 444 1283 l 496 1283 l 610 1139 l 786 1283 l 836 1283 l 632 1099 l 574 1099 l 444 1283 z "},"Đ":{"ha":931,"x_min":83,"x_max":936,"o":"m 626 1019 q 866 932 796 1019 q 936 665 936 844 q 919 490 936 586 q 775 131 883 261 q 471 0 667 0 l 104 0 l 182 489 l 83 489 l 94 547 l 190 547 l 265 1019 l 626 1019 m 840 508 q 856 667 856 604 q 801 879 856 811 q 608 947 746 947 l 335 947 l 271 547 l 544 547 l 533 489 l 263 489 l 196 72 l 476 72 q 722 191 635 72 q 840 508 810 310 z "},"Ḋ":{"ha":931,"x_min":104,"x_max":936,"o":"m 265 1019 l 626 1019 q 866 932 796 1019 q 936 665 936 844 q 919 490 936 586 q 775 131 883 261 q 471 0 667 0 l 104 0 l 265 1019 m 476 72 q 722 191 635 72 q 840 508 810 310 q 856 667 856 604 q 801 879 856 811 q 608 947 746 947 l 335 947 l 196 72 l 476 72 m 572 1146 q 560 1151 565 1146 q 556 1163 556 1156 l 556 1165 l 572 1265 q 596 1286 574 1286 l 632 1286 q 649 1271 649 1286 l 649 1265 l 633 1165 q 626 1151 632 1156 q 610 1146 619 1146 l 572 1146 z "},"Ḍ":{"ha":931,"x_min":104,"x_max":936,"o":"m 265 1019 l 626 1019 q 866 932 796 1019 q 936 665 936 844 q 919 490 936 586 q 775 131 883 261 q 471 0 667 0 l 104 0 l 265 1019 m 476 72 q 722 191 635 72 q 840 508 810 310 q 856 667 856 604 q 801 879 856 811 q 608 947 746 947 l 335 947 l 196 72 l 476 72 m 336 -285 q 324 -280 329 -285 q 319 -268 319 -275 l 319 -265 l 336 -165 q 360 -144 338 -144 l 396 -144 q 413 -160 413 -144 l 413 -165 l 397 -265 q 390 -280 396 -275 q 374 -285 383 -285 l 336 -285 z "},"Ḏ":{"ha":931,"x_min":104,"x_max":936,"o":"m 265 1019 l 626 1019 q 866 932 796 1019 q 936 665 936 844 q 919 490 936 586 q 775 131 883 261 q 471 0 667 0 l 104 0 l 265 1019 m 476 72 q 722 191 635 72 q 840 508 810 310 q 856 667 856 604 q 801 879 856 811 q 608 947 746 947 l 335 947 l 196 72 l 476 72 m 188 -203 l 549 -203 l 540 -251 l 179 -251 l 188 -203 z "},"E":{"ha":796,"x_min":129,"x_max":872,"o":"m 310 -8 q 181 23 232 -10 q 129 142 129 56 q 133 190 129 164 l 235 829 q 312 975 253 931 q 454 1019 371 1019 q 872 1008 592 1019 l 861 946 l 463 946 q 363 914 400 946 q 313 810 325 882 l 271 544 l 738 535 l 728 475 l 258 469 l 217 200 q 214 163 214 172 q 245 87 214 107 q 336 67 276 67 l 725 67 l 714 3 q 310 -8 456 -6 z "},"É":{"ha":796,"x_min":129,"x_max":872,"o":"m 310 -8 q 181 23 232 -10 q 129 142 129 56 q 133 190 129 164 l 235 829 q 312 975 253 931 q 454 1019 371 1019 q 872 1008 592 1019 l 861 946 l 463 946 q 363 914 400 946 q 313 810 325 882 l 271 544 l 738 535 l 728 475 l 258 469 l 217 200 q 214 163 214 172 q 245 87 214 107 q 336 67 276 67 l 725 67 l 714 3 q 310 -8 456 -6 m 731 1286 l 804 1286 l 600 1099 l 550 1099 l 731 1286 z "},"Ĕ":{"ha":796,"x_min":129,"x_max":872,"o":"m 310 -8 q 181 23 232 -10 q 129 142 129 56 q 133 190 129 164 l 235 829 q 312 975 253 931 q 454 1019 371 1019 q 872 1008 592 1019 l 861 946 l 463 946 q 363 914 400 946 q 313 810 325 882 l 271 544 l 738 535 l 728 475 l 258 469 l 217 200 q 214 163 214 172 q 245 87 214 107 q 336 67 276 67 l 725 67 l 714 3 q 310 -8 456 -6 m 586 1097 q 476 1132 518 1097 q 435 1242 435 1167 q 438 1290 435 1254 l 478 1290 q 475 1251 475 1263 q 507 1165 475 1193 q 589 1138 539 1138 q 698 1174 653 1138 q 756 1290 743 1210 l 796 1290 q 723 1142 781 1186 q 586 1097 665 1097 z "},"Ě":{"ha":796,"x_min":129,"x_max":872,"o":"m 310 -8 q 181 23 232 -10 q 129 142 129 56 q 133 190 129 164 l 235 829 q 312 975 253 931 q 454 1019 371 1019 q 872 1008 592 1019 l 861 946 l 463 946 q 363 914 400 946 q 313 810 325 882 l 271 544 l 738 535 l 728 475 l 258 469 l 217 200 q 214 163 214 172 q 245 87 214 107 q 336 67 276 67 l 725 67 l 714 3 q 310 -8 456 -6 m 450 1283 l 501 1283 l 615 1139 l 792 1283 l 842 1283 l 638 1099 l 579 1099 l 450 1283 z "},"Ḝ":{"ha":796,"x_min":129,"x_max":872,"o":"m 586 1097 q 476 1132 518 1097 q 435 1242 435 1167 q 438 1290 435 1254 l 478 1290 q 475 1251 475 1263 q 507 1165 475 1193 q 589 1138 539 1138 q 698 1174 653 1138 q 756 1290 743 1210 l 796 1290 q 723 1142 781 1186 q 586 1097 665 1097 m 463 946 q 363 914 400 946 q 313 810 325 882 l 271 544 l 738 535 l 728 475 l 258 469 l 217 200 q 214 163 214 172 q 245 87 214 107 q 336 67 276 67 l 725 67 l 714 3 l 431 -6 l 363 -89 q 453 -160 453 -93 q 435 -210 453 -183 q 385 -253 418 -236 q 307 -271 353 -271 l 268 -271 l 274 -237 l 307 -235 q 376 -205 351 -231 q 401 -156 401 -179 q 381 -119 401 -132 q 310 -104 361 -106 l 392 -7 l 304 -8 q 129 142 129 -8 q 133 190 129 164 l 235 829 q 312 975 253 931 q 454 1019 371 1019 q 872 1008 592 1019 l 861 946 l 463 946 z "},"Ê":{"ha":796,"x_min":129,"x_max":872,"o":"m 310 -8 q 181 23 232 -10 q 129 142 129 56 q 133 190 129 164 l 235 829 q 312 975 253 931 q 454 1019 371 1019 q 872 1008 592 1019 l 861 946 l 463 946 q 363 914 400 946 q 313 810 325 882 l 271 544 l 738 535 l 728 475 l 258 469 l 217 200 q 214 163 214 172 q 245 87 214 107 q 336 67 276 67 l 725 67 l 714 3 q 310 -8 456 -6 m 585 1283 l 643 1283 l 772 1099 l 721 1099 l 606 1243 l 432 1099 l 381 1099 l 585 1283 z "},"Ế":{"ha":796,"x_min":129,"x_max":960,"o":"m 310 -8 q 181 23 232 -10 q 129 142 129 56 q 133 190 129 164 l 235 829 q 312 975 253 931 q 454 1019 371 1019 q 872 1008 592 1019 l 861 946 l 463 946 q 363 914 400 946 q 313 810 325 882 l 271 544 l 738 535 l 728 475 l 258 469 l 217 200 q 214 163 214 172 q 245 87 214 107 q 336 67 276 67 l 725 67 l 714 3 q 310 -8 456 -6 m 890 1383 l 960 1383 l 767 1201 l 722 1201 l 890 1383 m 582 1231 l 640 1231 l 779 1099 l 728 1099 l 604 1190 l 438 1099 l 388 1099 l 582 1231 z "},"Ệ":{"ha":796,"x_min":129,"x_max":872,"o":"m 310 -8 q 181 23 232 -10 q 129 142 129 56 q 133 190 129 164 l 235 829 q 312 975 253 931 q 454 1019 371 1019 q 872 1008 592 1019 l 861 946 l 463 946 q 363 914 400 946 q 313 810 325 882 l 271 544 l 738 535 l 728 475 l 258 469 l 217 200 q 214 163 214 172 q 245 87 214 107 q 336 67 276 67 l 725 67 l 714 3 q 310 -8 456 -6 m 585 1283 l 643 1283 l 772 1099 l 721 1099 l 606 1243 l 432 1099 l 381 1099 l 585 1283 m 342 -285 q 330 -280 335 -285 q 325 -268 325 -275 l 325 -265 l 342 -165 q 365 -144 343 -144 l 401 -144 q 418 -160 418 -144 l 418 -165 l 403 -265 q 395 -280 401 -275 q 379 -285 389 -285 l 342 -285 z "},"Ề":{"ha":796,"x_min":129,"x_max":872,"o":"m 310 -8 q 181 23 232 -10 q 129 142 129 56 q 133 190 129 164 l 235 829 q 312 975 253 931 q 454 1019 371 1019 q 872 1008 592 1019 l 861 946 l 463 946 q 363 914 400 946 q 313 810 325 882 l 271 544 l 738 535 l 728 475 l 258 469 l 217 200 q 214 163 214 172 q 245 87 214 107 q 336 67 276 67 l 725 67 l 714 3 q 310 -8 456 -6 m 310 1383 l 378 1383 l 489 1201 l 444 1201 l 310 1383 m 574 1231 l 632 1231 l 769 1099 l 719 1099 l 596 1190 l 429 1099 l 378 1099 l 574 1231 z "},"Ể":{"ha":796,"x_min":129,"x_max":888,"o":"m 310 -8 q 181 23 232 -10 q 129 142 129 56 q 133 190 129 164 l 235 829 q 312 975 253 931 q 454 1019 371 1019 q 872 1008 592 1019 l 861 946 l 463 946 q 363 914 400 946 q 313 810 325 882 l 271 544 l 738 535 l 728 475 l 258 469 l 217 200 q 214 163 214 172 q 245 87 214 107 q 336 67 276 67 l 725 67 l 714 3 q 310 -8 456 -6 m 753 1206 q 843 1297 843 1235 q 786 1339 843 1339 q 735 1331 757 1339 l 740 1367 q 801 1376 769 1376 q 866 1358 844 1376 q 888 1304 888 1339 q 853 1224 888 1260 q 747 1169 819 1189 l 753 1206 m 586 1231 l 644 1231 l 783 1099 l 732 1099 l 608 1190 l 443 1099 l 392 1099 l 586 1231 z "},"Ễ":{"ha":796,"x_min":129,"x_max":872,"o":"m 310 -8 q 181 23 232 -10 q 129 142 129 56 q 133 190 129 164 l 235 829 q 312 975 253 931 q 454 1019 371 1019 q 872 1008 592 1019 l 861 946 l 463 946 q 363 914 400 946 q 313 810 325 882 l 271 544 l 738 535 l 728 475 l 258 469 l 217 200 q 214 163 214 172 q 245 87 214 107 q 336 67 276 67 l 725 67 l 714 3 q 310 -8 456 -6 m 399 1297 q 447 1380 410 1356 q 532 1404 483 1404 q 584 1396 561 1404 q 640 1369 607 1388 q 688 1348 667 1356 q 731 1340 708 1340 q 792 1358 767 1340 q 822 1407 817 1375 l 864 1407 q 818 1326 853 1354 q 728 1297 783 1297 q 678 1306 701 1297 q 624 1331 656 1314 q 572 1353 592 1346 q 528 1361 551 1361 q 470 1345 494 1361 q 440 1297 446 1329 l 399 1297 m 588 1231 l 646 1231 l 783 1099 l 732 1099 l 608 1190 l 442 1099 l 392 1099 l 588 1231 z "},"Ȅ":{"ha":796,"x_min":129,"x_max":872,"o":"m 310 -8 q 181 23 232 -10 q 129 142 129 56 q 133 190 129 164 l 235 829 q 312 975 253 931 q 454 1019 371 1019 q 872 1008 592 1019 l 861 946 l 463 946 q 363 914 400 946 q 313 810 325 882 l 271 544 l 738 535 l 728 475 l 258 469 l 217 200 q 214 163 214 172 q 245 87 214 107 q 336 67 276 67 l 725 67 l 714 3 q 310 -8 456 -6 m 326 1286 l 399 1286 l 522 1099 l 475 1099 l 326 1286 m 515 1286 l 588 1286 l 711 1099 l 664 1099 l 515 1286 z "},"Ë":{"ha":796,"x_min":129,"x_max":872,"o":"m 310 -8 q 181 23 232 -10 q 129 142 129 56 q 133 190 129 164 l 235 829 q 312 975 253 931 q 454 1019 371 1019 q 872 1008 592 1019 l 861 946 l 463 946 q 363 914 400 946 q 313 810 325 882 l 271 544 l 738 535 l 728 475 l 258 469 l 217 200 q 214 163 214 172 q 245 87 214 107 q 336 67 276 67 l 725 67 l 714 3 q 310 -8 456 -6 m 410 1136 q 393 1153 393 1136 l 408 1256 q 433 1276 413 1276 l 469 1276 q 486 1261 486 1276 l 469 1156 q 462 1141 468 1146 q 446 1136 456 1136 l 410 1136 m 694 1136 q 683 1141 688 1136 q 678 1153 678 1146 q 694 1256 678 1144 q 718 1276 696 1276 l 756 1276 q 772 1261 772 1276 q 756 1156 772 1267 q 748 1141 754 1146 q 732 1136 742 1136 l 694 1136 z "},"Ė":{"ha":796,"x_min":129,"x_max":872,"o":"m 310 -8 q 181 23 232 -10 q 129 142 129 56 q 133 190 129 164 l 235 829 q 312 975 253 931 q 454 1019 371 1019 q 872 1008 592 1019 l 861 946 l 463 946 q 363 914 400 946 q 313 810 325 882 l 271 544 l 738 535 l 728 475 l 258 469 l 217 200 q 214 163 214 172 q 245 87 214 107 q 336 67 276 67 l 725 67 l 714 3 q 310 -8 456 -6 m 578 1146 q 566 1151 571 1146 q 561 1163 561 1156 l 561 1165 l 578 1265 q 601 1286 579 1286 l 638 1286 q 654 1271 654 1286 l 654 1265 l 639 1165 q 631 1151 638 1156 q 615 1146 625 1146 l 578 1146 z "},"Ẹ":{"ha":796,"x_min":129,"x_max":872,"o":"m 310 -8 q 181 23 232 -10 q 129 142 129 56 q 133 190 129 164 l 235 829 q 312 975 253 931 q 454 1019 371 1019 q 872 1008 592 1019 l 861 946 l 463 946 q 363 914 400 946 q 313 810 325 882 l 271 544 l 738 535 l 728 475 l 258 469 l 217 200 q 214 163 214 172 q 245 87 214 107 q 336 67 276 67 l 725 67 l 714 3 q 310 -8 456 -6 m 342 -285 q 330 -280 335 -285 q 325 -268 325 -275 l 325 -265 l 342 -165 q 365 -144 343 -144 l 401 -144 q 418 -160 418 -144 l 418 -165 l 403 -265 q 395 -280 401 -275 q 379 -285 389 -285 l 342 -285 z "},"È":{"ha":796,"x_min":129,"x_max":872,"o":"m 310 -8 q 181 23 232 -10 q 129 142 129 56 q 133 190 129 164 l 235 829 q 312 975 253 931 q 454 1019 371 1019 q 872 1008 592 1019 l 861 946 l 463 946 q 363 914 400 946 q 313 810 325 882 l 271 544 l 738 535 l 728 475 l 258 469 l 217 200 q 214 163 214 172 q 245 87 214 107 q 336 67 276 67 l 725 67 l 714 3 q 310 -8 456 -6 m 446 1286 l 518 1286 l 642 1099 l 594 1099 l 446 1286 z "},"Ẻ":{"ha":796,"x_min":129,"x_max":872,"o":"m 310 -8 q 181 23 232 -10 q 129 142 129 56 q 133 190 129 164 l 235 829 q 312 975 253 931 q 454 1019 371 1019 q 872 1008 592 1019 l 861 946 l 463 946 q 363 914 400 946 q 313 810 325 882 l 271 544 l 738 535 l 728 475 l 258 469 l 217 200 q 214 163 214 172 q 245 87 214 107 q 336 67 276 67 l 725 67 l 714 3 q 310 -8 456 -6 m 547 1117 q 647 1224 647 1146 q 586 1275 647 1275 q 532 1267 560 1275 l 538 1303 q 601 1313 568 1313 q 693 1229 693 1313 q 656 1140 693 1179 q 540 1078 619 1100 l 547 1117 z "},"Ȇ":{"ha":796,"x_min":129,"x_max":872,"o":"m 310 -8 q 181 23 232 -10 q 129 142 129 56 q 133 190 129 164 l 235 829 q 312 975 253 931 q 454 1019 371 1019 q 872 1008 592 1019 l 861 946 l 463 946 q 363 914 400 946 q 313 810 325 882 l 271 544 l 738 535 l 728 475 l 258 469 l 217 200 q 214 163 214 172 q 245 87 214 107 q 336 67 276 67 l 725 67 l 714 3 q 310 -8 456 -6 m 410 1099 q 483 1247 425 1203 q 619 1292 540 1292 q 729 1257 688 1292 q 771 1147 771 1222 q 768 1099 771 1135 l 728 1099 q 731 1138 731 1126 q 699 1224 731 1196 q 614 1251 667 1251 q 508 1215 553 1251 q 450 1099 463 1178 l 410 1099 z "},"Ē":{"ha":796,"x_min":129,"x_max":872,"o":"m 310 -8 q 181 23 232 -10 q 129 142 129 56 q 133 190 129 164 l 235 829 q 312 975 253 931 q 454 1019 371 1019 q 872 1008 592 1019 l 861 946 l 463 946 q 363 914 400 946 q 313 810 325 882 l 271 544 l 738 535 l 728 475 l 258 469 l 217 200 q 214 163 214 172 q 245 87 214 107 q 336 67 276 67 l 725 67 l 714 3 q 310 -8 456 -6 m 424 1214 l 785 1214 l 776 1165 l 415 1165 l 424 1214 z "},"Ḗ":{"ha":796,"x_min":129,"x_max":872,"o":"m 310 -8 q 181 23 232 -10 q 129 142 129 56 q 133 190 129 164 l 235 829 q 312 975 253 931 q 454 1019 371 1019 q 872 1008 592 1019 l 861 946 l 463 946 q 363 914 400 946 q 313 810 325 882 l 271 544 l 738 535 l 728 475 l 258 469 l 217 200 q 214 163 214 172 q 245 87 214 107 q 336 67 276 67 l 725 67 l 714 3 q 310 -8 456 -6 m 424 1214 l 785 1214 l 776 1165 l 415 1165 l 424 1214 m 756 1464 l 829 1464 l 625 1276 l 575 1276 l 756 1464 z "},"Ḕ":{"ha":796,"x_min":129,"x_max":872,"o":"m 310 -8 q 181 23 232 -10 q 129 142 129 56 q 133 190 129 164 l 235 829 q 312 975 253 931 q 454 1019 371 1019 q 872 1008 592 1019 l 861 946 l 463 946 q 363 914 400 946 q 313 810 325 882 l 271 544 l 738 535 l 728 475 l 258 469 l 217 200 q 214 163 214 172 q 245 87 214 107 q 336 67 276 67 l 725 67 l 714 3 q 310 -8 456 -6 m 424 1214 l 785 1214 l 776 1165 l 415 1165 l 424 1214 m 443 1464 l 515 1464 l 639 1276 l 592 1276 l 443 1464 z "},"Ę":{"ha":796,"x_min":129,"x_max":872,"o":"m 463 946 q 363 914 400 946 q 313 810 325 882 l 271 544 l 738 535 l 728 475 l 258 469 l 217 200 q 214 163 214 172 q 245 87 214 107 q 336 67 276 67 l 725 67 l 714 3 l 715 3 q 630 -62 660 -24 q 600 -132 600 -100 q 628 -190 600 -169 q 713 -211 657 -211 l 721 -211 l 714 -251 q 679 -254 692 -254 q 585 -226 619 -254 q 551 -151 551 -197 q 583 -69 551 -111 q 679 1 615 -28 q 310 -8 556 -3 q 181 23 232 -10 q 129 142 129 56 q 133 190 129 164 l 235 829 q 312 975 253 931 q 454 1019 371 1019 q 872 1008 592 1019 l 861 946 l 463 946 z "},"Ẽ":{"ha":796,"x_min":129,"x_max":885,"o":"m 310 -8 q 181 23 232 -10 q 129 142 129 56 q 133 190 129 164 l 235 829 q 312 975 253 931 q 454 1019 371 1019 q 872 1008 592 1019 l 861 946 l 463 946 q 363 914 400 946 q 313 810 325 882 l 271 544 l 738 535 l 728 475 l 258 469 l 217 200 q 214 163 214 172 q 245 87 214 107 q 336 67 276 67 l 725 67 l 714 3 q 310 -8 456 -6 m 381 1131 q 435 1234 393 1201 q 531 1267 476 1267 q 586 1254 560 1267 q 644 1219 613 1242 q 698 1188 678 1199 q 742 1178 718 1178 q 808 1202 781 1178 q 843 1269 836 1226 l 885 1269 q 835 1167 874 1204 q 736 1131 797 1131 q 686 1142 710 1131 q 629 1175 663 1153 q 573 1208 596 1197 q 525 1219 550 1219 q 459 1197 488 1219 q 422 1131 431 1175 l 381 1131 z "},"F":{"ha":764,"x_min":104,"x_max":872,"o":"m 235 821 q 310 976 253 933 q 450 1019 367 1019 q 872 1008 594 1019 l 861 946 l 460 946 q 360 914 396 946 q 313 810 324 882 l 269 536 l 738 526 l 726 467 l 258 461 l 185 0 l 104 0 l 235 821 z "},"Ḟ":{"ha":764,"x_min":104,"x_max":872,"o":"m 235 821 q 310 976 253 933 q 450 1019 367 1019 q 872 1008 594 1019 l 861 946 l 460 946 q 360 914 396 946 q 313 810 324 882 l 269 536 l 738 526 l 726 467 l 258 461 l 185 0 l 104 0 l 235 821 m 569 1146 q 558 1151 563 1146 q 553 1163 553 1156 l 553 1165 l 569 1265 q 593 1286 571 1286 l 629 1286 q 646 1271 646 1286 l 646 1265 l 631 1165 q 623 1151 629 1156 q 607 1146 617 1146 l 569 1146 z "},"G":{"ha":892,"x_min":150,"x_max":917,"o":"m 414 -8 q 211 67 272 -8 q 150 306 150 142 q 172 533 150 385 q 309 903 210 775 q 594 1031 408 1031 q 769 1019 694 1031 q 917 988 843 1008 l 908 926 q 597 958 760 958 q 422 908 490 958 q 315 760 354 857 q 251 511 275 663 q 232 301 232 382 q 281 122 232 179 q 438 65 329 65 q 594 86 503 65 q 732 128 685 107 l 785 463 l 519 463 l 528 524 q 764 533 597 533 q 874 529 826 533 l 790 0 l 732 0 l 729 72 q 583 20 681 49 q 414 -8 486 -8 z "},"Ğ":{"ha":892,"x_min":150,"x_max":917,"o":"m 414 -8 q 211 67 272 -8 q 150 306 150 142 q 172 533 150 385 q 309 903 210 775 q 594 1031 408 1031 q 769 1019 694 1031 q 917 988 843 1008 l 908 926 q 597 958 760 958 q 422 908 490 958 q 315 760 354 857 q 251 511 275 663 q 232 301 232 382 q 281 122 232 179 q 438 65 329 65 q 594 86 503 65 q 732 128 685 107 l 785 463 l 519 463 l 528 524 q 764 533 597 533 q 874 529 826 533 l 790 0 l 732 0 l 729 72 q 583 20 681 49 q 414 -8 486 -8 m 614 1097 q 504 1132 546 1097 q 463 1242 463 1167 q 465 1290 463 1254 l 506 1290 q 503 1251 503 1263 q 535 1165 503 1193 q 617 1138 567 1138 q 726 1174 681 1138 q 783 1290 771 1210 l 824 1290 q 751 1142 808 1186 q 614 1097 693 1097 z "},"Ǧ":{"ha":892,"x_min":150,"x_max":917,"o":"m 414 -8 q 211 67 272 -8 q 150 306 150 142 q 172 533 150 385 q 309 903 210 775 q 594 1031 408 1031 q 769 1019 694 1031 q 917 988 843 1008 l 908 926 q 597 958 760 958 q 422 908 490 958 q 315 760 354 857 q 251 511 275 663 q 232 301 232 382 q 281 122 232 179 q 438 65 329 65 q 594 86 503 65 q 732 128 685 107 l 785 463 l 519 463 l 528 524 q 764 533 597 533 q 874 529 826 533 l 790 0 l 732 0 l 729 72 q 583 20 681 49 q 414 -8 486 -8 m 478 1283 l 529 1283 l 643 1139 l 819 1283 l 869 1283 l 665 1099 l 607 1099 l 478 1283 z "},"Ĝ":{"ha":892,"x_min":150,"x_max":917,"o":"m 414 -8 q 211 67 272 -8 q 150 306 150 142 q 172 533 150 385 q 309 903 210 775 q 594 1031 408 1031 q 769 1019 694 1031 q 917 988 843 1008 l 908 926 q 597 958 760 958 q 422 908 490 958 q 315 760 354 857 q 251 511 275 663 q 232 301 232 382 q 281 122 232 179 q 438 65 329 65 q 594 86 503 65 q 732 128 685 107 l 785 463 l 519 463 l 528 524 q 764 533 597 533 q 874 529 826 533 l 790 0 l 732 0 l 729 72 q 583 20 681 49 q 414 -8 486 -8 m 613 1283 l 671 1283 l 800 1099 l 749 1099 l 633 1243 l 460 1099 l 408 1099 l 613 1283 z "},"Ģ":{"ha":892,"x_min":150,"x_max":917,"o":"m 414 -8 q 211 67 272 -8 q 150 306 150 142 q 172 533 150 385 q 309 903 210 775 q 594 1031 408 1031 q 769 1019 694 1031 q 917 988 843 1008 l 908 926 q 597 958 760 958 q 422 908 490 958 q 315 760 354 857 q 251 511 275 663 q 232 301 232 382 q 281 122 232 179 q 438 65 329 65 q 594 86 503 65 q 732 128 685 107 l 785 463 l 519 463 l 528 524 q 764 533 597 533 q 874 529 826 533 l 790 0 l 732 0 l 729 72 q 583 20 681 49 q 414 -8 486 -8 m 300 -242 l 343 -236 q 406 -221 383 -232 q 445 -178 429 -210 q 471 -83 461 -146 l 522 -83 q 492 -197 511 -156 q 437 -256 472 -237 q 342 -275 401 -275 l 294 -275 l 300 -242 z "},"Ġ":{"ha":892,"x_min":150,"x_max":917,"o":"m 414 -8 q 211 67 272 -8 q 150 306 150 142 q 172 533 150 385 q 309 903 210 775 q 594 1031 408 1031 q 769 1019 694 1031 q 917 988 843 1008 l 908 926 q 597 958 760 958 q 422 908 490 958 q 315 760 354 857 q 251 511 275 663 q 232 301 232 382 q 281 122 232 179 q 438 65 329 65 q 594 86 503 65 q 732 128 685 107 l 785 463 l 519 463 l 528 524 q 764 533 597 533 q 874 529 826 533 l 790 0 l 732 0 l 729 72 q 583 20 681 49 q 414 -8 486 -8 m 606 1146 q 594 1151 599 1146 q 589 1163 589 1156 l 589 1165 l 606 1265 q 629 1286 607 1286 l 665 1286 q 682 1271 682 1286 l 682 1265 l 667 1165 q 659 1151 665 1156 q 643 1146 653 1146 l 606 1146 z "},"Ḡ":{"ha":892,"x_min":150,"x_max":917,"o":"m 414 -8 q 211 67 272 -8 q 150 306 150 142 q 172 533 150 385 q 309 903 210 775 q 594 1031 408 1031 q 769 1019 694 1031 q 917 988 843 1008 l 908 926 q 597 958 760 958 q 422 908 490 958 q 315 760 354 857 q 251 511 275 663 q 232 301 232 382 q 281 122 232 179 q 438 65 329 65 q 594 86 503 65 q 732 128 685 107 l 785 463 l 519 463 l 528 524 q 764 533 597 533 q 874 529 826 533 l 790 0 l 732 0 l 729 72 q 583 20 681 49 q 414 -8 486 -8 m 451 1214 l 813 1214 l 804 1165 l 443 1165 l 451 1214 z "},"H":{"ha":914,"x_min":104,"x_max":975,"o":"m 265 1019 l 346 1019 l 269 532 l 817 532 l 894 1019 l 975 1019 l 813 0 l 732 0 l 806 460 l 257 460 l 185 0 l 104 0 l 265 1019 z "},"Ħ":{"ha":914,"x_min":104,"x_max":1033,"o":"m 1026 732 l 929 732 l 813 0 l 732 0 l 806 460 l 257 460 l 185 0 l 104 0 l 219 732 l 124 732 l 132 783 l 228 783 l 265 1019 l 346 1019 l 308 783 l 857 783 l 894 1019 l 975 1019 l 938 783 l 1033 783 l 1026 732 m 849 732 l 301 732 l 269 532 l 817 532 l 849 732 z "},"Ḫ":{"ha":914,"x_min":104,"x_max":975,"o":"m 265 1019 l 346 1019 l 269 532 l 817 532 l 894 1019 l 975 1019 l 813 0 l 732 0 l 806 460 l 257 460 l 185 0 l 104 0 l 265 1019 m 388 -306 q 279 -271 321 -306 q 238 -161 238 -236 q 240 -112 238 -149 l 281 -112 q 278 -151 278 -140 q 310 -237 278 -210 q 392 -265 342 -265 q 501 -229 456 -265 q 558 -112 546 -193 l 599 -112 q 525 -261 582 -217 q 388 -306 468 -306 z "},"Ĥ":{"ha":914,"x_min":104,"x_max":975,"o":"m 265 1019 l 346 1019 l 269 532 l 817 532 l 894 1019 l 975 1019 l 813 0 l 732 0 l 806 460 l 257 460 l 185 0 l 104 0 l 265 1019 m 624 1283 l 682 1283 l 811 1099 l 760 1099 l 644 1243 l 471 1099 l 419 1099 l 624 1283 z "},"Ḥ":{"ha":914,"x_min":104,"x_max":975,"o":"m 265 1019 l 346 1019 l 269 532 l 817 532 l 894 1019 l 975 1019 l 813 0 l 732 0 l 806 460 l 257 460 l 185 0 l 104 0 l 265 1019 m 381 -285 q 369 -280 374 -285 q 364 -268 364 -275 l 364 -265 l 381 -165 q 404 -144 382 -144 l 440 -144 q 457 -160 457 -144 l 457 -165 l 442 -265 q 434 -280 440 -275 q 418 -285 428 -285 l 381 -285 z "},"I":{"ha":289,"x_min":104,"x_max":346,"o":"m 265 1019 l 346 1019 l 185 0 l 104 0 l 265 1019 z "},"Í":{"ha":289,"x_min":104,"x_max":531,"o":"m 265 1019 l 346 1019 l 185 0 l 104 0 l 265 1019 m 457 1286 l 531 1286 l 326 1099 l 276 1099 l 457 1286 z "},"Ĭ":{"ha":289,"x_min":104,"x_max":522,"o":"m 265 1019 l 346 1019 l 185 0 l 104 0 l 265 1019 m 313 1097 q 203 1132 244 1097 q 161 1242 161 1167 q 164 1290 161 1254 l 204 1290 q 201 1251 201 1263 q 233 1165 201 1193 q 315 1138 265 1138 q 424 1174 379 1138 q 482 1290 469 1210 l 522 1290 q 449 1142 507 1186 q 313 1097 392 1097 z "},"Î":{"ha":289,"x_min":104,"x_max":499,"o":"m 265 1019 l 346 1019 l 185 0 l 104 0 l 265 1019 m 311 1283 l 369 1283 l 499 1099 l 447 1099 l 332 1243 l 158 1099 l 107 1099 l 311 1283 z "},"Ȉ":{"ha":289,"x_min":53,"x_max":438,"o":"m 265 1019 l 346 1019 l 185 0 l 104 0 l 265 1019 m 53 1286 l 125 1286 l 249 1099 l 201 1099 l 53 1286 m 242 1286 l 314 1286 l 438 1099 l 390 1099 l 242 1286 z "},"Ï":{"ha":289,"x_min":104,"x_max":499,"o":"m 265 1019 l 346 1019 l 185 0 l 104 0 l 265 1019 m 136 1136 q 119 1153 119 1136 l 135 1256 q 160 1276 139 1276 l 196 1276 q 213 1261 213 1276 l 196 1156 q 188 1141 194 1146 q 172 1136 182 1136 l 136 1136 m 421 1136 q 409 1141 414 1136 q 404 1153 404 1146 q 421 1256 404 1144 q 444 1276 422 1276 l 482 1276 q 499 1261 499 1276 q 482 1156 499 1267 q 474 1141 481 1146 q 458 1136 468 1136 l 421 1136 z "},"Ḯ":{"ha":289,"x_min":104,"x_max":547,"o":"m 265 1019 l 346 1019 l 185 0 l 104 0 l 265 1019 m 136 1136 q 119 1153 119 1136 l 135 1256 q 160 1276 139 1276 l 196 1276 q 213 1261 213 1276 l 196 1156 q 188 1141 194 1146 q 172 1136 182 1136 l 136 1136 m 421 1136 q 409 1141 414 1136 q 404 1153 404 1146 q 421 1256 404 1144 q 444 1276 422 1276 l 482 1276 q 499 1261 499 1276 q 482 1156 499 1267 q 474 1141 481 1146 q 458 1136 468 1136 l 421 1136 m 474 1514 l 547 1514 l 343 1326 l 293 1326 l 474 1514 z "},"İ":{"ha":289,"x_min":104,"x_max":381,"o":"m 265 1019 l 346 1019 l 185 0 l 104 0 l 265 1019 m 304 1146 q 292 1151 297 1146 q 288 1163 288 1156 l 288 1165 l 304 1265 q 328 1286 306 1286 l 364 1286 q 381 1271 381 1286 l 381 1265 l 365 1165 q 358 1151 364 1156 q 342 1146 351 1146 l 304 1146 z "},"Ị":{"ha":289,"x_min":51,"x_max":346,"o":"m 265 1019 l 346 1019 l 185 0 l 104 0 l 265 1019 m 68 -285 q 56 -280 61 -285 q 51 -268 51 -275 l 51 -265 l 68 -165 q 92 -144 69 -144 l 128 -144 q 144 -160 144 -144 l 144 -165 l 129 -265 q 122 -280 128 -275 q 106 -285 115 -285 l 68 -285 z "},"Ì":{"ha":289,"x_min":104,"x_max":368,"o":"m 265 1019 l 346 1019 l 185 0 l 104 0 l 265 1019 m 172 1286 l 244 1286 l 368 1099 l 321 1099 l 172 1286 z "},"Ỉ":{"ha":289,"x_min":104,"x_max":419,"o":"m 265 1019 l 346 1019 l 185 0 l 104 0 l 265 1019 m 274 1117 q 374 1224 374 1146 q 313 1275 374 1275 q 258 1267 286 1275 l 264 1303 q 328 1313 294 1313 q 419 1229 419 1313 q 383 1140 419 1179 q 267 1078 346 1100 l 274 1117 z "},"Ȋ":{"ha":289,"x_min":104,"x_max":497,"o":"m 265 1019 l 346 1019 l 185 0 l 104 0 l 265 1019 m 136 1099 q 209 1247 151 1203 q 346 1292 267 1292 q 456 1257 414 1292 q 497 1147 497 1222 q 494 1099 497 1135 l 454 1099 q 457 1138 457 1126 q 425 1224 457 1196 q 340 1251 393 1251 q 234 1215 279 1251 q 176 1099 189 1178 l 136 1099 z "},"Ī":{"ha":289,"x_min":104,"x_max":511,"o":"m 265 1019 l 346 1019 l 185 0 l 104 0 l 265 1019 m 150 1214 l 511 1214 l 503 1165 l 142 1165 l 150 1214 z "},"Į":{"ha":289,"x_min":21,"x_max":346,"o":"m 265 1019 l 346 1019 l 185 0 l 104 0 l 265 1019 m 149 -257 q 55 -228 89 -257 q 21 -154 21 -200 q 53 -72 21 -114 q 151 0 85 -29 l 185 0 q 99 -65 129 -26 q 69 -135 69 -103 q 98 -193 69 -172 q 182 -214 126 -214 l 190 -214 l 183 -254 q 149 -257 161 -257 z "},"Ĩ":{"ha":289,"x_min":104,"x_max":611,"o":"m 265 1019 l 346 1019 l 185 0 l 104 0 l 265 1019 m 107 1131 q 161 1234 119 1201 q 257 1267 203 1267 q 313 1254 286 1267 q 371 1219 339 1242 q 424 1188 404 1199 q 468 1178 444 1178 q 535 1202 507 1178 q 569 1269 563 1226 l 611 1269 q 562 1167 600 1204 q 463 1131 524 1131 q 413 1142 436 1131 q 356 1175 389 1153 q 299 1208 322 1197 q 251 1219 276 1219 q 185 1197 214 1219 q 149 1131 157 1175 l 107 1131 z "},"J":{"ha":471,"x_min":44,"x_max":561,"o":"m 188 -8 q 107 1 144 -8 q 44 25 69 11 l 54 86 q 179 67 108 67 q 358 247 329 67 l 481 1019 l 561 1019 l 436 236 q 356 50 417 108 q 188 -8 296 -8 z "},"Ĵ":{"ha":471,"x_min":44,"x_max":717,"o":"m 188 -8 q 107 1 144 -8 q 44 25 69 11 l 54 86 q 179 67 108 67 q 358 247 329 67 l 481 1019 l 561 1019 l 436 236 q 356 50 417 108 q 188 -8 296 -8 m 529 1283 l 588 1283 l 717 1099 l 665 1099 l 550 1243 l 376 1099 l 325 1099 l 529 1283 z "},"K":{"ha":810,"x_min":104,"x_max":915,"o":"m 265 1019 l 346 1019 l 272 547 l 465 547 l 829 1019 l 915 1019 l 526 510 l 771 0 l 688 0 l 460 475 l 260 475 l 185 0 l 104 0 l 265 1019 z "},"Ķ":{"ha":810,"x_min":104,"x_max":915,"o":"m 265 1019 l 346 1019 l 272 547 l 465 547 l 829 1019 l 915 1019 l 526 510 l 771 0 l 688 0 l 460 475 l 260 475 l 185 0 l 104 0 l 265 1019 m 247 -242 l 290 -236 q 353 -221 331 -232 q 392 -178 376 -210 q 418 -83 408 -146 l 469 -83 q 439 -197 458 -156 q 384 -256 419 -237 q 289 -275 349 -275 l 242 -275 l 247 -242 z "},"L":{"ha":724,"x_min":131,"x_max":701,"o":"m 301 0 q 174 33 218 0 q 131 143 131 65 q 135 196 131 169 l 265 1019 l 346 1019 l 217 203 q 214 160 214 188 q 242 91 214 110 q 324 72 271 72 l 701 72 l 690 0 l 301 0 z "},"Ĺ":{"ha":724,"x_min":131,"x_max":701,"o":"m 301 0 q 174 33 218 0 q 131 143 131 65 q 135 196 131 169 l 265 1019 l 346 1019 l 217 203 q 214 160 214 188 q 242 91 214 110 q 324 72 271 72 l 701 72 l 690 0 l 301 0 m 467 1286 l 540 1286 l 336 1099 l 286 1099 l 467 1286 z "},"Ľ":{"ha":724,"x_min":131,"x_max":701,"o":"m 301 0 q 174 33 218 0 q 131 143 131 65 q 135 196 131 169 l 265 1019 l 346 1019 l 217 203 q 214 160 214 188 q 242 91 214 110 q 324 72 271 72 l 701 72 l 690 0 l 301 0 m 496 919 l 510 1013 l 586 1013 l 572 919 l 531 707 l 475 707 l 496 919 z "},"Ļ":{"ha":724,"x_min":131,"x_max":701,"o":"m 301 0 q 174 33 218 0 q 131 143 131 65 q 135 196 131 169 l 265 1019 l 346 1019 l 217 203 q 214 160 214 188 q 242 91 214 110 q 324 72 271 72 l 701 72 l 690 0 l 301 0 m 242 -242 l 285 -236 q 348 -221 325 -232 q 387 -178 371 -210 q 413 -83 403 -146 l 464 -83 q 433 -197 453 -156 q 378 -256 414 -237 q 283 -275 343 -275 l 236 -275 l 242 -242 z "},"Ŀ":{"ha":724,"x_min":131,"x_max":701,"o":"m 301 0 q 174 33 218 0 q 131 143 131 65 q 135 196 131 169 l 265 1019 l 346 1019 l 217 203 q 214 160 214 188 q 242 91 214 110 q 324 72 271 72 l 701 72 l 690 0 l 301 0 m 582 558 q 569 564 574 558 q 565 578 564 569 l 572 624 q 596 644 576 644 l 640 644 q 657 624 660 644 l 649 578 q 626 558 647 558 l 582 558 z "},"Ḷ":{"ha":724,"x_min":131,"x_max":701,"o":"m 301 0 q 174 33 218 0 q 131 143 131 65 q 135 196 131 169 l 265 1019 l 346 1019 l 217 203 q 214 160 214 188 q 242 91 214 110 q 324 72 271 72 l 701 72 l 690 0 l 301 0 m 311 -285 q 299 -280 304 -285 q 294 -268 294 -275 l 294 -265 l 311 -165 q 335 -144 313 -144 l 371 -144 q 388 -160 388 -144 l 388 -165 l 372 -265 q 365 -280 371 -275 q 349 -285 358 -285 l 311 -285 z "},"Ḻ":{"ha":724,"x_min":131,"x_max":701,"o":"m 301 0 q 174 33 218 0 q 131 143 131 65 q 135 196 131 169 l 265 1019 l 346 1019 l 217 203 q 214 160 214 188 q 242 91 214 110 q 324 72 271 72 l 701 72 l 690 0 l 301 0 m 163 -203 l 524 -203 l 515 -251 l 154 -251 l 163 -203 z "},"Ł":{"ha":724,"x_min":67,"x_max":701,"o":"m 701 72 l 690 0 l 301 0 q 174 33 218 0 q 131 143 131 65 q 135 196 131 169 l 181 486 l 67 440 l 74 492 l 189 538 l 265 1019 l 346 1019 l 274 561 l 481 646 l 472 596 l 265 513 l 217 203 q 214 160 214 188 q 242 91 214 110 q 324 72 271 72 l 701 72 z "},"M":{"ha":1107,"x_min":88,"x_max":1101,"o":"m 365 1019 l 440 1019 l 589 117 l 1026 1019 l 1101 1019 l 1058 0 l 979 0 l 1019 869 l 610 0 l 535 0 l 400 867 l 168 0 l 88 0 l 365 1019 z "},"Ṁ":{"ha":1107,"x_min":88,"x_max":1101,"o":"m 365 1019 l 440 1019 l 589 117 l 1026 1019 l 1101 1019 l 1058 0 l 979 0 l 1019 869 l 610 0 l 535 0 l 400 867 l 168 0 l 88 0 l 365 1019 m 717 1146 q 705 1151 710 1146 q 700 1163 700 1156 l 700 1165 l 717 1265 q 740 1286 718 1286 l 776 1286 q 793 1271 793 1286 l 793 1265 l 778 1165 q 770 1151 776 1156 q 754 1146 764 1146 l 717 1146 z "},"Ṃ":{"ha":1107,"x_min":88,"x_max":1101,"o":"m 365 1019 l 440 1019 l 589 117 l 1026 1019 l 1101 1019 l 1058 0 l 979 0 l 1019 869 l 610 0 l 535 0 l 400 867 l 168 0 l 88 0 l 365 1019 m 481 -285 q 469 -280 474 -285 q 464 -268 464 -275 l 464 -265 l 481 -165 q 504 -144 482 -144 l 540 -144 q 557 -160 557 -144 l 557 -165 l 542 -265 q 534 -280 540 -275 q 518 -285 528 -285 l 481 -285 z "},"N":{"ha":918,"x_min":104,"x_max":978,"o":"m 265 1019 l 333 1019 l 757 138 l 897 1019 l 978 1019 l 817 0 l 750 0 l 325 883 l 185 0 l 104 0 l 265 1019 z "},"Ń":{"ha":918,"x_min":104,"x_max":978,"o":"m 265 1019 l 333 1019 l 757 138 l 897 1019 l 978 1019 l 817 0 l 750 0 l 325 883 l 185 0 l 104 0 l 265 1019 m 763 1286 l 836 1286 l 632 1099 l 582 1099 l 763 1286 z "},"Ň":{"ha":918,"x_min":104,"x_max":978,"o":"m 265 1019 l 333 1019 l 757 138 l 897 1019 l 978 1019 l 817 0 l 750 0 l 325 883 l 185 0 l 104 0 l 265 1019 m 482 1283 l 533 1283 l 647 1139 l 824 1283 l 874 1283 l 669 1099 l 611 1099 l 482 1283 z "},"Ņ":{"ha":918,"x_min":104,"x_max":978,"o":"m 265 1019 l 333 1019 l 757 138 l 897 1019 l 978 1019 l 817 0 l 750 0 l 325 883 l 185 0 l 104 0 l 265 1019 m 304 -242 l 347 -236 q 410 -221 388 -232 q 449 -178 433 -210 q 475 -83 465 -146 l 526 -83 q 496 -197 515 -156 q 441 -256 476 -237 q 346 -275 406 -275 l 299 -275 l 304 -242 z "},"Ṅ":{"ha":918,"x_min":104,"x_max":978,"o":"m 265 1019 l 333 1019 l 757 138 l 897 1019 l 978 1019 l 817 0 l 750 0 l 325 883 l 185 0 l 104 0 l 265 1019 m 374 -285 q 362 -280 367 -285 q 357 -268 357 -275 l 357 -265 l 374 -165 q 397 -144 375 -144 l 433 -144 q 450 -160 450 -144 l 450 -165 l 435 -265 q 427 -280 433 -275 q 411 -285 421 -285 l 374 -285 z "},"Ṇ":{"ha":918,"x_min":104,"x_max":978,"o":"m 265 1019 l 333 1019 l 757 138 l 897 1019 l 978 1019 l 817 0 l 750 0 l 325 883 l 185 0 l 104 0 l 265 1019 m 374 -285 q 362 -280 367 -285 q 357 -268 357 -275 l 357 -265 l 374 -165 q 397 -144 375 -144 l 433 -144 q 450 -160 450 -144 l 450 -165 l 435 -265 q 427 -280 433 -275 q 411 -285 421 -285 l 374 -285 z "},"Ŋ":{"ha":918,"x_min":104,"x_max":978,"o":"m 821 24 l 799 -112 q 712 -286 779 -235 q 521 -337 644 -337 q 442 -328 485 -337 q 372 -304 400 -318 l 382 -243 q 453 -259 414 -253 q 522 -265 492 -265 q 655 -231 606 -265 q 719 -104 704 -196 l 739 22 l 325 883 l 185 0 l 104 0 l 265 1019 l 333 1019 l 757 138 l 897 1019 l 978 1019 l 821 24 z "},"Ṉ":{"ha":918,"x_min":104,"x_max":978,"o":"m 265 1019 l 333 1019 l 757 138 l 897 1019 l 978 1019 l 817 0 l 750 0 l 325 883 l 185 0 l 104 0 l 265 1019 m 247 -203 l 608 -203 l 600 -251 l 239 -251 l 247 -203 z "},"Ñ":{"ha":918,"x_min":104,"x_max":978,"o":"m 265 1019 l 333 1019 l 757 138 l 897 1019 l 978 1019 l 817 0 l 750 0 l 325 883 l 185 0 l 104 0 l 265 1019 m 413 1131 q 467 1234 425 1201 q 563 1267 508 1267 q 618 1254 592 1267 q 676 1219 644 1242 q 730 1188 710 1199 q 774 1178 750 1178 q 840 1202 813 1178 q 875 1269 868 1226 l 917 1269 q 867 1167 906 1204 q 768 1131 829 1131 q 718 1142 742 1131 q 661 1175 694 1153 q 605 1208 628 1197 q 557 1219 582 1219 q 491 1197 519 1219 q 454 1131 463 1175 l 413 1131 z "},"O":{"ha":949,"x_min":147,"x_max":960,"o":"m 471 -8 q 292 15 361 -8 q 185 103 222 39 q 147 288 147 168 q 169 519 147 388 q 259 833 201 724 q 406 985 317 943 q 639 1028 496 1028 q 814 1001 744 1028 q 922 907 883 975 q 960 719 960 839 q 939 486 960 624 q 847 176 906 283 q 700 31 789 69 q 471 -8 611 -8 m 486 65 q 670 99 601 65 q 784 227 739 133 q 858 501 829 321 q 879 719 879 633 q 850 867 879 815 q 767 937 821 918 q 625 956 713 956 q 442 919 511 956 q 326 787 372 883 q 250 504 279 690 q 228 290 228 367 q 255 150 228 199 q 337 83 282 101 q 486 65 392 65 z "},"Ó":{"ha":949,"x_min":147,"x_max":960,"o":"m 471 -8 q 292 15 361 -8 q 185 103 222 39 q 147 288 147 168 q 169 519 147 388 q 259 833 201 724 q 406 985 317 943 q 639 1028 496 1028 q 814 1001 744 1028 q 922 907 883 975 q 960 719 960 839 q 939 486 960 624 q 847 176 906 283 q 700 31 789 69 q 471 -8 611 -8 m 486 65 q 670 99 601 65 q 784 227 739 133 q 858 501 829 321 q 879 719 879 633 q 850 867 879 815 q 767 937 821 918 q 625 956 713 956 q 442 919 511 956 q 326 787 372 883 q 250 504 279 690 q 228 290 228 367 q 255 150 228 199 q 337 83 282 101 q 486 65 392 65 m 792 1286 l 865 1286 l 661 1099 l 611 1099 l 792 1286 z "},"Ŏ":{"ha":949,"x_min":147,"x_max":960,"o":"m 471 -8 q 292 15 361 -8 q 185 103 222 39 q 147 288 147 168 q 169 519 147 388 q 259 833 201 724 q 406 985 317 943 q 639 1028 496 1028 q 814 1001 744 1028 q 922 907 883 975 q 960 719 960 839 q 939 486 960 624 q 847 176 906 283 q 700 31 789 69 q 471 -8 611 -8 m 486 65 q 670 99 601 65 q 784 227 739 133 q 858 501 829 321 q 879 719 879 633 q 850 867 879 815 q 767 937 821 918 q 625 956 713 956 q 442 919 511 956 q 326 787 372 883 q 250 504 279 690 q 228 290 228 367 q 255 150 228 199 q 337 83 282 101 q 486 65 392 65 m 647 1097 q 538 1132 579 1097 q 496 1242 496 1167 q 499 1290 496 1254 l 539 1290 q 536 1251 536 1263 q 568 1165 536 1193 q 650 1138 600 1138 q 759 1174 714 1138 q 817 1290 804 1210 l 857 1290 q 784 1142 842 1186 q 647 1097 726 1097 z "},"Ô":{"ha":949,"x_min":147,"x_max":960,"o":"m 471 -8 q 292 15 361 -8 q 185 103 222 39 q 147 288 147 168 q 169 519 147 388 q 259 833 201 724 q 406 985 317 943 q 639 1028 496 1028 q 814 1001 744 1028 q 922 907 883 975 q 960 719 960 839 q 939 486 960 624 q 847 176 906 283 q 700 31 789 69 q 471 -8 611 -8 m 486 65 q 670 99 601 65 q 784 227 739 133 q 858 501 829 321 q 879 719 879 633 q 850 867 879 815 q 767 937 821 918 q 625 956 713 956 q 442 919 511 956 q 326 787 372 883 q 250 504 279 690 q 228 290 228 367 q 255 150 228 199 q 337 83 282 101 q 486 65 392 65 m 646 1283 l 704 1283 l 833 1099 l 782 1099 l 667 1243 l 493 1099 l 442 1099 l 646 1283 z "},"Ố":{"ha":949,"x_min":147,"x_max":1021,"o":"m 471 -8 q 292 15 361 -8 q 185 103 222 39 q 147 288 147 168 q 169 519 147 388 q 259 833 201 724 q 406 985 317 943 q 639 1028 496 1028 q 814 1001 744 1028 q 922 907 883 975 q 960 719 960 839 q 939 486 960 624 q 847 176 906 283 q 700 31 789 69 q 471 -8 611 -8 m 486 65 q 670 99 601 65 q 784 227 739 133 q 858 501 829 321 q 879 719 879 633 q 850 867 879 815 q 767 937 821 918 q 625 956 713 956 q 442 919 511 956 q 326 787 372 883 q 250 504 279 690 q 228 290 228 367 q 255 150 228 199 q 337 83 282 101 q 486 65 392 65 m 951 1383 l 1021 1383 l 828 1201 l 783 1201 l 951 1383 m 643 1231 l 701 1231 l 840 1099 l 789 1099 l 665 1190 l 499 1099 l 449 1099 l 643 1231 z "},"Ộ":{"ha":949,"x_min":147,"x_max":960,"o":"m 471 -8 q 292 15 361 -8 q 185 103 222 39 q 147 288 147 168 q 169 519 147 388 q 259 833 201 724 q 406 985 317 943 q 639 1028 496 1028 q 814 1001 744 1028 q 922 907 883 975 q 960 719 960 839 q 939 486 960 624 q 847 176 906 283 q 700 31 789 69 q 471 -8 611 -8 m 486 65 q 670 99 601 65 q 784 227 739 133 q 858 501 829 321 q 879 719 879 633 q 850 867 879 815 q 767 937 821 918 q 625 956 713 956 q 442 919 511 956 q 326 787 372 883 q 250 504 279 690 q 228 290 228 367 q 255 150 228 199 q 337 83 282 101 q 486 65 392 65 m 646 1283 l 704 1283 l 833 1099 l 782 1099 l 667 1243 l 493 1099 l 442 1099 l 646 1283 m 403 -285 q 391 -280 396 -285 q 386 -268 386 -275 l 386 -265 l 403 -165 q 426 -144 404 -144 l 463 -144 q 479 -160 479 -144 l 479 -165 l 464 -265 q 456 -280 463 -275 q 440 -285 450 -285 l 403 -285 z "},"Ồ":{"ha":949,"x_min":147,"x_max":960,"o":"m 471 -8 q 292 15 361 -8 q 185 103 222 39 q 147 288 147 168 q 169 519 147 388 q 259 833 201 724 q 406 985 317 943 q 639 1028 496 1028 q 814 1001 744 1028 q 922 907 883 975 q 960 719 960 839 q 939 486 960 624 q 847 176 906 283 q 700 31 789 69 q 471 -8 611 -8 m 486 65 q 670 99 601 65 q 784 227 739 133 q 858 501 829 321 q 879 719 879 633 q 850 867 879 815 q 767 937 821 918 q 625 956 713 956 q 442 919 511 956 q 326 787 372 883 q 250 504 279 690 q 228 290 228 367 q 255 150 228 199 q 337 83 282 101 q 486 65 392 65 m 371 1383 l 439 1383 l 550 1201 l 506 1201 l 371 1383 m 635 1231 l 693 1231 l 831 1099 l 781 1099 l 657 1190 l 490 1099 l 439 1099 l 635 1231 z "},"Ổ":{"ha":949,"x_min":147,"x_max":960,"o":"m 471 -8 q 292 15 361 -8 q 185 103 222 39 q 147 288 147 168 q 169 519 147 388 q 259 833 201 724 q 406 985 317 943 q 639 1028 496 1028 q 814 1001 744 1028 q 922 907 883 975 q 960 719 960 839 q 939 486 960 624 q 847 176 906 283 q 700 31 789 69 q 471 -8 611 -8 m 486 65 q 670 99 601 65 q 784 227 739 133 q 858 501 829 321 q 879 719 879 633 q 850 867 879 815 q 767 937 821 918 q 625 956 713 956 q 442 919 511 956 q 326 787 372 883 q 250 504 279 690 q 228 290 228 367 q 255 150 228 199 q 337 83 282 101 q 486 65 392 65 m 814 1206 q 904 1297 904 1235 q 847 1339 904 1339 q 796 1331 818 1339 l 801 1367 q 863 1376 831 1376 q 927 1358 906 1376 q 949 1304 949 1339 q 915 1224 949 1260 q 808 1169 881 1189 l 814 1206 m 647 1231 l 706 1231 l 844 1099 l 793 1099 l 669 1190 l 504 1099 l 453 1099 l 647 1231 z "},"Ỗ":{"ha":949,"x_min":147,"x_max":960,"o":"m 471 -8 q 292 15 361 -8 q 185 103 222 39 q 147 288 147 168 q 169 519 147 388 q 259 833 201 724 q 406 985 317 943 q 639 1028 496 1028 q 814 1001 744 1028 q 922 907 883 975 q 960 719 960 839 q 939 486 960 624 q 847 176 906 283 q 700 31 789 69 q 471 -8 611 -8 m 486 65 q 670 99 601 65 q 784 227 739 133 q 858 501 829 321 q 879 719 879 633 q 850 867 879 815 q 767 937 821 918 q 625 956 713 956 q 442 919 511 956 q 326 787 372 883 q 250 504 279 690 q 228 290 228 367 q 255 150 228 199 q 337 83 282 101 q 486 65 392 65 m 460 1297 q 508 1380 471 1356 q 593 1404 544 1404 q 645 1396 622 1404 q 701 1369 668 1388 q 749 1348 728 1356 q 792 1340 769 1340 q 853 1358 828 1340 q 883 1407 878 1375 l 925 1407 q 879 1326 914 1354 q 789 1297 844 1297 q 740 1306 763 1297 q 685 1331 717 1314 q 633 1353 653 1346 q 589 1361 613 1361 q 531 1345 556 1361 q 501 1297 507 1329 l 460 1297 m 649 1231 l 707 1231 l 844 1099 l 793 1099 l 669 1190 l 503 1099 l 453 1099 l 649 1231 z "},"Ȍ":{"ha":949,"x_min":147,"x_max":960,"o":"m 471 -8 q 292 15 361 -8 q 185 103 222 39 q 147 288 147 168 q 169 519 147 388 q 259 833 201 724 q 406 985 317 943 q 639 1028 496 1028 q 814 1001 744 1028 q 922 907 883 975 q 960 719 960 839 q 939 486 960 624 q 847 176 906 283 q 700 31 789 69 q 471 -8 611 -8 m 486 65 q 670 99 601 65 q 784 227 739 133 q 858 501 829 321 q 879 719 879 633 q 850 867 879 815 q 767 937 821 918 q 625 956 713 956 q 442 919 511 956 q 326 787 372 883 q 250 504 279 690 q 228 290 228 367 q 255 150 228 199 q 337 83 282 101 q 486 65 392 65 m 388 1286 l 460 1286 l 583 1099 l 536 1099 l 388 1286 m 576 1286 l 649 1286 l 772 1099 l 725 1099 l 576 1286 z "},"Ö":{"ha":949,"x_min":147,"x_max":960,"o":"m 471 -8 q 292 15 361 -8 q 185 103 222 39 q 147 288 147 168 q 169 519 147 388 q 259 833 201 724 q 406 985 317 943 q 639 1028 496 1028 q 814 1001 744 1028 q 922 907 883 975 q 960 719 960 839 q 939 486 960 624 q 847 176 906 283 q 700 31 789 69 q 471 -8 611 -8 m 486 65 q 670 99 601 65 q 784 227 739 133 q 858 501 829 321 q 879 719 879 633 q 850 867 879 815 q 767 937 821 918 q 625 956 713 956 q 442 919 511 956 q 326 787 372 883 q 250 504 279 690 q 228 290 228 367 q 255 150 228 199 q 337 83 282 101 q 486 65 392 65 m 471 1136 q 454 1153 454 1136 l 469 1256 q 494 1276 474 1276 l 531 1276 q 547 1261 547 1276 l 531 1156 q 523 1141 529 1146 q 507 1136 517 1136 l 471 1136 m 756 1136 q 744 1141 749 1136 q 739 1153 739 1146 q 756 1256 739 1144 q 779 1276 757 1276 l 817 1276 q 833 1261 833 1276 q 817 1156 833 1267 q 809 1141 815 1146 q 793 1136 803 1136 l 756 1136 z "},"Ȫ":{"ha":949,"x_min":147,"x_max":960,"o":"m 471 -8 q 292 15 361 -8 q 185 103 222 39 q 147 288 147 168 q 169 519 147 388 q 259 833 201 724 q 406 985 317 943 q 639 1028 496 1028 q 814 1001 744 1028 q 922 907 883 975 q 960 719 960 839 q 939 486 960 624 q 847 176 906 283 q 700 31 789 69 q 471 -8 611 -8 m 486 65 q 670 99 601 65 q 784 227 739 133 q 858 501 829 321 q 879 719 879 633 q 850 867 879 815 q 767 937 821 918 q 625 956 713 956 q 442 919 511 956 q 326 787 372 883 q 250 504 279 690 q 228 290 228 367 q 255 150 228 199 q 337 83 282 101 q 486 65 392 65 m 482 1136 q 465 1153 465 1136 l 481 1256 q 506 1276 485 1276 l 542 1276 q 558 1261 558 1276 l 542 1156 q 534 1141 540 1146 q 518 1136 528 1136 l 482 1136 m 767 1136 q 755 1141 760 1136 q 750 1153 750 1146 q 767 1256 750 1144 q 790 1276 768 1276 l 828 1276 q 844 1261 844 1276 q 828 1156 844 1267 q 820 1141 826 1146 q 804 1136 814 1136 l 767 1136 m 503 1411 l 864 1411 l 856 1363 l 494 1363 l 503 1411 z "},"Ȱ":{"ha":949,"x_min":147,"x_max":960,"o":"m 471 -8 q 292 15 361 -8 q 185 103 222 39 q 147 288 147 168 q 169 519 147 388 q 259 833 201 724 q 406 985 317 943 q 639 1028 496 1028 q 814 1001 744 1028 q 922 907 883 975 q 960 719 960 839 q 939 486 960 624 q 847 176 906 283 q 700 31 789 69 q 471 -8 611 -8 m 486 65 q 670 99 601 65 q 784 227 739 133 q 858 501 829 321 q 879 719 879 633 q 850 867 879 815 q 767 937 821 918 q 625 956 713 956 q 442 919 511 956 q 326 787 372 883 q 250 504 279 690 q 228 290 228 367 q 255 150 228 199 q 337 83 282 101 q 486 65 392 65 m 639 1146 q 627 1151 632 1146 q 622 1163 622 1156 l 622 1165 l 639 1265 q 663 1286 640 1286 l 699 1286 q 715 1271 715 1286 l 715 1265 l 700 1165 q 692 1151 699 1156 q 676 1146 686 1146 l 639 1146 m 514 1436 l 875 1436 l 867 1388 l 506 1388 l 514 1436 z "},"Ọ":{"ha":949,"x_min":147,"x_max":960,"o":"m 471 -8 q 292 15 361 -8 q 185 103 222 39 q 147 288 147 168 q 169 519 147 388 q 259 833 201 724 q 406 985 317 943 q 639 1028 496 1028 q 814 1001 744 1028 q 922 907 883 975 q 960 719 960 839 q 939 486 960 624 q 847 176 906 283 q 700 31 789 69 q 471 -8 611 -8 m 486 65 q 670 99 601 65 q 784 227 739 133 q 858 501 829 321 q 879 719 879 633 q 850 867 879 815 q 767 937 821 918 q 625 956 713 956 q 442 919 511 956 q 326 787 372 883 q 250 504 279 690 q 228 290 228 367 q 255 150 228 199 q 337 83 282 101 q 486 65 392 65 m 403 -285 q 391 -280 396 -285 q 386 -268 386 -275 l 386 -265 l 403 -165 q 426 -144 404 -144 l 463 -144 q 479 -160 479 -144 l 479 -165 l 464 -265 q 456 -280 463 -275 q 440 -285 450 -285 l 403 -285 z "},"Ò":{"ha":949,"x_min":147,"x_max":960,"o":"m 471 -8 q 292 15 361 -8 q 185 103 222 39 q 147 288 147 168 q 169 519 147 388 q 259 833 201 724 q 406 985 317 943 q 639 1028 496 1028 q 814 1001 744 1028 q 922 907 883 975 q 960 719 960 839 q 939 486 960 624 q 847 176 906 283 q 700 31 789 69 q 471 -8 611 -8 m 486 65 q 670 99 601 65 q 784 227 739 133 q 858 501 829 321 q 879 719 879 633 q 850 867 879 815 q 767 937 821 918 q 625 956 713 956 q 442 919 511 956 q 326 787 372 883 q 250 504 279 690 q 228 290 228 367 q 255 150 228 199 q 337 83 282 101 q 486 65 392 65 m 507 1286 l 579 1286 l 703 1099 l 656 1099 l 507 1286 z "},"Ỏ":{"ha":949,"x_min":147,"x_max":960,"o":"m 471 -8 q 292 15 361 -8 q 185 103 222 39 q 147 288 147 168 q 169 519 147 388 q 259 833 201 724 q 406 985 317 943 q 639 1028 496 1028 q 814 1001 744 1028 q 922 907 883 975 q 960 719 960 839 q 939 486 960 624 q 847 176 906 283 q 700 31 789 69 q 471 -8 611 -8 m 486 65 q 670 99 601 65 q 784 227 739 133 q 858 501 829 321 q 879 719 879 633 q 850 867 879 815 q 767 937 821 918 q 625 956 713 956 q 442 919 511 956 q 326 787 372 883 q 250 504 279 690 q 228 290 228 367 q 255 150 228 199 q 337 83 282 101 q 486 65 392 65 m 608 1117 q 708 1224 708 1146 q 647 1275 708 1275 q 593 1267 621 1275 l 599 1303 q 663 1313 629 1313 q 754 1229 754 1313 q 717 1140 754 1179 q 601 1078 681 1100 l 608 1117 z "},"Ơ":{"ha":950,"x_min":147,"x_max":1058,"o":"m 1058 1179 q 988 1022 1040 1069 q 864 974 935 974 q 960 719 960 904 q 939 486 960 624 q 847 176 906 283 q 700 31 789 69 q 471 -8 611 -8 q 292 15 361 -8 q 185 103 222 39 q 147 288 147 168 q 169 519 147 388 q 259 833 201 724 q 406 985 317 943 q 639 1028 496 1028 q 749 1019 699 1028 l 860 1019 q 997 1179 971 1019 l 1058 1179 m 858 501 q 879 719 879 633 q 850 867 879 815 q 767 937 821 918 q 625 956 713 956 q 442 919 511 956 q 326 787 372 883 q 250 504 279 690 q 228 290 228 367 q 255 150 228 199 q 337 83 282 101 q 486 65 392 65 q 670 99 601 65 q 784 227 739 133 q 858 501 829 321 z "},"Ớ":{"ha":950,"x_min":147,"x_max":1058,"o":"m 1058 1179 q 988 1022 1040 1069 q 864 974 935 974 q 960 719 960 904 q 939 486 960 624 q 847 176 906 283 q 700 31 789 69 q 471 -8 611 -8 q 292 15 361 -8 q 185 103 222 39 q 147 288 147 168 q 169 519 147 388 q 259 833 201 724 q 406 985 317 943 q 639 1028 496 1028 q 749 1019 699 1028 l 860 1019 q 997 1179 971 1019 l 1058 1179 m 858 501 q 879 719 879 633 q 850 867 879 815 q 767 937 821 918 q 625 956 713 956 q 442 919 511 956 q 326 787 372 883 q 250 504 279 690 q 228 290 228 367 q 255 150 228 199 q 337 83 282 101 q 486 65 392 65 q 670 99 601 65 q 784 227 739 133 q 858 501 829 321 m 781 1286 l 854 1286 l 650 1099 l 600 1099 l 781 1286 z "},"Ợ":{"ha":950,"x_min":147,"x_max":1058,"o":"m 1058 1179 q 988 1022 1040 1069 q 864 974 935 974 q 960 719 960 904 q 939 486 960 624 q 847 176 906 283 q 700 31 789 69 q 471 -8 611 -8 q 292 15 361 -8 q 185 103 222 39 q 147 288 147 168 q 169 519 147 388 q 259 833 201 724 q 406 985 317 943 q 639 1028 496 1028 q 749 1019 699 1028 l 860 1019 q 997 1179 971 1019 l 1058 1179 m 858 501 q 879 719 879 633 q 850 867 879 815 q 767 937 821 918 q 625 956 713 956 q 442 919 511 956 q 326 787 372 883 q 250 504 279 690 q 228 290 228 367 q 255 150 228 199 q 337 83 282 101 q 486 65 392 65 q 670 99 601 65 q 784 227 739 133 q 858 501 829 321 m 389 -285 q 377 -280 382 -285 q 372 -268 372 -275 l 372 -265 l 389 -165 q 413 -144 390 -144 l 449 -144 q 465 -160 465 -144 l 465 -165 l 450 -265 q 442 -280 449 -275 q 426 -285 436 -285 l 389 -285 z "},"Ờ":{"ha":950,"x_min":147,"x_max":1058,"o":"m 1058 1179 q 988 1022 1040 1069 q 864 974 935 974 q 960 719 960 904 q 939 486 960 624 q 847 176 906 283 q 700 31 789 69 q 471 -8 611 -8 q 292 15 361 -8 q 185 103 222 39 q 147 288 147 168 q 169 519 147 388 q 259 833 201 724 q 406 985 317 943 q 639 1028 496 1028 q 749 1019 699 1028 l 860 1019 q 997 1179 971 1019 l 1058 1179 m 858 501 q 879 719 879 633 q 850 867 879 815 q 767 937 821 918 q 625 956 713 956 q 442 919 511 956 q 326 787 372 883 q 250 504 279 690 q 228 290 228 367 q 255 150 228 199 q 337 83 282 101 q 486 65 392 65 q 670 99 601 65 q 784 227 739 133 q 858 501 829 321 m 496 1286 l 568 1286 l 692 1099 l 644 1099 l 496 1286 z "},"Ở":{"ha":950,"x_min":147,"x_max":1058,"o":"m 1058 1179 q 988 1022 1040 1069 q 864 974 935 974 q 960 719 960 904 q 939 486 960 624 q 847 176 906 283 q 700 31 789 69 q 471 -8 611 -8 q 292 15 361 -8 q 185 103 222 39 q 147 288 147 168 q 169 519 147 388 q 259 833 201 724 q 406 985 317 943 q 639 1028 496 1028 q 749 1019 699 1028 l 860 1019 q 997 1179 971 1019 l 1058 1179 m 858 501 q 879 719 879 633 q 850 867 879 815 q 767 937 821 918 q 625 956 713 956 q 442 919 511 956 q 326 787 372 883 q 250 504 279 690 q 228 290 228 367 q 255 150 228 199 q 337 83 282 101 q 486 65 392 65 q 670 99 601 65 q 784 227 739 133 q 858 501 829 321 m 597 1117 q 697 1224 697 1146 q 636 1275 697 1275 q 582 1267 610 1275 l 588 1303 q 651 1313 618 1313 q 743 1229 743 1313 q 706 1140 743 1179 q 590 1078 669 1100 l 597 1117 z "},"Ỡ":{"ha":950,"x_min":147,"x_max":1058,"o":"m 1058 1179 q 988 1022 1040 1069 q 864 974 935 974 q 960 719 960 904 q 939 486 960 624 q 847 176 906 283 q 700 31 789 69 q 471 -8 611 -8 q 292 15 361 -8 q 185 103 222 39 q 147 288 147 168 q 169 519 147 388 q 259 833 201 724 q 406 985 317 943 q 639 1028 496 1028 q 749 1019 699 1028 l 860 1019 q 997 1179 971 1019 l 1058 1179 m 858 501 q 879 719 879 633 q 850 867 879 815 q 767 937 821 918 q 625 956 713 956 q 442 919 511 956 q 326 787 372 883 q 250 504 279 690 q 228 290 228 367 q 255 150 228 199 q 337 83 282 101 q 486 65 392 65 q 670 99 601 65 q 784 227 739 133 q 858 501 829 321 m 431 1131 q 485 1234 443 1201 q 581 1267 526 1267 q 636 1254 610 1267 q 694 1219 663 1242 q 748 1188 728 1199 q 792 1178 768 1178 q 858 1202 831 1178 q 893 1269 886 1226 l 935 1269 q 885 1167 924 1204 q 786 1131 847 1131 q 736 1142 760 1131 q 679 1175 713 1153 q 623 1208 646 1197 q 575 1219 600 1219 q 509 1197 538 1219 q 472 1131 481 1175 l 431 1131 z "},"Ő":{"ha":949,"x_min":147,"x_max":960,"o":"m 471 -8 q 292 15 361 -8 q 185 103 222 39 q 147 288 147 168 q 169 519 147 388 q 259 833 201 724 q 406 985 317 943 q 639 1028 496 1028 q 814 1001 744 1028 q 922 907 883 975 q 960 719 960 839 q 939 486 960 624 q 847 176 906 283 q 700 31 789 69 q 471 -8 611 -8 m 486 65 q 670 99 601 65 q 784 227 739 133 q 858 501 829 321 q 879 719 879 633 q 850 867 879 815 q 767 937 821 918 q 625 956 713 956 q 442 919 511 956 q 326 787 372 883 q 250 504 279 690 q 228 290 228 367 q 255 150 228 199 q 337 83 282 101 q 486 65 392 65 m 678 1286 l 746 1286 l 544 1099 l 497 1099 l 678 1286 m 879 1286 l 949 1286 l 747 1099 l 700 1099 l 879 1286 z "},"Ȏ":{"ha":949,"x_min":147,"x_max":960,"o":"m 471 -8 q 292 15 361 -8 q 185 103 222 39 q 147 288 147 168 q 169 519 147 388 q 259 833 201 724 q 406 985 317 943 q 639 1028 496 1028 q 814 1001 744 1028 q 922 907 883 975 q 960 719 960 839 q 939 486 960 624 q 847 176 906 283 q 700 31 789 69 q 471 -8 611 -8 m 486 65 q 670 99 601 65 q 784 227 739 133 q 858 501 829 321 q 879 719 879 633 q 850 867 879 815 q 767 937 821 918 q 625 956 713 956 q 442 919 511 956 q 326 787 372 883 q 250 504 279 690 q 228 290 228 367 q 255 150 228 199 q 337 83 282 101 q 486 65 392 65 m 471 1099 q 544 1247 486 1203 q 681 1292 601 1292 q 790 1257 749 1292 q 832 1147 832 1222 q 829 1099 832 1135 l 789 1099 q 792 1138 792 1126 q 760 1224 792 1196 q 675 1251 728 1251 q 569 1215 614 1251 q 511 1099 524 1178 l 471 1099 z "},"Ō":{"ha":949,"x_min":147,"x_max":960,"o":"m 471 -8 q 292 15 361 -8 q 185 103 222 39 q 147 288 147 168 q 169 519 147 388 q 259 833 201 724 q 406 985 317 943 q 639 1028 496 1028 q 814 1001 744 1028 q 922 907 883 975 q 960 719 960 839 q 939 486 960 624 q 847 176 906 283 q 700 31 789 69 q 471 -8 611 -8 m 486 65 q 670 99 601 65 q 784 227 739 133 q 858 501 829 321 q 879 719 879 633 q 850 867 879 815 q 767 937 821 918 q 625 956 713 956 q 442 919 511 956 q 326 787 372 883 q 250 504 279 690 q 228 290 228 367 q 255 150 228 199 q 337 83 282 101 q 486 65 392 65 m 485 1214 l 846 1214 l 838 1165 l 476 1165 l 485 1214 z "},"Ṓ":{"ha":949,"x_min":147,"x_max":960,"o":"m 471 -8 q 292 15 361 -8 q 185 103 222 39 q 147 288 147 168 q 169 519 147 388 q 259 833 201 724 q 406 985 317 943 q 639 1028 496 1028 q 814 1001 744 1028 q 922 907 883 975 q 960 719 960 839 q 939 486 960 624 q 847 176 906 283 q 700 31 789 69 q 471 -8 611 -8 m 486 65 q 670 99 601 65 q 784 227 739 133 q 858 501 829 321 q 879 719 879 633 q 850 867 879 815 q 767 937 821 918 q 625 956 713 956 q 442 919 511 956 q 326 787 372 883 q 250 504 279 690 q 228 290 228 367 q 255 150 228 199 q 337 83 282 101 q 486 65 392 65 m 485 1214 l 846 1214 l 838 1165 l 476 1165 l 485 1214 m 819 1464 l 893 1464 l 689 1276 l 639 1276 l 819 1464 z "},"Ṑ":{"ha":949,"x_min":147,"x_max":960,"o":"m 471 -8 q 292 15 361 -8 q 185 103 222 39 q 147 288 147 168 q 169 519 147 388 q 259 833 201 724 q 406 985 317 943 q 639 1028 496 1028 q 814 1001 744 1028 q 922 907 883 975 q 960 719 960 839 q 939 486 960 624 q 847 176 906 283 q 700 31 789 69 q 471 -8 611 -8 m 486 65 q 670 99 601 65 q 784 227 739 133 q 858 501 829 321 q 879 719 879 633 q 850 867 879 815 q 767 937 821 918 q 625 956 713 956 q 442 919 511 956 q 326 787 372 883 q 250 504 279 690 q 228 290 228 367 q 255 150 228 199 q 337 83 282 101 q 486 65 392 65 m 485 1214 l 846 1214 l 838 1165 l 476 1165 l 485 1214 m 504 1464 l 576 1464 l 700 1276 l 653 1276 l 504 1464 z "},"Ǫ":{"ha":949,"x_min":147,"x_max":960,"o":"m 639 1028 q 814 1001 744 1028 q 922 907 883 975 q 960 719 960 839 q 939 486 960 624 q 866 215 911 317 q 756 65 821 114 q 594 0 690 15 q 509 -65 539 -26 q 479 -135 479 -103 q 508 -193 479 -172 q 592 -214 536 -214 l 600 -214 l 593 -254 q 558 -257 571 -257 q 465 -228 499 -257 q 431 -154 431 -200 q 460 -75 431 -115 q 550 -6 489 -35 q 471 -8 500 -8 q 292 15 361 -8 q 185 103 222 39 q 147 288 147 168 q 169 519 147 388 q 259 833 201 724 q 406 985 317 943 q 639 1028 496 1028 m 858 501 q 879 719 879 633 q 850 867 879 815 q 767 937 821 918 q 625 956 713 956 q 442 919 511 956 q 326 787 372 883 q 250 504 279 690 q 228 290 228 367 q 255 150 228 199 q 337 83 282 101 q 486 65 392 65 q 670 99 601 65 q 784 227 739 133 q 858 501 829 321 z "},"Ø":{"ha":950,"x_min":82,"x_max":1029,"o":"m 925 900 q 960 719 960 831 q 939 486 960 624 q 847 176 906 283 q 700 31 789 69 q 471 -8 611 -8 q 308 10 374 -8 q 204 75 243 29 l 139 0 l 82 0 l 181 113 q 147 288 147 178 q 169 519 147 388 q 259 833 201 724 q 406 985 317 943 q 639 1028 496 1028 q 797 1008 732 1028 q 901 938 861 988 l 972 1019 l 1029 1019 l 925 900 m 228 290 q 242 182 228 224 l 846 875 q 764 938 818 921 q 625 956 710 956 q 442 919 511 956 q 326 787 372 883 q 250 504 279 690 q 228 290 228 367 m 879 719 q 865 832 879 789 l 261 140 q 342 81 289 97 q 486 65 396 65 q 670 99 601 65 q 784 227 739 133 q 858 501 829 321 q 879 719 879 633 z "},"Ǿ":{"ha":950,"x_min":82,"x_max":1029,"o":"m 925 900 q 960 719 960 831 q 939 486 960 624 q 847 176 906 283 q 700 31 789 69 q 471 -8 611 -8 q 308 10 374 -8 q 204 75 243 29 l 139 0 l 82 0 l 181 113 q 147 288 147 178 q 169 519 147 388 q 259 833 201 724 q 406 985 317 943 q 639 1028 496 1028 q 797 1008 732 1028 q 901 938 861 988 l 972 1019 l 1029 1019 l 925 900 m 228 290 q 242 182 228 224 l 846 875 q 764 938 818 921 q 625 956 710 956 q 442 919 511 956 q 326 787 372 883 q 250 504 279 690 q 228 290 228 367 m 879 719 q 865 832 879 789 l 261 140 q 342 81 289 97 q 486 65 396 65 q 670 99 601 65 q 784 227 739 133 q 858 501 829 321 q 879 719 879 633 m 783 1286 l 857 1286 l 653 1099 l 603 1099 l 783 1286 z "},"Õ":{"ha":949,"x_min":147,"x_max":960,"o":"m 471 -8 q 292 15 361 -8 q 185 103 222 39 q 147 288 147 168 q 169 519 147 388 q 259 833 201 724 q 406 985 317 943 q 639 1028 496 1028 q 814 1001 744 1028 q 922 907 883 975 q 960 719 960 839 q 939 486 960 624 q 847 176 906 283 q 700 31 789 69 q 471 -8 611 -8 m 486 65 q 670 99 601 65 q 784 227 739 133 q 858 501 829 321 q 879 719 879 633 q 850 867 879 815 q 767 937 821 918 q 625 956 713 956 q 442 919 511 956 q 326 787 372 883 q 250 504 279 690 q 228 290 228 367 q 255 150 228 199 q 337 83 282 101 q 486 65 392 65 m 442 1131 q 496 1234 454 1201 q 592 1267 538 1267 q 647 1254 621 1267 q 706 1219 674 1242 q 759 1188 739 1199 q 803 1178 779 1178 q 869 1202 842 1178 q 904 1269 897 1226 l 946 1269 q 897 1167 935 1204 q 797 1131 858 1131 q 747 1142 771 1131 q 690 1175 724 1153 q 634 1208 657 1197 q 586 1219 611 1219 q 520 1197 549 1219 q 483 1131 492 1175 l 442 1131 z "},"Ṍ":{"ha":949,"x_min":147,"x_max":960,"o":"m 471 -8 q 292 15 361 -8 q 185 103 222 39 q 147 288 147 168 q 169 519 147 388 q 259 833 201 724 q 406 985 317 943 q 639 1028 496 1028 q 814 1001 744 1028 q 922 907 883 975 q 960 719 960 839 q 939 486 960 624 q 847 176 906 283 q 700 31 789 69 q 471 -8 611 -8 m 486 65 q 670 99 601 65 q 784 227 739 133 q 858 501 829 321 q 879 719 879 633 q 850 867 879 815 q 767 937 821 918 q 625 956 713 956 q 442 919 511 956 q 326 787 372 883 q 250 504 279 690 q 228 290 228 367 q 255 150 228 199 q 337 83 282 101 q 486 65 392 65 m 442 1131 q 496 1234 454 1201 q 592 1267 538 1267 q 647 1254 621 1267 q 706 1219 674 1242 q 759 1188 739 1199 q 803 1178 779 1178 q 869 1202 842 1178 q 904 1269 897 1226 l 946 1269 q 897 1167 935 1204 q 797 1131 858 1131 q 747 1142 771 1131 q 690 1175 724 1153 q 634 1208 657 1197 q 586 1219 611 1219 q 520 1197 549 1219 q 483 1131 492 1175 l 442 1131 m 831 1511 l 904 1511 l 700 1324 l 650 1324 l 831 1511 z "},"Ṏ":{"ha":949,"x_min":147,"x_max":960,"o":"m 471 -8 q 292 15 361 -8 q 185 103 222 39 q 147 288 147 168 q 169 519 147 388 q 259 833 201 724 q 406 985 317 943 q 639 1028 496 1028 q 814 1001 744 1028 q 922 907 883 975 q 960 719 960 839 q 939 486 960 624 q 847 176 906 283 q 700 31 789 69 q 471 -8 611 -8 m 486 65 q 670 99 601 65 q 784 227 739 133 q 858 501 829 321 q 879 719 879 633 q 850 867 879 815 q 767 937 821 918 q 625 956 713 956 q 442 919 511 956 q 326 787 372 883 q 250 504 279 690 q 228 290 228 367 q 255 150 228 199 q 337 83 282 101 q 486 65 392 65 m 419 1131 q 474 1234 432 1201 q 569 1267 515 1267 q 625 1254 599 1267 q 683 1219 651 1242 q 737 1188 717 1199 q 781 1178 757 1178 q 847 1202 819 1178 q 882 1269 875 1226 l 924 1269 q 874 1167 913 1204 q 775 1131 836 1131 q 725 1142 749 1131 q 668 1175 701 1153 q 612 1208 635 1197 q 564 1219 589 1219 q 498 1197 526 1219 q 461 1131 469 1175 l 419 1131 m 521 1342 q 504 1358 504 1342 l 519 1461 q 544 1482 524 1482 l 581 1482 q 597 1467 597 1482 l 581 1361 q 573 1347 579 1351 q 557 1342 567 1342 l 521 1342 m 806 1342 q 794 1347 799 1342 q 789 1358 789 1351 q 806 1461 789 1350 q 829 1482 807 1482 l 867 1482 q 883 1467 883 1482 q 867 1361 883 1472 q 859 1347 865 1351 q 843 1342 853 1342 l 806 1342 z "},"Ȭ":{"ha":949,"x_min":147,"x_max":960,"o":"m 471 -8 q 292 15 361 -8 q 185 103 222 39 q 147 288 147 168 q 169 519 147 388 q 259 833 201 724 q 406 985 317 943 q 639 1028 496 1028 q 814 1001 744 1028 q 922 907 883 975 q 960 719 960 839 q 939 486 960 624 q 847 176 906 283 q 700 31 789 69 q 471 -8 611 -8 m 486 65 q 670 99 601 65 q 784 227 739 133 q 858 501 829 321 q 879 719 879 633 q 850 867 879 815 q 767 937 821 918 q 625 956 713 956 q 442 919 511 956 q 326 787 372 883 q 250 504 279 690 q 228 290 228 367 q 255 150 228 199 q 337 83 282 101 q 486 65 392 65 m 501 1406 l 863 1406 l 854 1357 l 493 1357 l 501 1406 m 419 1131 q 474 1234 432 1201 q 569 1267 515 1267 q 625 1254 599 1267 q 683 1219 651 1242 q 737 1188 717 1199 q 781 1178 757 1178 q 847 1202 819 1178 q 882 1269 875 1226 l 924 1269 q 874 1167 913 1204 q 775 1131 836 1131 q 725 1142 749 1131 q 668 1175 701 1153 q 612 1208 635 1197 q 564 1219 589 1219 q 498 1197 526 1219 q 461 1131 469 1175 l 419 1131 z "},"Œ":{"ha":1472,"x_min":147,"x_max":1550,"o":"m 1140 946 q 1040 914 1078 946 q 990 810 1003 882 l 949 544 l 1415 535 l 1406 475 l 936 469 l 936 468 l 894 200 q 892 163 892 172 q 923 87 892 107 q 1014 67 954 67 l 1403 67 l 1392 3 q 988 -8 1133 -6 q 867 18 917 -10 q 808 117 817 46 q 672 19 751 46 q 471 -8 592 -8 q 292 15 361 -8 q 185 103 222 39 q 147 288 147 168 q 169 519 147 388 q 259 833 201 724 q 406 985 317 943 q 639 1028 496 1028 q 823 997 751 1028 q 929 892 894 967 q 1009 989 956 958 q 1131 1019 1063 1019 q 1550 1008 1269 1019 l 1539 946 l 1140 946 m 486 65 q 670 99 601 65 q 784 227 739 133 q 858 501 829 321 q 879 719 879 633 q 850 867 879 815 q 767 937 821 918 q 625 956 713 956 q 442 919 511 956 q 326 787 372 883 q 250 504 279 690 q 228 290 228 367 q 255 150 228 199 q 337 83 282 101 q 486 65 392 65 z "},"P":{"ha":829,"x_min":104,"x_max":871,"o":"m 265 1019 l 646 1019 q 871 799 871 1019 q 861 703 871 771 q 749 462 835 531 q 547 393 663 393 q 249 406 449 393 l 185 0 l 104 0 l 265 1019 m 542 467 q 781 710 742 467 q 789 792 789 763 q 749 910 789 874 q 632 947 708 947 l 335 947 l 258 467 l 542 467 z "},"Ṗ":{"ha":829,"x_min":104,"x_max":871,"o":"m 265 1019 l 646 1019 q 871 799 871 1019 q 861 703 871 771 q 749 462 835 531 q 547 393 663 393 q 249 406 449 393 l 185 0 l 104 0 l 265 1019 m 542 467 q 781 710 742 467 q 789 792 789 763 q 749 910 789 874 q 632 947 708 947 l 335 947 l 258 467 l 542 467 m 542 1146 q 530 1151 535 1146 q 525 1163 525 1156 l 525 1165 l 542 1265 q 565 1286 543 1286 l 601 1286 q 618 1271 618 1286 l 618 1265 l 603 1165 q 595 1151 601 1156 q 579 1146 589 1146 l 542 1146 z "},"Þ":{"ha":756,"x_min":104,"x_max":768,"o":"m 529 821 q 768 604 768 821 q 758 508 768 576 q 648 297 735 357 q 444 238 561 238 q 224 250 358 238 l 185 0 l 104 0 l 265 1019 l 344 1019 l 314 821 l 529 821 m 678 515 q 686 597 686 568 q 642 713 686 676 q 515 749 599 749 l 301 749 l 233 311 l 439 311 q 678 515 644 311 z "},"Q":{"ha":949,"x_min":147,"x_max":960,"o":"m 471 -8 q 292 15 361 -8 q 185 103 222 39 q 147 288 147 168 q 169 519 147 388 q 259 833 201 724 q 406 985 317 943 q 639 1028 496 1028 q 814 1001 744 1028 q 922 907 883 975 q 960 719 960 839 q 939 486 960 624 q 847 176 906 283 q 700 31 789 69 q 471 -8 611 -8 m 486 65 q 670 99 601 65 q 784 227 739 133 q 858 501 829 321 q 879 719 879 633 q 850 867 879 815 q 767 937 821 918 q 625 956 713 956 q 442 919 511 956 q 326 787 372 883 q 250 504 279 690 q 228 290 228 367 q 255 150 228 199 q 337 83 282 101 q 486 65 392 65 m 675 -226 q 533 -183 586 -226 q 475 -49 479 -139 l 529 -49 q 578 -138 542 -111 q 675 -165 614 -165 q 771 -150 728 -165 l 763 -214 q 675 -226 721 -226 z "},"R":{"ha":850,"x_min":104,"x_max":868,"o":"m 265 1019 l 632 1019 q 801 969 733 1019 q 868 792 868 918 q 861 710 868 761 q 772 508 838 564 q 622 442 706 453 l 767 0 l 685 0 l 547 432 q 507 433 522 432 q 254 439 288 438 l 185 0 l 104 0 l 265 1019 m 556 500 q 702 545 644 500 q 779 717 760 590 q 783 782 783 742 q 737 912 783 876 q 617 947 690 947 l 335 947 l 264 500 l 556 500 z "},"Ŕ":{"ha":850,"x_min":104,"x_max":868,"o":"m 265 1019 l 632 1019 q 801 969 733 1019 q 868 792 868 918 q 861 710 868 761 q 772 508 838 564 q 622 442 706 453 l 767 0 l 685 0 l 547 432 q 507 433 522 432 q 254 439 288 438 l 185 0 l 104 0 l 265 1019 m 556 500 q 702 545 644 500 q 779 717 760 590 q 783 782 783 742 q 737 912 783 876 q 617 947 690 947 l 335 947 l 264 500 l 556 500 m 686 1286 l 760 1286 l 556 1099 l 506 1099 l 686 1286 z "},"Ř":{"ha":850,"x_min":104,"x_max":868,"o":"m 265 1019 l 632 1019 q 801 969 733 1019 q 868 792 868 918 q 861 710 868 761 q 772 508 838 564 q 622 442 706 453 l 767 0 l 685 0 l 547 432 q 507 433 522 432 q 254 439 288 438 l 185 0 l 104 0 l 265 1019 m 556 500 q 702 545 644 500 q 779 717 760 590 q 783 782 783 742 q 737 912 783 876 q 617 947 690 947 l 335 947 l 264 500 l 556 500 m 406 1283 l 457 1283 l 571 1139 l 747 1283 l 797 1283 l 593 1099 l 535 1099 l 406 1283 z "},"Ŗ":{"ha":850,"x_min":104,"x_max":868,"o":"m 265 1019 l 632 1019 q 801 969 733 1019 q 868 792 868 918 q 861 710 868 761 q 772 508 838 564 q 622 442 706 453 l 767 0 l 685 0 l 547 432 q 507 433 522 432 q 254 439 288 438 l 185 0 l 104 0 l 265 1019 m 556 500 q 702 545 644 500 q 779 717 760 590 q 783 782 783 742 q 737 912 783 876 q 617 947 690 947 l 335 947 l 264 500 l 556 500 m 250 -242 l 293 -236 q 356 -221 333 -232 q 395 -178 379 -210 q 421 -83 411 -146 l 472 -83 q 442 -197 461 -156 q 387 -256 422 -237 q 292 -275 351 -275 l 244 -275 l 250 -242 z "},"Ȑ":{"ha":850,"x_min":104,"x_max":868,"o":"m 265 1019 l 632 1019 q 801 969 733 1019 q 868 792 868 918 q 861 710 868 761 q 772 508 838 564 q 622 442 706 453 l 767 0 l 685 0 l 547 432 q 507 433 522 432 q 254 439 288 438 l 185 0 l 104 0 l 265 1019 m 556 500 q 702 545 644 500 q 779 717 760 590 q 783 782 783 742 q 737 912 783 876 q 617 947 690 947 l 335 947 l 264 500 l 556 500 m 282 1286 l 354 1286 l 478 1099 l 431 1099 l 282 1286 m 471 1286 l 543 1286 l 667 1099 l 619 1099 l 471 1286 z "},"Ṛ":{"ha":850,"x_min":104,"x_max":868,"o":"m 265 1019 l 632 1019 q 801 969 733 1019 q 868 792 868 918 q 861 710 868 761 q 772 508 838 564 q 622 442 706 453 l 767 0 l 685 0 l 547 432 q 507 433 522 432 q 254 439 288 438 l 185 0 l 104 0 l 265 1019 m 556 500 q 702 545 644 500 q 779 717 760 590 q 783 782 783 742 q 737 912 783 876 q 617 947 690 947 l 335 947 l 264 500 l 556 500 m 350 -285 q 338 -280 343 -285 q 333 -268 333 -275 l 333 -265 l 350 -165 q 374 -144 351 -144 l 410 -144 q 426 -160 426 -144 l 426 -165 l 411 -265 q 403 -280 410 -275 q 388 -285 397 -285 l 350 -285 z "},"Ȓ":{"ha":850,"x_min":104,"x_max":868,"o":"m 265 1019 l 632 1019 q 801 969 733 1019 q 868 792 868 918 q 861 710 868 761 q 772 508 838 564 q 622 442 706 453 l 767 0 l 685 0 l 547 432 q 507 433 522 432 q 254 439 288 438 l 185 0 l 104 0 l 265 1019 m 556 500 q 702 545 644 500 q 779 717 760 590 q 783 782 783 742 q 737 912 783 876 q 617 947 690 947 l 335 947 l 264 500 l 556 500 m 365 1099 q 438 1247 381 1203 q 575 1292 496 1292 q 685 1257 643 1292 q 726 1147 726 1222 q 724 1099 726 1135 l 683 1099 q 686 1138 686 1126 q 654 1224 686 1196 q 569 1251 622 1251 q 463 1215 508 1251 q 406 1099 418 1178 l 365 1099 z "},"Ṟ":{"ha":850,"x_min":104,"x_max":868,"o":"m 265 1019 l 632 1019 q 801 969 733 1019 q 868 792 868 918 q 861 710 868 761 q 772 508 838 564 q 622 442 706 453 l 767 0 l 685 0 l 547 432 q 507 433 522 432 q 254 439 288 438 l 185 0 l 104 0 l 265 1019 m 556 500 q 702 545 644 500 q 779 717 760 590 q 783 782 783 742 q 737 912 783 876 q 617 947 690 947 l 335 947 l 264 500 l 556 500 m 213 -203 l 574 -203 l 565 -251 l 204 -251 l 213 -203 z "},"S":{"ha":788,"x_min":103,"x_max":832,"o":"m 415 -8 q 248 -3 336 -8 q 103 13 160 3 l 113 74 q 419 64 246 64 q 599 100 535 64 q 679 236 664 136 l 690 313 q 694 357 694 336 q 658 446 694 418 q 540 474 621 474 l 404 474 q 203 640 203 474 q 207 694 203 665 l 219 785 q 319 975 242 922 q 535 1028 397 1028 q 683 1020 588 1028 q 832 1003 778 1013 l 824 942 q 676 950 760 947 q 531 953 592 953 q 367 916 422 953 q 297 778 313 879 l 285 701 q 282 657 282 668 q 315 575 282 599 q 419 551 347 551 l 558 551 q 774 375 774 551 q 769 318 774 350 l 754 225 q 649 43 735 94 q 415 -8 564 -8 z "},"Ś":{"ha":788,"x_min":103,"x_max":832,"o":"m 415 -8 q 248 -3 336 -8 q 103 13 160 3 l 113 74 q 419 64 246 64 q 599 100 535 64 q 679 236 664 136 l 690 313 q 694 357 694 336 q 658 446 694 418 q 540 474 621 474 l 404 474 q 203 640 203 474 q 207 694 203 665 l 219 785 q 319 975 242 922 q 535 1028 397 1028 q 683 1020 588 1028 q 832 1003 778 1013 l 824 942 q 676 950 760 947 q 531 953 592 953 q 367 916 422 953 q 297 778 313 879 l 285 701 q 282 657 282 668 q 315 575 282 599 q 419 551 347 551 l 558 551 q 774 375 774 551 q 769 318 774 350 l 754 225 q 649 43 735 94 q 415 -8 564 -8 m 704 1286 l 778 1286 l 574 1099 l 524 1099 l 704 1286 z "},"Ṥ":{"ha":788,"x_min":103,"x_max":832,"o":"m 415 -8 q 248 -3 336 -8 q 103 13 160 3 l 113 74 q 419 64 246 64 q 599 100 535 64 q 679 236 664 136 l 690 313 q 694 357 694 336 q 658 446 694 418 q 540 474 621 474 l 404 474 q 203 640 203 474 q 207 694 203 665 l 219 785 q 319 975 242 922 q 535 1028 397 1028 q 683 1020 588 1028 q 832 1003 778 1013 l 824 942 q 676 950 760 947 q 531 953 592 953 q 367 916 422 953 q 297 778 313 879 l 285 701 q 282 657 282 668 q 315 575 282 599 q 419 551 347 551 l 558 551 q 774 375 774 551 q 769 318 774 350 l 754 225 q 649 43 735 94 q 415 -8 564 -8 m 663 1286 l 736 1286 l 532 1099 l 482 1099 l 663 1286 m 624 1329 q 612 1334 617 1329 q 607 1346 607 1339 l 607 1349 l 624 1449 q 647 1469 625 1469 l 683 1469 q 700 1454 700 1469 l 700 1449 l 685 1349 q 677 1334 683 1339 q 661 1329 671 1329 l 624 1329 z "},"Š":{"ha":788,"x_min":103,"x_max":832,"o":"m 415 -8 q 248 -3 336 -8 q 103 13 160 3 l 113 74 q 419 64 246 64 q 599 100 535 64 q 679 236 664 136 l 690 313 q 694 357 694 336 q 658 446 694 418 q 540 474 621 474 l 404 474 q 203 640 203 474 q 207 694 203 665 l 219 785 q 319 975 242 922 q 535 1028 397 1028 q 683 1020 588 1028 q 832 1003 778 1013 l 824 942 q 676 950 760 947 q 531 953 592 953 q 367 916 422 953 q 297 778 313 879 l 285 701 q 282 657 282 668 q 315 575 282 599 q 419 551 347 551 l 558 551 q 774 375 774 551 q 769 318 774 350 l 754 225 q 649 43 735 94 q 415 -8 564 -8 m 424 1283 l 475 1283 l 589 1139 l 765 1283 l 815 1283 l 611 1099 l 553 1099 l 424 1283 z "},"Ṧ":{"ha":788,"x_min":103,"x_max":832,"o":"m 415 -8 q 248 -3 336 -8 q 103 13 160 3 l 113 74 q 419 64 246 64 q 599 100 535 64 q 679 236 664 136 l 690 313 q 694 357 694 336 q 658 446 694 418 q 540 474 621 474 l 404 474 q 203 640 203 474 q 207 694 203 665 l 219 785 q 319 975 242 922 q 535 1028 397 1028 q 683 1020 588 1028 q 832 1003 778 1013 l 824 942 q 676 950 760 947 q 531 953 592 953 q 367 916 422 953 q 297 778 313 879 l 285 701 q 282 657 282 668 q 315 575 282 599 q 419 551 347 551 l 558 551 q 774 375 774 551 q 769 318 774 350 l 754 225 q 649 43 735 94 q 415 -8 564 -8 m 424 1283 l 475 1283 l 589 1139 l 765 1283 l 815 1283 l 611 1099 l 553 1099 l 424 1283 m 596 1340 q 584 1345 589 1340 q 579 1357 579 1350 l 579 1360 l 596 1460 q 619 1481 597 1481 l 656 1481 q 672 1465 672 1481 l 672 1460 l 657 1360 q 649 1345 656 1350 q 633 1340 643 1340 l 596 1340 z "},"Ş":{"ha":788,"x_min":103,"x_max":832,"o":"m 285 701 q 282 657 282 668 q 315 575 282 599 q 419 551 347 551 l 558 551 q 774 375 774 551 q 769 318 774 350 l 754 225 q 649 43 735 94 q 415 -8 564 -8 l 403 -8 l 336 -89 q 426 -160 426 -93 q 409 -210 426 -183 q 359 -253 392 -236 q 281 -271 326 -271 l 242 -271 l 247 -237 l 281 -235 q 350 -205 325 -231 q 375 -156 375 -179 q 355 -119 375 -132 q 283 -104 335 -106 l 364 -8 q 103 13 193 -3 l 113 74 q 419 64 246 64 q 599 100 535 64 q 679 236 664 136 l 690 313 q 694 357 694 336 q 658 446 694 418 q 540 474 621 474 l 404 474 q 203 640 203 474 q 207 694 203 665 l 219 785 q 319 975 242 922 q 535 1028 397 1028 q 683 1020 588 1028 q 832 1003 778 1013 l 824 942 q 676 950 760 947 q 531 953 592 953 q 367 916 422 953 q 297 778 313 879 l 285 701 z "},"Ŝ":{"ha":788,"x_min":103,"x_max":832,"o":"m 415 -8 q 248 -3 336 -8 q 103 13 160 3 l 113 74 q 419 64 246 64 q 599 100 535 64 q 679 236 664 136 l 690 313 q 694 357 694 336 q 658 446 694 418 q 540 474 621 474 l 404 474 q 203 640 203 474 q 207 694 203 665 l 219 785 q 319 975 242 922 q 535 1028 397 1028 q 683 1020 588 1028 q 832 1003 778 1013 l 824 942 q 676 950 760 947 q 531 953 592 953 q 367 916 422 953 q 297 778 313 879 l 285 701 q 282 657 282 668 q 315 575 282 599 q 419 551 347 551 l 558 551 q 774 375 774 551 q 769 318 774 350 l 754 225 q 649 43 735 94 q 415 -8 564 -8 m 558 1283 l 617 1283 l 746 1099 l 694 1099 l 579 1243 l 406 1099 l 354 1099 l 558 1283 z "},"Ș":{"ha":788,"x_min":103,"x_max":832,"o":"m 415 -8 q 248 -3 336 -8 q 103 13 160 3 l 113 74 q 419 64 246 64 q 599 100 535 64 q 679 236 664 136 l 690 313 q 694 357 694 336 q 658 446 694 418 q 540 474 621 474 l 404 474 q 203 640 203 474 q 207 694 203 665 l 219 785 q 319 975 242 922 q 535 1028 397 1028 q 683 1020 588 1028 q 832 1003 778 1013 l 824 942 q 676 950 760 947 q 531 953 592 953 q 367 916 422 953 q 297 778 313 879 l 285 701 q 282 657 282 668 q 315 575 282 599 q 419 551 347 551 l 558 551 q 774 375 774 551 q 769 318 774 350 l 754 225 q 649 43 735 94 q 415 -8 564 -8 m 246 -242 l 289 -236 q 352 -221 329 -232 q 391 -178 375 -210 q 417 -83 407 -146 l 468 -83 q 438 -197 457 -156 q 383 -256 418 -237 q 288 -275 347 -275 l 240 -275 l 246 -242 z "},"Ṡ":{"ha":788,"x_min":103,"x_max":832,"o":"m 415 -8 q 248 -3 336 -8 q 103 13 160 3 l 113 74 q 419 64 246 64 q 599 100 535 64 q 679 236 664 136 l 690 313 q 694 357 694 336 q 658 446 694 418 q 540 474 621 474 l 404 474 q 203 640 203 474 q 207 694 203 665 l 219 785 q 319 975 242 922 q 535 1028 397 1028 q 683 1020 588 1028 q 832 1003 778 1013 l 824 942 q 676 950 760 947 q 531 953 592 953 q 367 916 422 953 q 297 778 313 879 l 285 701 q 282 657 282 668 q 315 575 282 599 q 419 551 347 551 l 558 551 q 774 375 774 551 q 769 318 774 350 l 754 225 q 649 43 735 94 q 415 -8 564 -8 m 551 1146 q 540 1151 544 1146 q 535 1163 535 1156 l 535 1165 l 551 1265 q 575 1286 553 1286 l 611 1286 q 628 1271 628 1286 l 628 1265 l 613 1165 q 605 1151 611 1156 q 589 1146 599 1146 l 551 1146 z "},"Ṣ":{"ha":788,"x_min":103,"x_max":832,"o":"m 415 -8 q 248 -3 336 -8 q 103 13 160 3 l 113 74 q 419 64 246 64 q 599 100 535 64 q 679 236 664 136 l 690 313 q 694 357 694 336 q 658 446 694 418 q 540 474 621 474 l 404 474 q 203 640 203 474 q 207 694 203 665 l 219 785 q 319 975 242 922 q 535 1028 397 1028 q 683 1020 588 1028 q 832 1003 778 1013 l 824 942 q 676 950 760 947 q 531 953 592 953 q 367 916 422 953 q 297 778 313 879 l 285 701 q 282 657 282 668 q 315 575 282 599 q 419 551 347 551 l 558 551 q 774 375 774 551 q 769 318 774 350 l 754 225 q 649 43 735 94 q 415 -8 564 -8 m 315 -285 q 303 -280 308 -285 q 299 -268 299 -275 l 299 -265 l 315 -165 q 339 -144 317 -144 l 375 -144 q 392 -160 392 -144 l 392 -165 l 376 -265 q 369 -280 375 -275 q 353 -285 363 -285 l 315 -285 z "},"Ṩ":{"ha":788,"x_min":103,"x_max":832,"o":"m 415 -8 q 248 -3 336 -8 q 103 13 160 3 l 113 74 q 419 64 246 64 q 599 100 535 64 q 679 236 664 136 l 690 313 q 694 357 694 336 q 658 446 694 418 q 540 474 621 474 l 404 474 q 203 640 203 474 q 207 694 203 665 l 219 785 q 319 975 242 922 q 535 1028 397 1028 q 683 1020 588 1028 q 832 1003 778 1013 l 824 942 q 676 950 760 947 q 531 953 592 953 q 367 916 422 953 q 297 778 313 879 l 285 701 q 282 657 282 668 q 315 575 282 599 q 419 551 347 551 l 558 551 q 774 375 774 551 q 769 318 774 350 l 754 225 q 649 43 735 94 q 415 -8 564 -8 m 315 -285 q 303 -280 308 -285 q 299 -268 299 -275 l 299 -265 l 315 -165 q 339 -144 317 -144 l 375 -144 q 392 -160 392 -144 l 392 -165 l 376 -265 q 369 -280 375 -275 q 353 -285 363 -285 l 315 -285 m 551 1146 q 540 1151 544 1146 q 535 1163 535 1156 l 535 1165 l 551 1265 q 575 1286 553 1286 l 611 1286 q 628 1271 628 1286 l 628 1265 l 613 1165 q 605 1151 611 1156 q 589 1146 599 1146 l 551 1146 z "},"ẞ":{"ha":910,"x_min":113,"x_max":932,"o":"m 928 992 l 897 953 l 894 947 l 893 947 l 613 585 l 551 542 l 665 542 q 823 495 769 542 q 876 364 876 449 q 858 228 876 346 q 745 44 836 97 q 515 -8 654 -8 q 416 -2 481 -8 q 321 10 351 4 l 331 76 q 413 67 360 71 q 518 64 467 64 q 695 100 628 64 q 778 233 763 136 q 793 353 793 335 q 758 442 793 413 q 646 472 722 472 l 476 472 l 486 542 l 542 542 l 796 907 l 842 947 l 472 947 q 372 914 411 947 q 322 814 332 881 l 193 0 l 113 0 l 242 813 q 322 969 258 919 q 478 1019 385 1019 q 794 1014 592 1019 l 932 1011 l 918 988 l 928 992 z "},"Ə":{"ha":836,"x_min":144,"x_max":851,"o":"m 410 -8 q 209 59 274 -8 q 144 278 144 126 q 161 464 144 369 l 171 528 l 750 528 q 769 728 769 656 q 742 867 769 818 q 654 936 714 917 q 492 956 594 956 q 342 947 400 956 q 272 938 283 939 l 283 997 q 532 1028 406 1028 q 711 1003 643 1028 q 815 915 779 979 q 851 736 851 851 q 831 514 851 646 q 739 197 797 311 q 600 37 681 82 q 410 -8 519 -8 m 418 64 q 561 99 503 64 q 663 219 619 133 q 738 461 706 306 l 240 461 q 224 281 224 353 q 269 115 224 165 q 418 64 314 64 z "},"T":{"ha":839,"x_min":189,"x_max":947,"o":"m 522 947 l 189 947 l 200 1019 l 947 1019 l 936 947 l 603 947 l 453 0 l 372 0 l 522 947 z "},"Ŧ":{"ha":836,"x_min":186,"x_max":947,"o":"m 603 947 l 543 567 l 810 567 l 801 515 l 535 515 l 453 0 l 372 0 l 454 515 l 186 515 l 194 567 l 463 567 l 522 947 l 189 947 l 200 1019 l 947 1019 l 936 947 l 603 947 z "},"Ť":{"ha":839,"x_min":189,"x_max":947,"o":"m 522 947 l 189 947 l 200 1019 l 947 1019 l 936 947 l 603 947 l 453 0 l 372 0 l 522 947 m 439 1283 l 490 1283 l 604 1139 l 781 1283 l 831 1283 l 626 1099 l 568 1099 l 439 1283 z "},"Ţ":{"ha":839,"x_min":189,"x_max":947,"o":"m 947 1019 l 936 947 l 603 947 l 453 0 l 425 0 l 351 -89 q 442 -160 442 -93 q 424 -210 442 -183 q 374 -253 407 -236 q 296 -271 342 -271 l 257 -271 l 263 -237 l 296 -235 q 365 -205 340 -231 q 390 -156 390 -179 q 370 -119 390 -132 q 299 -104 350 -106 l 386 0 l 372 0 l 522 947 l 189 947 l 200 1019 l 947 1019 z "},"Ț":{"ha":839,"x_min":189,"x_max":947,"o":"m 522 947 l 189 947 l 200 1019 l 947 1019 l 936 947 l 603 947 l 453 0 l 372 0 l 522 947 m 261 -242 l 304 -236 q 367 -221 344 -232 q 406 -178 390 -210 q 432 -83 422 -146 l 483 -83 q 453 -197 472 -156 q 398 -256 433 -237 q 303 -275 363 -275 l 256 -275 l 261 -242 z "},"Ṫ":{"ha":839,"x_min":189,"x_max":947,"o":"m 522 947 l 189 947 l 200 1019 l 947 1019 l 936 947 l 603 947 l 453 0 l 372 0 l 522 947 m 567 1146 q 555 1151 560 1146 q 550 1163 550 1156 l 550 1165 l 567 1265 q 590 1286 568 1286 l 626 1286 q 643 1271 643 1286 l 643 1265 l 628 1165 q 620 1151 626 1156 q 604 1146 614 1146 l 567 1146 z "},"Ṭ":{"ha":839,"x_min":189,"x_max":947,"o":"m 522 947 l 189 947 l 200 1019 l 947 1019 l 936 947 l 603 947 l 453 0 l 372 0 l 522 947 m 331 -285 q 319 -280 324 -285 q 314 -268 314 -275 l 314 -265 l 331 -165 q 354 -144 332 -144 l 390 -144 q 407 -160 407 -144 l 407 -165 l 392 -265 q 384 -280 390 -275 q 368 -285 378 -285 l 331 -285 z "},"Ṯ":{"ha":839,"x_min":189,"x_max":947,"o":"m 522 947 l 189 947 l 200 1019 l 947 1019 l 936 947 l 603 947 l 453 0 l 372 0 l 522 947 m 215 -203 l 576 -203 l 568 -251 l 207 -251 l 215 -203 z "},"U":{"ha":935,"x_min":160,"x_max":992,"o":"m 467 -8 q 235 56 311 -8 q 160 269 160 121 q 176 453 160 356 l 265 1019 l 346 1019 l 256 444 q 239 274 239 338 q 296 112 239 160 q 472 64 353 64 q 640 92 575 64 q 750 201 704 119 q 821 444 796 283 l 911 1019 l 992 1019 l 900 436 q 813 155 871 251 q 674 25 756 58 q 467 -8 592 -8 z "},"Ú":{"ha":935,"x_min":160,"x_max":992,"o":"m 467 -8 q 235 56 311 -8 q 160 269 160 121 q 176 453 160 356 l 265 1019 l 346 1019 l 256 444 q 239 274 239 338 q 296 112 239 160 q 472 64 353 64 q 640 92 575 64 q 750 201 704 119 q 821 444 796 283 l 911 1019 l 992 1019 l 900 436 q 813 155 871 251 q 674 25 756 58 q 467 -8 592 -8 m 765 1286 l 839 1286 l 635 1099 l 585 1099 l 765 1286 z "},"Ŭ":{"ha":935,"x_min":160,"x_max":992,"o":"m 467 -8 q 235 56 311 -8 q 160 269 160 121 q 176 453 160 356 l 265 1019 l 346 1019 l 256 444 q 239 274 239 338 q 296 112 239 160 q 472 64 353 64 q 640 92 575 64 q 750 201 704 119 q 821 444 796 283 l 911 1019 l 992 1019 l 900 436 q 813 155 871 251 q 674 25 756 58 q 467 -8 592 -8 m 621 1097 q 511 1132 553 1097 q 469 1242 469 1167 q 472 1290 469 1254 l 513 1290 q 510 1251 510 1263 q 542 1165 510 1193 q 624 1138 574 1138 q 733 1174 688 1138 q 790 1290 778 1210 l 831 1290 q 758 1142 815 1186 q 621 1097 700 1097 z "},"Û":{"ha":935,"x_min":160,"x_max":992,"o":"m 467 -8 q 235 56 311 -8 q 160 269 160 121 q 176 453 160 356 l 265 1019 l 346 1019 l 256 444 q 239 274 239 338 q 296 112 239 160 q 472 64 353 64 q 640 92 575 64 q 750 201 704 119 q 821 444 796 283 l 911 1019 l 992 1019 l 900 436 q 813 155 871 251 q 674 25 756 58 q 467 -8 592 -8 m 619 1283 l 678 1283 l 807 1099 l 756 1099 l 640 1243 l 467 1099 l 415 1099 l 619 1283 z "},"Ȕ":{"ha":935,"x_min":160,"x_max":992,"o":"m 467 -8 q 235 56 311 -8 q 160 269 160 121 q 176 453 160 356 l 265 1019 l 346 1019 l 256 444 q 239 274 239 338 q 296 112 239 160 q 472 64 353 64 q 640 92 575 64 q 750 201 704 119 q 821 444 796 283 l 911 1019 l 992 1019 l 900 436 q 813 155 871 251 q 674 25 756 58 q 467 -8 592 -8 m 361 1286 l 433 1286 l 557 1099 l 510 1099 l 361 1286 m 550 1286 l 622 1286 l 746 1099 l 699 1099 l 550 1286 z "},"Ü":{"ha":935,"x_min":160,"x_max":992,"o":"m 467 -8 q 235 56 311 -8 q 160 269 160 121 q 176 453 160 356 l 265 1019 l 346 1019 l 256 444 q 239 274 239 338 q 296 112 239 160 q 472 64 353 64 q 640 92 575 64 q 750 201 704 119 q 821 444 796 283 l 911 1019 l 992 1019 l 900 436 q 813 155 871 251 q 674 25 756 58 q 467 -8 592 -8 m 444 1136 q 428 1153 428 1136 l 443 1256 q 468 1276 447 1276 l 504 1276 q 521 1261 521 1276 l 504 1156 q 497 1141 503 1146 q 481 1136 490 1136 l 444 1136 m 729 1136 q 717 1141 722 1136 q 713 1153 713 1146 q 729 1256 713 1144 q 753 1276 731 1276 l 790 1276 q 807 1261 807 1276 q 790 1156 807 1267 q 783 1141 789 1146 q 767 1136 776 1136 l 729 1136 z "},"Ụ":{"ha":935,"x_min":160,"x_max":992,"o":"m 467 -8 q 235 56 311 -8 q 160 269 160 121 q 176 453 160 356 l 265 1019 l 346 1019 l 256 444 q 239 274 239 338 q 296 112 239 160 q 472 64 353 64 q 640 92 575 64 q 750 201 704 119 q 821 444 796 283 l 911 1019 l 992 1019 l 900 436 q 813 155 871 251 q 674 25 756 58 q 467 -8 592 -8 m 376 -285 q 365 -280 369 -285 q 360 -268 360 -275 l 360 -265 l 376 -165 q 400 -144 378 -144 l 436 -144 q 453 -160 453 -144 l 453 -165 l 438 -265 q 430 -280 436 -275 q 414 -285 424 -285 l 376 -285 z "},"Ù":{"ha":935,"x_min":160,"x_max":992,"o":"m 467 -8 q 235 56 311 -8 q 160 269 160 121 q 176 453 160 356 l 265 1019 l 346 1019 l 256 444 q 239 274 239 338 q 296 112 239 160 q 472 64 353 64 q 640 92 575 64 q 750 201 704 119 q 821 444 796 283 l 911 1019 l 992 1019 l 900 436 q 813 155 871 251 q 674 25 756 58 q 467 -8 592 -8 m 481 1286 l 553 1286 l 676 1099 l 629 1099 l 481 1286 z "},"Ủ":{"ha":935,"x_min":160,"x_max":992,"o":"m 467 -8 q 235 56 311 -8 q 160 269 160 121 q 176 453 160 356 l 265 1019 l 346 1019 l 256 444 q 239 274 239 338 q 296 112 239 160 q 472 64 353 64 q 640 92 575 64 q 750 201 704 119 q 821 444 796 283 l 911 1019 l 992 1019 l 900 436 q 813 155 871 251 q 674 25 756 58 q 467 -8 592 -8 m 582 1117 q 682 1224 682 1146 q 621 1275 682 1275 q 567 1267 594 1275 l 572 1303 q 636 1313 603 1313 q 728 1229 728 1313 q 691 1140 728 1179 q 575 1078 654 1100 l 582 1117 z "},"Ư":{"ha":933,"x_min":160,"x_max":1154,"o":"m 1154 1179 q 1093 1032 1139 1081 q 985 975 1047 983 l 900 436 q 813 155 871 251 q 674 25 756 58 q 467 -8 592 -8 q 235 56 311 -8 q 160 269 160 121 q 176 453 160 356 l 265 1019 l 346 1019 l 256 444 q 239 274 239 338 q 296 112 239 160 q 472 64 353 64 q 640 92 575 64 q 750 201 704 119 q 821 444 796 283 l 911 1019 l 956 1019 q 1044 1057 1008 1019 q 1093 1179 1079 1094 l 1154 1179 z "},"Ứ":{"ha":933,"x_min":160,"x_max":1154,"o":"m 1154 1179 q 1093 1032 1139 1081 q 985 975 1047 983 l 900 436 q 813 155 871 251 q 674 25 756 58 q 467 -8 592 -8 q 235 56 311 -8 q 160 269 160 121 q 176 453 160 356 l 265 1019 l 346 1019 l 256 444 q 239 274 239 338 q 296 112 239 160 q 472 64 353 64 q 640 92 575 64 q 750 201 704 119 q 821 444 796 283 l 911 1019 l 956 1019 q 1044 1057 1008 1019 q 1093 1179 1079 1094 l 1154 1179 m 765 1286 l 839 1286 l 635 1099 l 585 1099 l 765 1286 z "},"Ự":{"ha":933,"x_min":160,"x_max":1154,"o":"m 1154 1179 q 1093 1032 1139 1081 q 985 975 1047 983 l 900 436 q 813 155 871 251 q 674 25 756 58 q 467 -8 592 -8 q 235 56 311 -8 q 160 269 160 121 q 176 453 160 356 l 265 1019 l 346 1019 l 256 444 q 239 274 239 338 q 296 112 239 160 q 472 64 353 64 q 640 92 575 64 q 750 201 704 119 q 821 444 796 283 l 911 1019 l 956 1019 q 1044 1057 1008 1019 q 1093 1179 1079 1094 l 1154 1179 m 390 -285 q 378 -280 383 -285 q 374 -268 374 -275 l 374 -265 l 390 -165 q 414 -144 392 -144 l 450 -144 q 467 -160 467 -144 l 467 -165 l 451 -265 q 444 -280 450 -275 q 428 -285 438 -285 l 390 -285 z "},"Ừ":{"ha":933,"x_min":160,"x_max":1154,"o":"m 1154 1179 q 1093 1032 1139 1081 q 985 975 1047 983 l 900 436 q 813 155 871 251 q 674 25 756 58 q 467 -8 592 -8 q 235 56 311 -8 q 160 269 160 121 q 176 453 160 356 l 265 1019 l 346 1019 l 256 444 q 239 274 239 338 q 296 112 239 160 q 472 64 353 64 q 640 92 575 64 q 750 201 704 119 q 821 444 796 283 l 911 1019 l 956 1019 q 1044 1057 1008 1019 q 1093 1179 1079 1094 l 1154 1179 m 481 1286 l 553 1286 l 676 1099 l 629 1099 l 481 1286 z "},"Ử":{"ha":933,"x_min":160,"x_max":1154,"o":"m 1154 1179 q 1093 1032 1139 1081 q 985 975 1047 983 l 900 436 q 813 155 871 251 q 674 25 756 58 q 467 -8 592 -8 q 235 56 311 -8 q 160 269 160 121 q 176 453 160 356 l 265 1019 l 346 1019 l 256 444 q 239 274 239 338 q 296 112 239 160 q 472 64 353 64 q 640 92 575 64 q 750 201 704 119 q 821 444 796 283 l 911 1019 l 956 1019 q 1044 1057 1008 1019 q 1093 1179 1079 1094 l 1154 1179 m 582 1117 q 682 1224 682 1146 q 621 1275 682 1275 q 567 1267 594 1275 l 572 1303 q 636 1313 603 1313 q 728 1229 728 1313 q 691 1140 728 1179 q 575 1078 654 1100 l 582 1117 z "},"Ữ":{"ha":933,"x_min":160,"x_max":1154,"o":"m 1154 1179 q 1093 1032 1139 1081 q 985 975 1047 983 l 900 436 q 813 155 871 251 q 674 25 756 58 q 467 -8 592 -8 q 235 56 311 -8 q 160 269 160 121 q 176 453 160 356 l 265 1019 l 346 1019 l 256 444 q 239 274 239 338 q 296 112 239 160 q 472 64 353 64 q 640 92 575 64 q 750 201 704 119 q 821 444 796 283 l 911 1019 l 956 1019 q 1044 1057 1008 1019 q 1093 1179 1079 1094 l 1154 1179 m 415 1131 q 469 1234 428 1201 q 565 1267 511 1267 q 621 1254 594 1267 q 679 1219 647 1242 q 733 1188 713 1199 q 776 1178 753 1178 q 843 1202 815 1178 q 878 1269 871 1226 l 919 1269 q 870 1167 908 1204 q 771 1131 832 1131 q 721 1142 744 1131 q 664 1175 697 1153 q 608 1208 631 1197 q 560 1219 585 1219 q 494 1197 522 1219 q 457 1131 465 1175 l 415 1131 z "},"Ű":{"ha":935,"x_min":160,"x_max":992,"o":"m 467 -8 q 235 56 311 -8 q 160 269 160 121 q 176 453 160 356 l 265 1019 l 346 1019 l 256 444 q 239 274 239 338 q 296 112 239 160 q 472 64 353 64 q 640 92 575 64 q 750 201 704 119 q 821 444 796 283 l 911 1019 l 992 1019 l 900 436 q 813 155 871 251 q 674 25 756 58 q 467 -8 592 -8 m 651 1286 l 719 1286 l 518 1099 l 471 1099 l 651 1286 m 853 1286 l 922 1286 l 721 1099 l 674 1099 l 853 1286 z "},"Ȗ":{"ha":935,"x_min":160,"x_max":992,"o":"m 467 -8 q 235 56 311 -8 q 160 269 160 121 q 176 453 160 356 l 265 1019 l 346 1019 l 256 444 q 239 274 239 338 q 296 112 239 160 q 472 64 353 64 q 640 92 575 64 q 750 201 704 119 q 821 444 796 283 l 911 1019 l 992 1019 l 900 436 q 813 155 871 251 q 674 25 756 58 q 467 -8 592 -8 m 444 1099 q 517 1247 460 1203 q 654 1292 575 1292 q 764 1257 722 1292 q 806 1147 806 1222 q 803 1099 806 1135 l 763 1099 q 765 1138 765 1126 q 733 1224 765 1196 q 649 1251 701 1251 q 542 1215 588 1251 q 485 1099 497 1178 l 444 1099 z "},"Ū":{"ha":935,"x_min":160,"x_max":992,"o":"m 467 -8 q 235 56 311 -8 q 160 269 160 121 q 176 453 160 356 l 265 1019 l 346 1019 l 256 444 q 239 274 239 338 q 296 112 239 160 q 472 64 353 64 q 640 92 575 64 q 750 201 704 119 q 821 444 796 283 l 911 1019 l 992 1019 l 900 436 q 813 155 871 251 q 674 25 756 58 q 467 -8 592 -8 m 458 1214 l 819 1214 l 811 1165 l 450 1165 l 458 1214 z "},"Ṻ":{"ha":935,"x_min":160,"x_max":992,"o":"m 467 -8 q 235 56 311 -8 q 160 269 160 121 q 176 453 160 356 l 265 1019 l 346 1019 l 256 444 q 239 274 239 338 q 296 112 239 160 q 472 64 353 64 q 640 92 575 64 q 750 201 704 119 q 821 444 796 283 l 911 1019 l 992 1019 l 900 436 q 813 155 871 251 q 674 25 756 58 q 467 -8 592 -8 m 458 1214 l 819 1214 l 811 1165 l 450 1165 l 458 1214 m 494 1325 q 478 1342 478 1325 l 493 1444 q 518 1465 497 1465 l 554 1465 q 571 1450 571 1465 l 554 1344 q 547 1330 553 1335 q 531 1325 540 1325 l 494 1325 m 779 1325 q 767 1330 772 1325 q 763 1342 763 1335 q 779 1444 763 1333 q 803 1465 781 1465 l 840 1465 q 857 1450 857 1465 q 840 1344 857 1456 q 833 1330 839 1335 q 817 1325 826 1325 l 779 1325 z "},"Ų":{"ha":935,"x_min":160,"x_max":992,"o":"m 992 1019 l 900 436 q 833 193 875 285 q 730 58 790 101 q 586 0 669 14 q 501 -65 531 -26 q 471 -135 471 -103 q 499 -193 471 -172 q 583 -214 528 -214 l 592 -214 l 585 -254 q 550 -257 563 -257 q 456 -228 490 -257 q 422 -154 422 -200 q 451 -76 422 -117 q 540 -6 481 -35 q 467 -8 493 -8 q 235 56 311 -8 q 160 269 160 121 q 176 453 160 356 l 265 1019 l 346 1019 l 256 444 q 239 274 239 338 q 296 112 239 160 q 472 64 353 64 q 640 92 575 64 q 750 201 704 119 q 821 444 796 283 l 911 1019 l 992 1019 z "},"Ů":{"ha":935,"x_min":160,"x_max":992,"o":"m 467 -8 q 235 56 311 -8 q 160 269 160 121 q 176 453 160 356 l 265 1019 l 346 1019 l 256 444 q 239 274 239 338 q 296 112 239 160 q 472 64 353 64 q 640 92 575 64 q 750 201 704 119 q 821 444 796 283 l 911 1019 l 992 1019 l 900 436 q 813 155 871 251 q 674 25 756 58 q 467 -8 592 -8 m 626 1078 q 493 1199 493 1078 q 540 1321 493 1271 q 668 1371 586 1371 q 762 1342 726 1371 q 797 1251 797 1314 q 752 1127 797 1176 q 626 1078 707 1078 m 629 1115 q 723 1153 692 1115 q 754 1249 754 1190 q 729 1314 754 1294 q 665 1333 704 1333 q 568 1295 601 1333 q 535 1200 535 1257 q 561 1135 535 1154 q 629 1115 588 1115 z "},"Ũ":{"ha":935,"x_min":160,"x_max":992,"o":"m 467 -8 q 235 56 311 -8 q 160 269 160 121 q 176 453 160 356 l 265 1019 l 346 1019 l 256 444 q 239 274 239 338 q 296 112 239 160 q 472 64 353 64 q 640 92 575 64 q 750 201 704 119 q 821 444 796 283 l 911 1019 l 992 1019 l 900 436 q 813 155 871 251 q 674 25 756 58 q 467 -8 592 -8 m 415 1131 q 469 1234 428 1201 q 565 1267 511 1267 q 621 1254 594 1267 q 679 1219 647 1242 q 733 1188 713 1199 q 776 1178 753 1178 q 843 1202 815 1178 q 878 1269 871 1226 l 919 1269 q 870 1167 908 1204 q 771 1131 832 1131 q 721 1142 744 1131 q 664 1175 697 1153 q 608 1208 631 1197 q 560 1219 585 1219 q 494 1197 522 1219 q 457 1131 465 1175 l 415 1131 z "},"Ṹ":{"ha":935,"x_min":160,"x_max":992,"o":"m 467 -8 q 235 56 311 -8 q 160 269 160 121 q 176 453 160 356 l 265 1019 l 346 1019 l 256 444 q 239 274 239 338 q 296 112 239 160 q 472 64 353 64 q 640 92 575 64 q 750 201 704 119 q 821 444 796 283 l 911 1019 l 992 1019 l 900 436 q 813 155 871 251 q 674 25 756 58 q 467 -8 592 -8 m 415 1131 q 469 1234 428 1201 q 565 1267 511 1267 q 621 1254 594 1267 q 679 1219 647 1242 q 733 1188 713 1199 q 776 1178 753 1178 q 843 1202 815 1178 q 878 1269 871 1226 l 919 1269 q 870 1167 908 1204 q 771 1131 832 1131 q 721 1142 744 1131 q 664 1175 697 1153 q 608 1208 631 1197 q 560 1219 585 1219 q 494 1197 522 1219 q 457 1131 465 1175 l 415 1131 m 807 1514 l 881 1514 l 676 1326 l 626 1326 l 807 1514 z "},"V":{"ha":931,"x_min":215,"x_max":1039,"o":"m 215 1019 l 299 1019 l 472 88 l 956 1019 l 1039 1019 l 511 0 l 406 0 l 215 1019 z "},"W":{"ha":1381,"x_min":215,"x_max":1478,"o":"m 215 1019 l 300 1019 l 428 108 l 803 1019 l 889 1019 l 961 110 l 1393 1019 l 1478 1019 l 997 0 l 906 0 l 828 906 l 451 0 l 360 0 l 215 1019 z "},"Ẃ":{"ha":1381,"x_min":215,"x_max":1478,"o":"m 215 1019 l 300 1019 l 428 108 l 803 1019 l 889 1019 l 961 110 l 1393 1019 l 1478 1019 l 997 0 l 906 0 l 828 906 l 451 0 l 360 0 l 215 1019 m 1003 1286 l 1076 1286 l 872 1099 l 822 1099 l 1003 1286 z "},"Ŵ":{"ha":1381,"x_min":215,"x_max":1478,"o":"m 215 1019 l 300 1019 l 428 108 l 803 1019 l 889 1019 l 961 110 l 1393 1019 l 1478 1019 l 997 0 l 906 0 l 828 906 l 451 0 l 360 0 l 215 1019 m 857 1283 l 915 1283 l 1044 1099 l 993 1099 l 878 1243 l 704 1099 l 653 1099 l 857 1283 z "},"Ẅ":{"ha":1381,"x_min":215,"x_max":1478,"o":"m 215 1019 l 300 1019 l 428 108 l 803 1019 l 889 1019 l 961 110 l 1393 1019 l 1478 1019 l 997 0 l 906 0 l 828 906 l 451 0 l 360 0 l 215 1019 m 682 1136 q 665 1153 665 1136 l 681 1256 q 706 1276 685 1276 l 742 1276 q 758 1261 758 1276 l 742 1156 q 734 1141 740 1146 q 718 1136 728 1136 l 682 1136 m 967 1136 q 955 1141 960 1136 q 950 1153 950 1146 q 967 1256 950 1144 q 990 1276 968 1276 l 1028 1276 q 1044 1261 1044 1276 q 1028 1156 1044 1267 q 1020 1141 1026 1146 q 1004 1136 1014 1136 l 967 1136 z "},"Ẁ":{"ha":1381,"x_min":215,"x_max":1478,"o":"m 215 1019 l 300 1019 l 428 108 l 803 1019 l 889 1019 l 961 110 l 1393 1019 l 1478 1019 l 997 0 l 906 0 l 828 906 l 451 0 l 360 0 l 215 1019 m 718 1286 l 790 1286 l 914 1099 l 867 1099 l 718 1286 z "},"X":{"ha":840,"x_min":56,"x_max":953,"o":"m 546 500 l 785 0 l 694 0 l 488 440 l 150 0 l 56 0 l 451 515 l 213 1019 l 303 1019 l 511 572 l 860 1019 l 953 1019 l 546 500 z "},"Y":{"ha":839,"x_min":197,"x_max":964,"o":"m 421 344 l 197 1019 l 286 1019 l 474 438 l 871 1019 l 964 1019 l 501 344 l 447 0 l 367 0 l 421 344 z "},"Ý":{"ha":839,"x_min":197,"x_max":964,"o":"m 421 344 l 197 1019 l 286 1019 l 474 438 l 871 1019 l 964 1019 l 501 344 l 447 0 l 367 0 l 421 344 m 715 1286 l 789 1286 l 585 1099 l 535 1099 l 715 1286 z "},"Ŷ":{"ha":839,"x_min":197,"x_max":964,"o":"m 421 344 l 197 1019 l 286 1019 l 474 438 l 871 1019 l 964 1019 l 501 344 l 447 0 l 367 0 l 421 344 m 569 1283 l 628 1283 l 757 1099 l 706 1099 l 590 1243 l 417 1099 l 365 1099 l 569 1283 z "},"Ÿ":{"ha":839,"x_min":197,"x_max":964,"o":"m 421 344 l 197 1019 l 286 1019 l 474 438 l 871 1019 l 964 1019 l 501 344 l 447 0 l 367 0 l 421 344 m 394 1136 q 378 1153 378 1136 l 393 1256 q 418 1276 397 1276 l 454 1276 q 471 1261 471 1276 l 454 1156 q 447 1141 453 1146 q 431 1136 440 1136 l 394 1136 m 679 1136 q 667 1141 672 1136 q 663 1153 663 1146 q 679 1256 663 1144 q 703 1276 681 1276 l 740 1276 q 757 1261 757 1276 q 740 1156 757 1267 q 733 1141 739 1146 q 717 1136 726 1136 l 679 1136 z "},"Ẏ":{"ha":839,"x_min":197,"x_max":964,"o":"m 421 344 l 197 1019 l 286 1019 l 474 438 l 871 1019 l 964 1019 l 501 344 l 447 0 l 367 0 l 421 344 m 326 -285 q 315 -280 319 -285 q 310 -268 310 -275 l 310 -265 l 326 -165 q 350 -144 328 -144 l 386 -144 q 403 -160 403 -144 l 403 -165 l 388 -265 q 380 -280 386 -275 q 364 -285 374 -285 l 326 -285 z "},"Ỵ":{"ha":839,"x_min":197,"x_max":964,"o":"m 421 344 l 197 1019 l 286 1019 l 474 438 l 871 1019 l 964 1019 l 501 344 l 447 0 l 367 0 l 421 344 m 326 -285 q 315 -280 319 -285 q 310 -268 310 -275 l 310 -265 l 326 -165 q 350 -144 328 -144 l 386 -144 q 403 -160 403 -144 l 403 -165 l 388 -265 q 380 -280 386 -275 q 364 -285 374 -285 l 326 -285 z "},"Ỳ":{"ha":839,"x_min":197,"x_max":964,"o":"m 421 344 l 197 1019 l 286 1019 l 474 438 l 871 1019 l 964 1019 l 501 344 l 447 0 l 367 0 l 421 344 m 431 1286 l 503 1286 l 626 1099 l 579 1099 l 431 1286 z "},"Ỷ":{"ha":839,"x_min":197,"x_max":964,"o":"m 421 344 l 197 1019 l 286 1019 l 474 438 l 871 1019 l 964 1019 l 501 344 l 447 0 l 367 0 l 421 344 m 532 1117 q 632 1224 632 1146 q 571 1275 632 1275 q 517 1267 544 1275 l 522 1303 q 586 1313 553 1313 q 678 1229 678 1313 q 641 1140 678 1179 q 525 1078 604 1100 l 532 1117 z "},"Ȳ":{"ha":839,"x_min":197,"x_max":964,"o":"m 421 344 l 197 1019 l 286 1019 l 474 438 l 871 1019 l 964 1019 l 501 344 l 447 0 l 367 0 l 421 344 m 408 1214 l 769 1214 l 761 1165 l 400 1165 l 408 1214 z "},"Ỹ":{"ha":839,"x_min":197,"x_max":964,"o":"m 421 344 l 197 1019 l 286 1019 l 474 438 l 871 1019 l 964 1019 l 501 344 l 447 0 l 367 0 l 421 344 m 365 1131 q 419 1234 378 1201 q 515 1267 461 1267 q 571 1254 544 1267 q 629 1219 597 1242 q 683 1188 663 1199 q 726 1178 703 1178 q 793 1202 765 1178 q 828 1269 821 1226 l 869 1269 q 820 1167 858 1204 q 721 1131 782 1131 q 671 1142 694 1131 q 614 1175 647 1153 q 558 1208 581 1197 q 510 1219 535 1219 q 444 1197 472 1219 q 407 1131 415 1175 l 365 1131 z "},"Z":{"ha":774,"x_min":58,"x_max":863,"o":"m 69 69 l 758 947 l 208 947 l 219 1019 l 863 1019 l 851 950 l 163 72 l 726 72 l 715 0 l 58 0 l 69 69 z "},"Ź":{"ha":774,"x_min":58,"x_max":863,"o":"m 69 69 l 758 947 l 208 947 l 219 1019 l 863 1019 l 851 950 l 163 72 l 726 72 l 715 0 l 58 0 l 69 69 m 682 1286 l 756 1286 l 551 1099 l 501 1099 l 682 1286 z "},"Ž":{"ha":774,"x_min":58,"x_max":863,"o":"m 69 69 l 758 947 l 208 947 l 219 1019 l 863 1019 l 851 950 l 163 72 l 726 72 l 715 0 l 58 0 l 69 69 m 401 1283 l 453 1283 l 567 1139 l 743 1283 l 793 1283 l 589 1099 l 531 1099 l 401 1283 z "},"Ż":{"ha":774,"x_min":58,"x_max":863,"o":"m 69 69 l 758 947 l 208 947 l 219 1019 l 863 1019 l 851 950 l 163 72 l 726 72 l 715 0 l 58 0 l 69 69 m 529 1146 q 517 1151 522 1146 q 513 1163 513 1156 l 513 1165 l 529 1265 q 553 1286 531 1286 l 589 1286 q 606 1271 606 1286 l 606 1265 l 590 1165 q 583 1151 589 1156 q 567 1146 576 1146 l 529 1146 z "},"Ẓ":{"ha":774,"x_min":58,"x_max":863,"o":"m 69 69 l 758 947 l 208 947 l 219 1019 l 863 1019 l 851 950 l 163 72 l 726 72 l 715 0 l 58 0 l 69 69 m 293 -285 q 281 -280 286 -285 q 276 -268 276 -275 l 276 -265 l 293 -165 q 317 -144 294 -144 l 353 -144 q 369 -160 369 -144 l 369 -165 l 354 -265 q 347 -280 353 -275 q 331 -285 340 -285 l 293 -285 z "},"a":{"ha":781,"x_min":121,"x_max":786,"o":"m 344 -8 q 183 53 244 -8 q 121 240 121 115 q 135 381 121 300 q 252 660 164 572 q 513 749 340 749 q 665 728 589 749 q 786 668 742 708 l 681 0 l 614 0 l 613 81 q 494 22 575 53 q 344 -8 413 -8 m 371 60 q 492 78 436 60 q 621 133 547 97 l 700 635 q 619 666 671 651 q 507 681 568 681 q 353 648 411 681 q 264 548 296 615 q 213 367 232 481 q 201 251 201 286 q 247 108 201 156 q 371 60 292 60 z "},"á":{"ha":781,"x_min":121,"x_max":786,"o":"m 344 -8 q 183 53 244 -8 q 121 240 121 115 q 135 381 121 300 q 252 660 164 572 q 513 749 340 749 q 665 728 589 749 q 786 668 742 708 l 681 0 l 614 0 l 613 81 q 494 22 575 53 q 344 -8 413 -8 m 371 60 q 492 78 436 60 q 621 133 547 97 l 700 635 q 619 666 671 651 q 507 681 568 681 q 353 648 411 681 q 264 548 296 615 q 213 367 232 481 q 201 251 201 286 q 247 108 201 156 q 371 60 292 60 m 679 1064 l 753 1064 l 549 876 l 499 876 l 679 1064 z "},"ă":{"ha":781,"x_min":121,"x_max":786,"o":"m 344 -8 q 183 53 244 -8 q 121 240 121 115 q 135 381 121 300 q 252 660 164 572 q 513 749 340 749 q 665 728 589 749 q 786 668 742 708 l 681 0 l 614 0 l 613 81 q 494 22 575 53 q 344 -8 413 -8 m 371 60 q 492 78 436 60 q 621 133 547 97 l 700 635 q 619 666 671 651 q 507 681 568 681 q 353 648 411 681 q 264 548 296 615 q 213 367 232 481 q 201 251 201 286 q 247 108 201 156 q 371 60 292 60 m 535 875 q 425 910 467 875 q 383 1019 383 944 q 386 1068 383 1032 l 426 1068 q 424 1029 424 1040 q 456 943 424 971 q 538 915 488 915 q 647 951 601 915 q 704 1068 692 988 l 744 1068 q 672 919 729 964 q 535 875 614 875 z "},"ắ":{"ha":781,"x_min":121,"x_max":786,"o":"m 344 -8 q 183 53 244 -8 q 121 240 121 115 q 135 381 121 300 q 252 660 164 572 q 513 749 340 749 q 665 728 589 749 q 786 668 742 708 l 681 0 l 614 0 l 613 81 q 494 22 575 53 q 344 -8 413 -8 m 371 60 q 492 78 436 60 q 621 133 547 97 l 700 635 q 619 666 671 651 q 507 681 568 681 q 353 648 411 681 q 264 548 296 615 q 213 367 232 481 q 201 251 201 286 q 247 108 201 156 q 371 60 292 60 m 679 1211 l 753 1211 l 549 1024 l 499 1024 l 679 1211 m 510 869 q 396 899 440 869 q 351 990 351 928 q 354 1021 351 999 l 394 1021 q 393 999 393 1013 q 426 930 393 953 q 511 907 460 907 q 615 932 567 907 q 672 1021 663 957 l 713 1021 q 644 904 700 939 q 510 869 589 869 z "},"ặ":{"ha":781,"x_min":121,"x_max":786,"o":"m 344 -8 q 183 53 244 -8 q 121 240 121 115 q 135 381 121 300 q 252 660 164 572 q 513 749 340 749 q 665 728 589 749 q 786 668 742 708 l 681 0 l 614 0 l 613 81 q 494 22 575 53 q 344 -8 413 -8 m 371 60 q 492 78 436 60 q 621 133 547 97 l 700 635 q 619 666 671 651 q 507 681 568 681 q 353 648 411 681 q 264 548 296 615 q 213 367 232 481 q 201 251 201 286 q 247 108 201 156 q 371 60 292 60 m 535 875 q 425 910 467 875 q 383 1019 383 944 q 386 1068 383 1032 l 426 1068 q 424 1029 424 1040 q 456 943 424 971 q 538 915 488 915 q 647 951 601 915 q 704 1068 692 988 l 744 1068 q 672 919 729 964 q 535 875 614 875 m 318 -285 q 306 -280 311 -285 q 301 -268 301 -275 l 301 -265 l 318 -165 q 342 -144 319 -144 l 378 -144 q 394 -160 394 -144 l 394 -165 l 379 -265 q 372 -280 378 -275 q 356 -285 365 -285 l 318 -285 z "},"ằ":{"ha":781,"x_min":121,"x_max":786,"o":"m 344 -8 q 183 53 244 -8 q 121 240 121 115 q 135 381 121 300 q 252 660 164 572 q 513 749 340 749 q 665 728 589 749 q 786 668 742 708 l 681 0 l 614 0 l 613 81 q 494 22 575 53 q 344 -8 413 -8 m 371 60 q 492 78 436 60 q 621 133 547 97 l 700 635 q 619 666 671 651 q 507 681 568 681 q 353 648 411 681 q 264 548 296 615 q 213 367 232 481 q 201 251 201 286 q 247 108 201 156 q 371 60 292 60 m 389 1211 l 461 1211 l 585 1024 l 538 1024 l 389 1211 m 510 869 q 396 899 440 869 q 351 990 351 928 q 354 1021 351 999 l 394 1021 q 393 999 393 1013 q 426 930 393 953 q 511 907 460 907 q 617 931 571 907 q 672 1021 663 956 l 713 1021 q 644 904 700 939 q 510 869 589 869 z "},"ẳ":{"ha":781,"x_min":121,"x_max":786,"o":"m 344 -8 q 183 53 244 -8 q 121 240 121 115 q 135 381 121 300 q 252 660 164 572 q 513 749 340 749 q 665 728 589 749 q 786 668 742 708 l 681 0 l 614 0 l 613 81 q 494 22 575 53 q 344 -8 413 -8 m 371 60 q 492 78 436 60 q 621 133 547 97 l 700 635 q 619 666 671 651 q 507 681 568 681 q 353 648 411 681 q 264 548 296 615 q 213 367 232 481 q 201 251 201 286 q 247 108 201 156 q 371 60 292 60 m 504 1006 q 604 1113 604 1035 q 543 1164 604 1164 q 489 1156 515 1164 l 494 1192 q 558 1201 525 1201 q 650 1118 650 1201 q 613 1028 650 1068 q 497 967 576 989 l 504 1006 m 510 869 q 396 899 440 869 q 351 990 351 928 q 354 1021 351 999 l 394 1021 q 393 999 393 1013 q 426 930 393 953 q 511 907 460 907 q 616 931 569 907 q 672 1021 663 956 l 713 1021 q 644 904 700 939 q 510 869 589 869 z "},"ẵ":{"ha":781,"x_min":121,"x_max":799,"o":"m 344 -8 q 183 53 244 -8 q 121 240 121 115 q 135 381 121 300 q 252 660 164 572 q 513 749 340 749 q 665 728 589 749 q 786 668 742 708 l 681 0 l 614 0 l 613 81 q 494 22 575 53 q 344 -8 413 -8 m 371 60 q 492 78 436 60 q 621 133 547 97 l 700 635 q 619 666 671 651 q 507 681 568 681 q 353 648 411 681 q 264 548 296 615 q 213 367 232 481 q 201 251 201 286 q 247 108 201 156 q 371 60 292 60 m 332 1069 q 381 1152 343 1128 q 467 1176 418 1176 q 519 1168 496 1176 q 574 1143 542 1160 q 626 1119 607 1126 q 667 1113 644 1113 q 726 1130 701 1113 q 757 1179 751 1147 l 799 1179 q 752 1098 788 1126 q 661 1069 717 1069 q 615 1077 636 1069 q 560 1101 594 1085 q 509 1125 531 1117 q 463 1133 488 1133 q 404 1117 429 1133 q 374 1069 379 1101 l 332 1069 m 518 869 q 404 898 449 869 q 360 989 360 926 q 364 1021 360 1004 l 404 1021 q 403 999 403 1013 q 435 930 403 953 q 519 907 468 907 q 626 931 582 907 q 681 1021 671 956 l 722 1021 q 653 904 708 939 q 518 869 597 869 z "},"â":{"ha":781,"x_min":121,"x_max":786,"o":"m 344 -8 q 183 53 244 -8 q 121 240 121 115 q 135 381 121 300 q 252 660 164 572 q 513 749 340 749 q 665 728 589 749 q 786 668 742 708 l 681 0 l 614 0 l 613 81 q 494 22 575 53 q 344 -8 413 -8 m 371 60 q 492 78 436 60 q 621 133 547 97 l 700 635 q 619 666 671 651 q 507 681 568 681 q 353 648 411 681 q 264 548 296 615 q 213 367 232 481 q 201 251 201 286 q 247 108 201 156 q 371 60 292 60 m 544 1061 l 603 1061 l 732 876 l 681 876 l 565 1021 l 392 876 l 340 876 l 544 1061 z "},"ấ":{"ha":781,"x_min":121,"x_max":894,"o":"m 344 -8 q 183 53 244 -8 q 121 240 121 115 q 135 381 121 300 q 252 660 164 572 q 513 749 340 749 q 665 728 589 749 q 786 668 742 708 l 681 0 l 614 0 l 613 81 q 494 22 575 53 q 344 -8 413 -8 m 371 60 q 492 78 436 60 q 621 133 547 97 l 700 635 q 619 666 671 651 q 507 681 568 681 q 353 648 411 681 q 264 548 296 615 q 213 367 232 481 q 201 251 201 286 q 247 108 201 156 q 371 60 292 60 m 825 1161 l 894 1161 l 701 979 l 657 979 l 825 1161 m 517 1008 l 575 1008 l 714 876 l 663 876 l 539 968 l 372 876 l 322 876 l 517 1008 z "},"ậ":{"ha":781,"x_min":121,"x_max":786,"o":"m 344 -8 q 183 53 244 -8 q 121 240 121 115 q 135 381 121 300 q 252 660 164 572 q 513 749 340 749 q 665 728 589 749 q 786 668 742 708 l 681 0 l 614 0 l 613 81 q 494 22 575 53 q 344 -8 413 -8 m 371 60 q 492 78 436 60 q 621 133 547 97 l 700 635 q 619 666 671 651 q 507 681 568 681 q 353 648 411 681 q 264 548 296 615 q 213 367 232 481 q 201 251 201 286 q 247 108 201 156 q 371 60 292 60 m 544 1061 l 603 1061 l 732 876 l 681 876 l 565 1021 l 392 876 l 340 876 l 544 1061 m 318 -285 q 306 -280 311 -285 q 301 -268 301 -275 l 301 -265 l 318 -165 q 342 -144 319 -144 l 378 -144 q 394 -160 394 -144 l 394 -165 l 379 -265 q 372 -280 378 -275 q 356 -285 365 -285 l 318 -285 z "},"ầ":{"ha":781,"x_min":121,"x_max":786,"o":"m 344 -8 q 183 53 244 -8 q 121 240 121 115 q 135 381 121 300 q 252 660 164 572 q 513 749 340 749 q 665 728 589 749 q 786 668 742 708 l 681 0 l 614 0 l 613 81 q 494 22 575 53 q 344 -8 413 -8 m 371 60 q 492 78 436 60 q 621 133 547 97 l 700 635 q 619 666 671 651 q 507 681 568 681 q 353 648 411 681 q 264 548 296 615 q 213 367 232 481 q 201 251 201 286 q 247 108 201 156 q 371 60 292 60 m 244 1161 l 313 1161 l 424 979 l 379 979 l 244 1161 m 508 1008 l 567 1008 l 704 876 l 654 876 l 531 968 l 364 876 l 313 876 l 508 1008 z "},"ẩ":{"ha":781,"x_min":121,"x_max":822,"o":"m 344 -8 q 183 53 244 -8 q 121 240 121 115 q 135 381 121 300 q 252 660 164 572 q 513 749 340 749 q 665 728 589 749 q 786 668 742 708 l 681 0 l 614 0 l 613 81 q 494 22 575 53 q 344 -8 413 -8 m 371 60 q 492 78 436 60 q 621 133 547 97 l 700 635 q 619 666 671 651 q 507 681 568 681 q 353 648 411 681 q 264 548 296 615 q 213 367 232 481 q 201 251 201 286 q 247 108 201 156 q 371 60 292 60 m 688 983 q 778 1075 778 1013 q 721 1117 778 1117 q 669 1108 692 1117 l 675 1144 q 736 1154 704 1154 q 801 1135 779 1154 q 822 1082 822 1117 q 788 1002 822 1038 q 682 947 754 967 l 688 983 m 521 1008 l 579 1008 l 718 876 l 667 876 l 543 968 l 378 876 l 326 876 l 521 1008 z "},"ẫ":{"ha":781,"x_min":121,"x_max":799,"o":"m 344 -8 q 183 53 244 -8 q 121 240 121 115 q 135 381 121 300 q 252 660 164 572 q 513 749 340 749 q 665 728 589 749 q 786 668 742 708 l 681 0 l 614 0 l 613 81 q 494 22 575 53 q 344 -8 413 -8 m 371 60 q 492 78 436 60 q 621 133 547 97 l 700 635 q 619 666 671 651 q 507 681 568 681 q 353 648 411 681 q 264 548 296 615 q 213 367 232 481 q 201 251 201 286 q 247 108 201 156 q 371 60 292 60 m 333 1075 q 381 1158 344 1133 q 467 1182 418 1182 q 519 1174 496 1182 q 575 1147 542 1165 q 622 1126 601 1133 q 665 1118 643 1118 q 726 1135 701 1118 q 757 1185 751 1153 l 799 1185 q 753 1103 788 1132 q 663 1075 718 1075 q 613 1083 636 1075 q 558 1108 590 1092 q 506 1131 526 1124 q 463 1139 486 1139 q 405 1123 429 1139 q 375 1075 381 1107 l 333 1075 m 522 1008 l 581 1008 l 718 876 l 667 876 l 543 968 l 376 876 l 326 876 l 522 1008 z "},"ȁ":{"ha":781,"x_min":121,"x_max":786,"o":"m 344 -8 q 183 53 244 -8 q 121 240 121 115 q 135 381 121 300 q 252 660 164 572 q 513 749 340 749 q 665 728 589 749 q 786 668 742 708 l 681 0 l 614 0 l 613 81 q 494 22 575 53 q 344 -8 413 -8 m 371 60 q 492 78 436 60 q 621 133 547 97 l 700 635 q 619 666 671 651 q 507 681 568 681 q 353 648 411 681 q 264 548 296 615 q 213 367 232 481 q 201 251 201 286 q 247 108 201 156 q 371 60 292 60 m 296 1064 l 368 1064 l 492 876 l 444 876 l 296 1064 m 485 1064 l 557 1064 l 681 876 l 633 876 l 485 1064 z "},"ä":{"ha":781,"x_min":121,"x_max":786,"o":"m 344 -8 q 183 53 244 -8 q 121 240 121 115 q 135 381 121 300 q 252 660 164 572 q 513 749 340 749 q 665 728 589 749 q 786 668 742 708 l 681 0 l 614 0 l 613 81 q 494 22 575 53 q 344 -8 413 -8 m 371 60 q 492 78 436 60 q 621 133 547 97 l 700 635 q 619 666 671 651 q 507 681 568 681 q 353 648 411 681 q 264 548 296 615 q 213 367 232 481 q 201 251 201 286 q 247 108 201 156 q 371 60 292 60 m 358 914 q 342 931 342 914 l 357 1033 q 382 1054 361 1054 l 418 1054 q 435 1039 435 1054 l 418 933 q 410 919 417 924 q 394 914 404 914 l 358 914 m 643 914 q 631 919 636 914 q 626 931 626 924 q 643 1033 626 922 q 667 1054 644 1054 l 704 1054 q 721 1039 721 1054 q 704 933 721 1044 q 697 919 703 924 q 681 914 690 914 l 643 914 z "},"ạ":{"ha":781,"x_min":121,"x_max":786,"o":"m 344 -8 q 183 53 244 -8 q 121 240 121 115 q 135 381 121 300 q 252 660 164 572 q 513 749 340 749 q 665 728 589 749 q 786 668 742 708 l 681 0 l 614 0 l 613 81 q 494 22 575 53 q 344 -8 413 -8 m 371 60 q 492 78 436 60 q 621 133 547 97 l 700 635 q 619 666 671 651 q 507 681 568 681 q 353 648 411 681 q 264 548 296 615 q 213 367 232 481 q 201 251 201 286 q 247 108 201 156 q 371 60 292 60 m 318 -285 q 306 -280 311 -285 q 301 -268 301 -275 l 301 -265 l 318 -165 q 342 -144 319 -144 l 378 -144 q 394 -160 394 -144 l 394 -165 l 379 -265 q 372 -280 378 -275 q 356 -285 365 -285 l 318 -285 z "},"à":{"ha":781,"x_min":121,"x_max":786,"o":"m 344 -8 q 183 53 244 -8 q 121 240 121 115 q 135 381 121 300 q 252 660 164 572 q 513 749 340 749 q 665 728 589 749 q 786 668 742 708 l 681 0 l 614 0 l 613 81 q 494 22 575 53 q 344 -8 413 -8 m 371 60 q 492 78 436 60 q 621 133 547 97 l 700 635 q 619 666 671 651 q 507 681 568 681 q 353 648 411 681 q 264 548 296 615 q 213 367 232 481 q 201 251 201 286 q 247 108 201 156 q 371 60 292 60 m 392 1064 l 464 1064 l 588 876 l 540 876 l 392 1064 z "},"ả":{"ha":781,"x_min":121,"x_max":786,"o":"m 344 -8 q 183 53 244 -8 q 121 240 121 115 q 135 381 121 300 q 252 660 164 572 q 513 749 340 749 q 665 728 589 749 q 786 668 742 708 l 681 0 l 614 0 l 613 81 q 494 22 575 53 q 344 -8 413 -8 m 371 60 q 492 78 436 60 q 621 133 547 97 l 700 635 q 619 666 671 651 q 507 681 568 681 q 353 648 411 681 q 264 548 296 615 q 213 367 232 481 q 201 251 201 286 q 247 108 201 156 q 371 60 292 60 m 507 881 q 607 988 607 910 q 546 1039 607 1039 q 492 1031 519 1039 l 497 1067 q 561 1076 528 1076 q 653 993 653 1076 q 616 903 653 943 q 500 842 579 864 l 507 881 z "},"ȃ":{"ha":781,"x_min":121,"x_max":786,"o":"m 344 -8 q 183 53 244 -8 q 121 240 121 115 q 135 381 121 300 q 252 660 164 572 q 513 749 340 749 q 665 728 589 749 q 786 668 742 708 l 681 0 l 614 0 l 613 81 q 494 22 575 53 q 344 -8 413 -8 m 371 60 q 492 78 436 60 q 621 133 547 97 l 700 635 q 619 666 671 651 q 507 681 568 681 q 353 648 411 681 q 264 548 296 615 q 213 367 232 481 q 201 251 201 286 q 247 108 201 156 q 371 60 292 60 m 344 876 q 417 1025 360 981 q 554 1069 475 1069 q 664 1035 622 1069 q 706 925 706 1000 q 703 876 706 913 l 663 876 q 665 915 665 904 q 633 1001 665 974 q 549 1029 601 1029 q 442 992 488 1029 q 385 876 397 956 l 344 876 z "},"ā":{"ha":781,"x_min":121,"x_max":786,"o":"m 344 -8 q 183 53 244 -8 q 121 240 121 115 q 135 381 121 300 q 252 660 164 572 q 513 749 340 749 q 665 728 589 749 q 786 668 742 708 l 681 0 l 614 0 l 613 81 q 494 22 575 53 q 344 -8 413 -8 m 371 60 q 492 78 436 60 q 621 133 547 97 l 700 635 q 619 666 671 651 q 507 681 568 681 q 353 648 411 681 q 264 548 296 615 q 213 367 232 481 q 201 251 201 286 q 247 108 201 156 q 371 60 292 60 m 372 992 l 733 992 l 725 943 l 364 943 l 372 992 z "},"ą":{"ha":781,"x_min":121,"x_max":786,"o":"m 565 -135 q 594 -193 565 -172 q 678 -214 622 -214 l 686 -214 l 679 -254 q 644 -257 657 -257 q 551 -228 585 -257 q 517 -154 517 -200 q 549 -72 517 -114 q 647 0 581 -29 l 614 0 l 613 81 q 494 22 575 53 q 344 -8 413 -8 q 183 53 244 -8 q 121 240 121 115 q 135 381 121 300 q 252 660 164 572 q 513 749 340 749 q 665 728 589 749 q 786 668 742 708 l 681 0 q 595 -65 625 -26 q 565 -135 565 -103 m 700 635 q 619 666 671 651 q 507 681 568 681 q 353 648 411 681 q 264 548 296 615 q 213 367 232 481 q 201 251 201 286 q 247 108 201 156 q 371 60 292 60 q 492 78 436 60 q 621 133 547 97 l 700 635 z "},"å":{"ha":781,"x_min":121,"x_max":786,"o":"m 344 -8 q 183 53 244 -8 q 121 240 121 115 q 135 381 121 300 q 252 660 164 572 q 513 749 340 749 q 665 728 589 749 q 786 668 742 708 l 681 0 l 614 0 l 613 81 q 494 22 575 53 q 344 -8 413 -8 m 371 60 q 492 78 436 60 q 621 133 547 97 l 700 635 q 619 666 671 651 q 507 681 568 681 q 353 648 411 681 q 264 548 296 615 q 213 367 232 481 q 201 251 201 286 q 247 108 201 156 q 371 60 292 60 m 540 828 q 407 949 407 828 q 453 1071 407 1021 q 582 1121 500 1121 q 676 1092 640 1121 q 711 1001 711 1064 q 666 877 711 926 q 540 828 621 828 m 543 865 q 637 903 606 865 q 668 999 668 940 q 643 1064 668 1044 q 579 1083 618 1083 q 482 1045 515 1083 q 449 950 449 1007 q 475 885 449 904 q 543 865 501 865 z "},"ǻ":{"ha":781,"x_min":121,"x_max":818,"o":"m 344 -8 q 183 53 244 -8 q 121 240 121 115 q 135 381 121 300 q 252 660 164 572 q 513 749 340 749 q 665 728 589 749 q 786 668 742 708 l 681 0 l 614 0 l 613 81 q 494 22 575 53 q 344 -8 413 -8 m 371 60 q 492 78 436 60 q 621 133 547 97 l 700 635 q 619 666 671 651 q 507 681 568 681 q 353 648 411 681 q 264 548 296 615 q 213 367 232 481 q 201 251 201 286 q 247 108 201 156 q 371 60 292 60 m 540 828 q 407 949 407 828 q 453 1071 407 1021 q 582 1121 500 1121 q 676 1092 640 1121 q 711 1001 711 1064 q 666 877 711 926 q 540 828 621 828 m 543 865 q 637 903 606 865 q 668 999 668 940 q 643 1064 668 1044 q 579 1083 618 1083 q 482 1045 515 1083 q 449 950 449 1007 q 475 885 449 904 q 543 865 501 865 m 744 1342 l 818 1342 l 614 1154 l 564 1154 l 744 1342 z "},"ã":{"ha":781,"x_min":121,"x_max":819,"o":"m 344 -8 q 183 53 244 -8 q 121 240 121 115 q 135 381 121 300 q 252 660 164 572 q 513 749 340 749 q 665 728 589 749 q 786 668 742 708 l 681 0 l 614 0 l 613 81 q 494 22 575 53 q 344 -8 413 -8 m 371 60 q 492 78 436 60 q 621 133 547 97 l 700 635 q 619 666 671 651 q 507 681 568 681 q 353 648 411 681 q 264 548 296 615 q 213 367 232 481 q 201 251 201 286 q 247 108 201 156 q 371 60 292 60 m 315 908 q 369 1012 328 979 q 465 1044 411 1044 q 522 1032 496 1044 q 579 997 547 1019 q 633 966 613 976 q 676 956 653 956 q 743 980 715 956 q 778 1047 771 1004 l 819 1047 q 770 945 808 982 q 671 908 732 908 q 621 919 644 908 q 564 953 597 931 q 508 986 531 975 q 460 997 485 997 q 394 975 422 997 q 357 908 365 953 l 315 908 z "},"æ":{"ha":1256,"x_min":124,"x_max":1265,"o":"m 339 -8 q 181 52 239 -8 q 124 240 124 113 q 217 608 124 467 q 511 749 311 749 q 646 730 574 749 q 763 678 718 711 q 868 734 803 715 q 1004 753 933 753 q 1199 700 1133 753 q 1265 542 1265 647 q 1176 377 1265 439 q 935 315 1088 315 q 791 323 861 315 q 703 339 721 331 q 697 246 697 293 q 738 102 697 149 q 883 56 778 56 l 1168 56 l 1160 6 q 863 -8 1039 -8 q 718 26 775 -8 q 639 119 661 61 q 499 31 581 69 q 339 -8 418 -8 m 906 368 q 1113 410 1039 368 q 1188 533 1188 451 q 1142 647 1188 607 q 1013 688 1097 688 q 845 653 906 688 q 756 555 785 618 q 708 382 728 492 q 764 375 710 382 q 906 368 818 368 m 356 60 q 501 95 426 60 q 625 178 575 131 q 618 246 618 210 q 642 450 618 347 q 718 626 667 553 q 626 664 679 647 q 515 681 572 681 q 274 556 344 681 q 204 253 204 432 q 356 60 204 60 z "},"ǽ":{"ha":1256,"x_min":124,"x_max":1265,"o":"m 339 -8 q 181 52 239 -8 q 124 240 124 113 q 217 608 124 467 q 511 749 311 749 q 646 730 574 749 q 763 678 718 711 q 868 734 803 715 q 1004 753 933 753 q 1199 700 1133 753 q 1265 542 1265 647 q 1176 377 1265 439 q 935 315 1088 315 q 791 323 861 315 q 703 339 721 331 q 697 246 697 293 q 738 102 697 149 q 883 56 778 56 l 1168 56 l 1160 6 q 863 -8 1039 -8 q 718 26 775 -8 q 639 119 661 61 q 499 31 581 69 q 339 -8 418 -8 m 906 368 q 1113 410 1039 368 q 1188 533 1188 451 q 1142 647 1188 607 q 1013 688 1097 688 q 845 653 906 688 q 756 555 785 618 q 708 382 728 492 q 764 375 710 382 q 906 368 818 368 m 356 60 q 501 95 426 60 q 625 178 575 131 q 618 246 618 210 q 642 450 618 347 q 718 626 667 553 q 626 664 679 647 q 515 681 572 681 q 274 556 344 681 q 204 253 204 432 q 356 60 204 60 m 914 1064 l 988 1064 l 783 876 l 733 876 l 914 1064 z "},"b":{"ha":788,"x_min":101,"x_max":781,"o":"m 446 -8 q 313 17 382 -8 q 194 76 243 42 l 167 0 l 101 0 l 269 1060 l 350 1060 l 288 668 q 427 727 351 706 q 558 749 503 749 q 720 685 660 749 q 781 503 781 622 q 767 344 781 444 q 658 86 742 181 q 446 -8 575 -8 m 429 60 q 601 136 539 60 q 689 365 664 213 q 700 492 700 443 q 656 635 700 589 q 536 681 611 681 q 278 611 426 681 l 203 129 q 310 78 257 97 q 429 60 364 60 z "},"ḃ":{"ha":788,"x_min":101,"x_max":781,"o":"m 446 -8 q 313 17 382 -8 q 194 76 243 42 l 167 0 l 101 0 l 269 1060 l 350 1060 l 288 668 q 427 727 351 706 q 558 749 503 749 q 720 685 660 749 q 781 503 781 622 q 767 344 781 444 q 658 86 742 181 q 446 -8 575 -8 m 429 60 q 601 136 539 60 q 689 365 664 213 q 700 492 700 443 q 656 635 700 589 q 536 681 611 681 q 278 611 426 681 l 203 129 q 310 78 257 97 q 429 60 364 60 m 317 1201 q 305 1206 310 1201 q 300 1218 300 1211 l 300 1221 l 317 1321 q 340 1342 318 1342 l 376 1342 q 393 1326 393 1342 l 393 1321 l 378 1221 q 370 1206 376 1211 q 354 1201 364 1201 l 317 1201 z "},"c":{"ha":669,"x_min":122,"x_max":718,"o":"m 381 -8 q 188 49 254 -8 q 122 257 122 107 q 136 386 122 303 q 252 662 165 575 q 479 749 339 749 q 718 732 574 749 l 708 683 l 490 683 q 310 613 379 683 q 214 367 242 542 q 203 263 203 297 q 251 101 203 144 q 403 57 299 57 l 626 57 l 619 8 q 381 -8 503 -8 z "},"ć":{"ha":669,"x_min":122,"x_max":718,"o":"m 381 -8 q 188 49 254 -8 q 122 257 122 107 q 136 386 122 303 q 252 662 165 575 q 479 749 339 749 q 718 732 574 749 l 708 683 l 490 683 q 310 613 379 683 q 214 367 242 542 q 203 263 203 297 q 251 101 203 144 q 403 57 299 57 l 626 57 l 619 8 q 381 -8 503 -8 m 640 1064 l 714 1064 l 510 876 l 460 876 l 640 1064 z "},"č":{"ha":669,"x_min":122,"x_max":738,"o":"m 381 -8 q 188 49 254 -8 q 122 257 122 107 q 136 386 122 303 q 252 662 165 575 q 479 749 339 749 q 718 732 574 749 l 708 683 l 490 683 q 310 613 379 683 q 214 367 242 542 q 203 263 203 297 q 251 101 203 144 q 403 57 299 57 l 626 57 l 619 8 q 381 -8 503 -8 m 346 1061 l 397 1061 l 511 917 l 688 1061 l 738 1061 l 533 876 l 475 876 l 346 1061 z "},"ç":{"ha":669,"x_min":122,"x_max":718,"o":"m 490 683 q 310 613 379 683 q 214 367 242 542 q 203 263 203 297 q 251 101 203 144 q 403 57 299 57 l 626 57 l 619 8 q 381 -8 503 -8 l 364 -8 l 297 -89 q 388 -160 388 -93 q 370 -210 388 -183 q 320 -253 353 -236 q 242 -271 288 -271 l 203 -271 l 208 -237 l 242 -235 q 311 -205 286 -231 q 336 -156 336 -179 q 316 -119 336 -132 q 244 -104 296 -106 l 326 -6 q 175 65 228 4 q 122 257 122 125 q 136 386 122 303 q 252 662 165 575 q 479 749 339 749 q 718 732 574 749 l 708 683 l 490 683 z "},"ḉ":{"ha":669,"x_min":122,"x_max":718,"o":"m 510 876 l 460 876 l 640 1064 l 714 1064 l 510 876 m 490 683 q 310 613 379 683 q 214 367 242 542 q 203 263 203 297 q 251 101 203 144 q 403 57 299 57 l 626 57 l 619 8 q 381 -8 503 -8 l 364 -8 l 297 -89 q 388 -160 388 -93 q 370 -210 388 -183 q 320 -253 353 -236 q 242 -271 288 -271 l 203 -271 l 208 -237 l 242 -235 q 311 -205 286 -231 q 336 -156 336 -179 q 316 -119 336 -132 q 244 -104 296 -106 l 326 -6 q 175 65 228 4 q 122 257 122 125 q 136 386 122 303 q 252 662 165 575 q 479 749 339 749 q 718 732 574 749 l 708 683 l 490 683 z "},"ĉ":{"ha":669,"x_min":122,"x_max":718,"o":"m 381 -8 q 188 49 254 -8 q 122 257 122 107 q 136 386 122 303 q 252 662 165 575 q 479 749 339 749 q 718 732 574 749 l 708 683 l 490 683 q 310 613 379 683 q 214 367 242 542 q 203 263 203 297 q 251 101 203 144 q 403 57 299 57 l 626 57 l 619 8 q 381 -8 503 -8 m 506 1061 l 564 1061 l 693 876 l 642 876 l 526 1021 l 353 876 l 301 876 l 506 1061 z "},"ċ":{"ha":669,"x_min":122,"x_max":718,"o":"m 381 -8 q 188 49 254 -8 q 122 257 122 107 q 136 386 122 303 q 252 662 165 575 q 479 749 339 749 q 718 732 574 749 l 708 683 l 490 683 q 310 613 379 683 q 214 367 242 542 q 203 263 203 297 q 251 101 203 144 q 403 57 299 57 l 626 57 l 619 8 q 381 -8 503 -8 m 479 924 q 467 928 472 924 q 463 940 463 933 l 463 943 l 479 1043 q 503 1064 481 1064 l 539 1064 q 556 1049 556 1064 l 556 1043 l 540 943 q 533 928 539 933 q 517 924 526 924 l 479 924 z "},"d":{"ha":783,"x_min":122,"x_max":850,"o":"m 340 -8 q 182 55 242 -8 q 122 235 122 118 q 136 385 122 311 q 197 585 160 507 q 309 706 235 663 q 507 749 383 749 q 713 704 625 749 l 769 1060 l 850 1060 l 682 0 l 615 0 l 615 81 q 485 17 557 43 q 340 -8 414 -8 m 365 60 q 494 79 432 60 q 622 133 556 99 l 701 635 q 613 669 658 658 q 507 681 567 681 q 354 648 411 681 q 267 549 297 615 q 215 368 236 483 q 203 250 203 301 q 248 106 203 151 q 365 60 293 60 z "},"ð":{"ha":783,"x_min":124,"x_max":861,"o":"m 675 947 q 786 614 786 833 q 765 361 786 503 q 699 137 743 217 q 582 24 656 57 q 390 -8 508 -8 q 193 50 263 -8 q 124 240 124 108 q 133 369 124 306 q 200 597 157 517 q 313 710 243 678 q 496 743 383 743 q 719 624 664 743 q 607 921 718 829 l 390 839 l 382 871 l 575 944 q 338 1001 488 999 l 347 1060 q 647 971 539 1057 l 854 1050 l 861 1018 l 675 947 m 683 367 q 694 490 694 438 q 647 633 694 590 q 496 676 600 676 q 353 650 407 676 q 267 555 300 624 q 213 354 235 486 q 203 243 203 279 q 253 99 203 138 q 401 60 304 60 q 541 83 488 60 q 629 173 594 107 q 683 367 664 239 z "},"ď":{"ha":783,"x_min":122,"x_max":1010,"o":"m 340 -8 q 182 55 242 -8 q 122 235 122 118 q 136 385 122 311 q 197 585 160 507 q 309 706 235 663 q 507 749 383 749 q 713 704 625 749 l 769 1060 l 850 1060 l 682 0 l 615 0 l 615 81 q 485 17 557 43 q 340 -8 414 -8 m 365 60 q 494 79 432 60 q 622 133 556 99 l 701 635 q 613 669 658 658 q 507 681 567 681 q 354 648 411 681 q 267 549 297 615 q 215 368 236 483 q 203 250 203 301 q 248 106 203 151 q 365 60 293 60 m 919 1003 l 933 1096 l 1010 1096 l 996 1003 l 954 790 l 899 790 l 919 1003 z "},"đ":{"ha":792,"x_min":122,"x_max":928,"o":"m 921 879 l 821 879 l 682 0 l 615 0 l 615 81 q 485 17 557 43 q 340 -8 414 -8 q 182 55 242 -8 q 122 235 122 118 q 136 385 122 311 q 197 585 160 507 q 309 706 235 663 q 507 749 383 749 q 713 704 625 749 l 740 879 l 538 879 l 544 918 l 747 918 l 769 1060 l 850 1060 l 828 918 l 928 918 l 921 879 m 701 635 q 613 669 658 658 q 507 681 567 681 q 354 648 411 681 q 267 549 297 615 q 215 368 236 483 q 203 250 203 301 q 248 106 203 151 q 365 60 293 60 q 494 79 432 60 q 622 133 556 99 l 701 635 z "},"ḋ":{"ha":783,"x_min":122,"x_max":893,"o":"m 340 -8 q 182 55 242 -8 q 122 235 122 118 q 136 385 122 311 q 197 585 160 507 q 309 706 235 663 q 507 749 383 749 q 713 704 625 749 l 769 1060 l 850 1060 l 682 0 l 615 0 l 615 81 q 485 17 557 43 q 340 -8 414 -8 m 365 60 q 494 79 432 60 q 622 133 556 99 l 701 635 q 613 669 658 658 q 507 681 567 681 q 354 648 411 681 q 267 549 297 615 q 215 368 236 483 q 203 250 203 301 q 248 106 203 151 q 365 60 293 60 m 817 1201 q 805 1206 810 1201 q 800 1218 800 1211 l 800 1221 l 817 1321 q 840 1342 818 1342 l 876 1342 q 893 1326 893 1342 l 893 1321 l 878 1221 q 870 1206 876 1211 q 854 1201 864 1201 l 817 1201 z "},"ḍ":{"ha":783,"x_min":122,"x_max":850,"o":"m 340 -8 q 182 55 242 -8 q 122 235 122 118 q 136 385 122 311 q 197 585 160 507 q 309 706 235 663 q 507 749 383 749 q 713 704 625 749 l 769 1060 l 850 1060 l 682 0 l 615 0 l 615 81 q 485 17 557 43 q 340 -8 414 -8 m 365 60 q 494 79 432 60 q 622 133 556 99 l 701 635 q 613 669 658 658 q 507 681 567 681 q 354 648 411 681 q 267 549 297 615 q 215 368 236 483 q 203 250 203 301 q 248 106 203 151 q 365 60 293 60 m 322 -285 q 310 -280 315 -285 q 306 -268 306 -275 l 306 -265 l 322 -165 q 346 -144 324 -144 l 382 -144 q 399 -160 399 -144 l 399 -165 l 383 -265 q 376 -280 382 -275 q 360 -285 369 -285 l 322 -285 z "},"ḏ":{"ha":783,"x_min":122,"x_max":850,"o":"m 340 -8 q 182 55 242 -8 q 122 235 122 118 q 136 385 122 311 q 197 585 160 507 q 309 706 235 663 q 507 749 383 749 q 713 704 625 749 l 769 1060 l 850 1060 l 682 0 l 615 0 l 615 81 q 485 17 557 43 q 340 -8 414 -8 m 365 60 q 494 79 432 60 q 622 133 556 99 l 701 635 q 613 669 658 658 q 507 681 567 681 q 354 648 411 681 q 267 549 297 615 q 215 368 236 483 q 203 250 203 301 q 248 106 203 151 q 365 60 293 60 m 190 -203 l 551 -203 l 543 -251 l 182 -251 l 190 -203 z "},"e":{"ha":761,"x_min":125,"x_max":772,"o":"m 428 -8 q 197 55 269 -8 q 125 246 125 118 q 139 407 125 324 q 255 665 165 578 q 513 753 344 753 q 705 707 638 753 q 772 556 772 661 q 418 315 772 315 q 296 322 353 315 q 210 338 239 328 q 204 242 204 294 q 262 100 204 144 q 451 56 319 56 l 672 56 l 664 6 q 428 -8 529 -8 m 385 368 q 615 408 535 368 q 694 547 694 447 q 649 655 694 622 q 507 688 603 688 q 303 613 368 688 q 215 383 238 538 q 385 368 297 368 z "},"é":{"ha":761,"x_min":125,"x_max":772,"o":"m 428 -8 q 197 55 269 -8 q 125 246 125 118 q 139 407 125 324 q 255 665 165 578 q 513 753 344 753 q 705 707 638 753 q 772 556 772 661 q 418 315 772 315 q 296 322 353 315 q 210 338 239 328 q 204 242 204 294 q 262 100 204 144 q 451 56 319 56 l 672 56 l 664 6 q 428 -8 529 -8 m 385 368 q 615 408 535 368 q 694 547 694 447 q 649 655 694 622 q 507 688 603 688 q 303 613 368 688 q 215 383 238 538 q 385 368 297 368 m 678 1064 l 751 1064 l 547 876 l 497 876 l 678 1064 z "},"ĕ":{"ha":761,"x_min":125,"x_max":772,"o":"m 428 -8 q 197 55 269 -8 q 125 246 125 118 q 139 407 125 324 q 255 665 165 578 q 513 753 344 753 q 705 707 638 753 q 772 556 772 661 q 418 315 772 315 q 296 322 353 315 q 210 338 239 328 q 204 242 204 294 q 262 100 204 144 q 451 56 319 56 l 672 56 l 664 6 q 428 -8 529 -8 m 385 368 q 615 408 535 368 q 694 547 694 447 q 649 655 694 622 q 507 688 603 688 q 303 613 368 688 q 215 383 238 538 q 385 368 297 368 m 533 875 q 424 910 465 875 q 382 1019 382 944 q 385 1068 382 1032 l 425 1068 q 422 1029 422 1040 q 454 943 422 971 q 536 915 486 915 q 645 951 600 915 q 703 1068 690 988 l 743 1068 q 670 919 728 964 q 533 875 613 875 z "},"ě":{"ha":761,"x_min":125,"x_max":775,"o":"m 428 -8 q 197 55 269 -8 q 125 246 125 118 q 139 407 125 324 q 255 665 165 578 q 513 753 344 753 q 705 707 638 753 q 772 556 772 661 q 418 315 772 315 q 296 322 353 315 q 210 338 239 328 q 204 242 204 294 q 262 100 204 144 q 451 56 319 56 l 672 56 l 664 6 q 428 -8 529 -8 m 385 368 q 615 408 535 368 q 694 547 694 447 q 649 655 694 622 q 507 688 603 688 q 303 613 368 688 q 215 383 238 538 q 385 368 297 368 m 383 1061 l 435 1061 l 549 917 l 725 1061 l 775 1061 l 571 876 l 513 876 l 383 1061 z "},"ḝ":{"ha":761,"x_min":125,"x_max":772,"o":"m 533 875 q 424 910 465 875 q 382 1019 382 944 q 385 1068 382 1032 l 425 1068 q 422 1029 422 1040 q 454 943 422 971 q 536 915 486 915 q 645 951 600 915 q 703 1068 690 988 l 743 1068 q 670 919 728 964 q 533 875 613 875 m 418 315 q 296 322 353 315 q 210 338 239 328 q 204 242 204 294 q 262 100 204 144 q 451 56 319 56 l 672 56 l 664 6 q 429 -8 529 -8 l 363 -89 q 453 -160 453 -93 q 435 -210 453 -183 q 385 -253 418 -236 q 307 -271 353 -271 l 268 -271 l 274 -237 l 307 -235 q 376 -205 351 -231 q 401 -156 401 -179 q 381 -119 401 -132 q 310 -104 361 -106 l 390 -7 q 189 63 253 0 q 125 246 125 125 q 139 407 125 324 q 255 665 165 578 q 513 753 344 753 q 705 707 638 753 q 772 556 772 661 q 418 315 772 315 m 507 688 q 303 613 368 688 q 215 383 238 538 q 385 368 297 368 q 615 408 535 368 q 694 547 694 447 q 649 655 694 622 q 507 688 603 688 z "},"ê":{"ha":761,"x_min":125,"x_max":772,"o":"m 428 -8 q 197 55 269 -8 q 125 246 125 118 q 139 407 125 324 q 255 665 165 578 q 513 753 344 753 q 705 707 638 753 q 772 556 772 661 q 418 315 772 315 q 296 322 353 315 q 210 338 239 328 q 204 242 204 294 q 262 100 204 144 q 451 56 319 56 l 672 56 l 664 6 q 428 -8 529 -8 m 385 368 q 615 408 535 368 q 694 547 694 447 q 649 655 694 622 q 507 688 603 688 q 303 613 368 688 q 215 383 238 538 q 385 368 297 368 m 543 1061 l 601 1061 l 731 876 l 679 876 l 564 1021 l 390 876 l 339 876 l 543 1061 z "},"ế":{"ha":761,"x_min":125,"x_max":892,"o":"m 428 -8 q 197 55 269 -8 q 125 246 125 118 q 139 407 125 324 q 255 665 165 578 q 513 753 344 753 q 705 707 638 753 q 772 556 772 661 q 418 315 772 315 q 296 322 353 315 q 210 338 239 328 q 204 242 204 294 q 262 100 204 144 q 451 56 319 56 l 672 56 l 664 6 q 428 -8 529 -8 m 385 368 q 615 408 535 368 q 694 547 694 447 q 649 655 694 622 q 507 688 603 688 q 303 613 368 688 q 215 383 238 538 q 385 368 297 368 m 822 1161 l 892 1161 l 699 979 l 654 979 l 822 1161 m 514 1008 l 572 1008 l 711 876 l 660 876 l 536 968 l 369 876 l 319 876 l 514 1008 z "},"ệ":{"ha":761,"x_min":125,"x_max":772,"o":"m 428 -8 q 197 55 269 -8 q 125 246 125 118 q 139 407 125 324 q 255 665 165 578 q 513 753 344 753 q 705 707 638 753 q 772 556 772 661 q 418 315 772 315 q 296 322 353 315 q 210 338 239 328 q 204 242 204 294 q 262 100 204 144 q 451 56 319 56 l 672 56 l 664 6 q 428 -8 529 -8 m 385 368 q 615 408 535 368 q 694 547 694 447 q 649 655 694 622 q 507 688 603 688 q 303 613 368 688 q 215 383 238 538 q 385 368 297 368 m 543 1061 l 601 1061 l 731 876 l 679 876 l 564 1021 l 390 876 l 339 876 l 543 1061 m 344 -285 q 333 -280 338 -285 q 328 -268 328 -275 l 328 -265 l 344 -165 q 368 -144 346 -144 l 404 -144 q 421 -160 421 -144 l 421 -165 l 406 -265 q 398 -280 404 -275 q 382 -285 392 -285 l 344 -285 z "},"ề":{"ha":761,"x_min":125,"x_max":772,"o":"m 428 -8 q 197 55 269 -8 q 125 246 125 118 q 139 407 125 324 q 255 665 165 578 q 513 753 344 753 q 705 707 638 753 q 772 556 772 661 q 418 315 772 315 q 296 322 353 315 q 210 338 239 328 q 204 242 204 294 q 262 100 204 144 q 451 56 319 56 l 672 56 l 664 6 q 428 -8 529 -8 m 385 368 q 615 408 535 368 q 694 547 694 447 q 649 655 694 622 q 507 688 603 688 q 303 613 368 688 q 215 383 238 538 q 385 368 297 368 m 242 1161 l 310 1161 l 421 979 l 376 979 l 242 1161 m 506 1008 l 564 1008 l 701 876 l 651 876 l 528 968 l 361 876 l 310 876 l 506 1008 z "},"ể":{"ha":761,"x_min":125,"x_max":819,"o":"m 428 -8 q 197 55 269 -8 q 125 246 125 118 q 139 407 125 324 q 255 665 165 578 q 513 753 344 753 q 705 707 638 753 q 772 556 772 661 q 418 315 772 315 q 296 322 353 315 q 210 338 239 328 q 204 242 204 294 q 262 100 204 144 q 451 56 319 56 l 672 56 l 664 6 q 428 -8 529 -8 m 385 368 q 615 408 535 368 q 694 547 694 447 q 649 655 694 622 q 507 688 603 688 q 303 613 368 688 q 215 383 238 538 q 385 368 297 368 m 685 983 q 775 1075 775 1013 q 718 1117 775 1117 q 667 1108 689 1117 l 672 1144 q 733 1154 701 1154 q 798 1135 776 1154 q 819 1082 819 1117 q 785 1002 819 1038 q 679 947 751 967 l 685 983 m 518 1008 l 576 1008 l 715 876 l 664 876 l 540 968 l 375 876 l 324 876 l 518 1008 z "},"ễ":{"ha":761,"x_min":125,"x_max":796,"o":"m 428 -8 q 197 55 269 -8 q 125 246 125 118 q 139 407 125 324 q 255 665 165 578 q 513 753 344 753 q 705 707 638 753 q 772 556 772 661 q 418 315 772 315 q 296 322 353 315 q 210 338 239 328 q 204 242 204 294 q 262 100 204 144 q 451 56 319 56 l 672 56 l 664 6 q 428 -8 529 -8 m 385 368 q 615 408 535 368 q 694 547 694 447 q 649 655 694 622 q 507 688 603 688 q 303 613 368 688 q 215 383 238 538 q 385 368 297 368 m 331 1075 q 378 1158 342 1133 q 464 1182 415 1182 q 516 1174 493 1182 q 572 1147 539 1165 q 619 1126 599 1133 q 663 1118 640 1118 q 724 1135 699 1118 q 754 1185 749 1153 l 796 1185 q 750 1103 785 1132 q 660 1075 715 1075 q 610 1083 633 1075 q 556 1108 588 1092 q 503 1131 524 1124 q 460 1139 483 1139 q 402 1123 426 1139 q 372 1075 378 1107 l 331 1075 m 519 1008 l 578 1008 l 715 876 l 664 876 l 540 968 l 374 876 l 324 876 l 519 1008 z "},"ȅ":{"ha":761,"x_min":125,"x_max":772,"o":"m 428 -8 q 197 55 269 -8 q 125 246 125 118 q 139 407 125 324 q 255 665 165 578 q 513 753 344 753 q 705 707 638 753 q 772 556 772 661 q 418 315 772 315 q 296 322 353 315 q 210 338 239 328 q 204 242 204 294 q 262 100 204 144 q 451 56 319 56 l 672 56 l 664 6 q 428 -8 529 -8 m 385 368 q 615 408 535 368 q 694 547 694 447 q 649 655 694 622 q 507 688 603 688 q 303 613 368 688 q 215 383 238 538 q 385 368 297 368 m 293 1064 l 365 1064 l 489 876 l 442 876 l 293 1064 m 482 1064 l 554 1064 l 678 876 l 631 876 l 482 1064 z "},"ë":{"ha":761,"x_min":125,"x_max":772,"o":"m 428 -8 q 197 55 269 -8 q 125 246 125 118 q 139 407 125 324 q 255 665 165 578 q 513 753 344 753 q 705 707 638 753 q 772 556 772 661 q 418 315 772 315 q 296 322 353 315 q 210 338 239 328 q 204 242 204 294 q 262 100 204 144 q 451 56 319 56 l 672 56 l 664 6 q 428 -8 529 -8 m 385 368 q 615 408 535 368 q 694 547 694 447 q 649 655 694 622 q 507 688 603 688 q 303 613 368 688 q 215 383 238 538 q 385 368 297 368 m 357 914 q 340 931 340 914 l 356 1033 q 381 1054 360 1054 l 417 1054 q 433 1039 433 1054 l 417 933 q 409 919 415 924 q 393 914 403 914 l 357 914 m 642 914 q 630 919 635 914 q 625 931 625 924 q 642 1033 625 922 q 665 1054 643 1054 l 703 1054 q 719 1039 719 1054 q 703 933 719 1044 q 695 919 701 924 q 679 914 689 914 l 642 914 z "},"ė":{"ha":761,"x_min":125,"x_max":772,"o":"m 428 -8 q 197 55 269 -8 q 125 246 125 118 q 139 407 125 324 q 255 665 165 578 q 513 753 344 753 q 705 707 638 753 q 772 556 772 661 q 418 315 772 315 q 296 322 353 315 q 210 338 239 328 q 204 242 204 294 q 262 100 204 144 q 451 56 319 56 l 672 56 l 664 6 q 428 -8 529 -8 m 385 368 q 615 408 535 368 q 694 547 694 447 q 649 655 694 622 q 507 688 603 688 q 303 613 368 688 q 215 383 238 538 q 385 368 297 368 m 517 924 q 505 928 510 924 q 500 940 500 933 l 500 943 l 517 1043 q 540 1064 518 1064 l 576 1064 q 593 1049 593 1064 l 593 1043 l 578 943 q 570 928 576 933 q 554 924 564 924 l 517 924 z "},"ẹ":{"ha":761,"x_min":125,"x_max":772,"o":"m 428 -8 q 197 55 269 -8 q 125 246 125 118 q 139 407 125 324 q 255 665 165 578 q 513 753 344 753 q 705 707 638 753 q 772 556 772 661 q 418 315 772 315 q 296 322 353 315 q 210 338 239 328 q 204 242 204 294 q 262 100 204 144 q 451 56 319 56 l 672 56 l 664 6 q 428 -8 529 -8 m 385 368 q 615 408 535 368 q 694 547 694 447 q 649 655 694 622 q 507 688 603 688 q 303 613 368 688 q 215 383 238 538 q 385 368 297 368 m 344 -285 q 333 -280 338 -285 q 328 -268 328 -275 l 328 -265 l 344 -165 q 368 -144 346 -144 l 404 -144 q 421 -160 421 -144 l 421 -165 l 406 -265 q 398 -280 404 -275 q 382 -285 392 -285 l 344 -285 z "},"è":{"ha":761,"x_min":125,"x_max":772,"o":"m 428 -8 q 197 55 269 -8 q 125 246 125 118 q 139 407 125 324 q 255 665 165 578 q 513 753 344 753 q 705 707 638 753 q 772 556 772 661 q 418 315 772 315 q 296 322 353 315 q 210 338 239 328 q 204 242 204 294 q 262 100 204 144 q 451 56 319 56 l 672 56 l 664 6 q 428 -8 529 -8 m 385 368 q 615 408 535 368 q 694 547 694 447 q 649 655 694 622 q 507 688 603 688 q 303 613 368 688 q 215 383 238 538 q 385 368 297 368 m 390 1064 l 463 1064 l 586 876 l 539 876 l 390 1064 z "},"ẻ":{"ha":761,"x_min":125,"x_max":772,"o":"m 428 -8 q 197 55 269 -8 q 125 246 125 118 q 139 407 125 324 q 255 665 165 578 q 513 753 344 753 q 705 707 638 753 q 772 556 772 661 q 418 315 772 315 q 296 322 353 315 q 210 338 239 328 q 204 242 204 294 q 262 100 204 144 q 451 56 319 56 l 672 56 l 664 6 q 428 -8 529 -8 m 385 368 q 615 408 535 368 q 694 547 694 447 q 649 655 694 622 q 507 688 603 688 q 303 613 368 688 q 215 383 238 538 q 385 368 297 368 m 504 881 q 604 988 604 910 q 543 1039 604 1039 q 489 1031 517 1039 l 494 1067 q 558 1076 525 1076 q 650 993 650 1076 q 613 903 650 943 q 497 842 576 864 l 504 881 z "},"ȇ":{"ha":761,"x_min":125,"x_max":772,"o":"m 428 -8 q 197 55 269 -8 q 125 246 125 118 q 139 407 125 324 q 255 665 165 578 q 513 753 344 753 q 705 707 638 753 q 772 556 772 661 q 418 315 772 315 q 296 322 353 315 q 210 338 239 328 q 204 242 204 294 q 262 100 204 144 q 451 56 319 56 l 672 56 l 664 6 q 428 -8 529 -8 m 385 368 q 615 408 535 368 q 694 547 694 447 q 649 655 694 622 q 507 688 603 688 q 303 613 368 688 q 215 383 238 538 q 385 368 297 368 m 343 876 q 416 1025 358 981 q 553 1069 474 1069 q 663 1035 621 1069 q 704 925 704 1000 q 701 876 704 913 l 661 876 q 664 915 664 904 q 632 1001 664 974 q 547 1029 600 1029 q 441 992 486 1029 q 383 876 396 956 l 343 876 z "},"ē":{"ha":761,"x_min":125,"x_max":772,"o":"m 428 -8 q 197 55 269 -8 q 125 246 125 118 q 139 407 125 324 q 255 665 165 578 q 513 753 344 753 q 705 707 638 753 q 772 556 772 661 q 418 315 772 315 q 296 322 353 315 q 210 338 239 328 q 204 242 204 294 q 262 100 204 144 q 451 56 319 56 l 672 56 l 664 6 q 428 -8 529 -8 m 385 368 q 615 408 535 368 q 694 547 694 447 q 649 655 694 622 q 507 688 603 688 q 303 613 368 688 q 215 383 238 538 q 385 368 297 368 m 371 992 l 732 992 l 724 943 l 363 943 l 371 992 z "},"ḗ":{"ha":761,"x_min":125,"x_max":779,"o":"m 428 -8 q 197 55 269 -8 q 125 246 125 118 q 139 407 125 324 q 255 665 165 578 q 513 753 344 753 q 705 707 638 753 q 772 556 772 661 q 418 315 772 315 q 296 322 353 315 q 210 338 239 328 q 204 242 204 294 q 262 100 204 144 q 451 56 319 56 l 672 56 l 664 6 q 428 -8 529 -8 m 385 368 q 615 408 535 368 q 694 547 694 447 q 649 655 694 622 q 507 688 603 688 q 303 613 368 688 q 215 383 238 538 q 385 368 297 368 m 371 992 l 732 992 l 724 943 l 363 943 l 371 992 m 706 1242 l 779 1242 l 575 1054 l 525 1054 l 706 1242 z "},"ḕ":{"ha":761,"x_min":125,"x_max":772,"o":"m 428 -8 q 197 55 269 -8 q 125 246 125 118 q 139 407 125 324 q 255 665 165 578 q 513 753 344 753 q 705 707 638 753 q 772 556 772 661 q 418 315 772 315 q 296 322 353 315 q 210 338 239 328 q 204 242 204 294 q 262 100 204 144 q 451 56 319 56 l 672 56 l 664 6 q 428 -8 529 -8 m 385 368 q 615 408 535 368 q 694 547 694 447 q 649 655 694 622 q 507 688 603 688 q 303 613 368 688 q 215 383 238 538 q 385 368 297 368 m 371 992 l 732 992 l 724 943 l 363 943 l 371 992 m 390 1242 l 463 1242 l 586 1054 l 539 1054 l 390 1242 z "},"ę":{"ha":761,"x_min":125,"x_max":772,"o":"m 418 315 q 296 322 353 315 q 210 338 239 328 q 204 242 204 294 q 262 100 204 144 q 451 56 319 56 l 672 56 l 664 6 q 578 -59 608 -21 q 549 -129 549 -97 q 577 -187 549 -167 q 661 -208 606 -208 l 669 -208 l 663 -249 q 628 -251 640 -251 q 534 -223 568 -251 q 500 -149 500 -194 q 530 -69 500 -110 q 622 1 560 -28 q 428 -8 496 -8 q 197 55 269 -8 q 125 246 125 118 q 139 407 125 324 q 255 665 165 578 q 513 753 344 753 q 705 707 638 753 q 772 556 772 661 q 418 315 772 315 m 507 688 q 303 613 368 688 q 215 383 238 538 q 385 368 297 368 q 615 408 535 368 q 694 547 694 447 q 649 655 694 622 q 507 688 603 688 z "},"ẽ":{"ha":761,"x_min":125,"x_max":818,"o":"m 428 -8 q 197 55 269 -8 q 125 246 125 118 q 139 407 125 324 q 255 665 165 578 q 513 753 344 753 q 705 707 638 753 q 772 556 772 661 q 418 315 772 315 q 296 322 353 315 q 210 338 239 328 q 204 242 204 294 q 262 100 204 144 q 451 56 319 56 l 672 56 l 664 6 q 428 -8 529 -8 m 385 368 q 615 408 535 368 q 694 547 694 447 q 649 655 694 622 q 507 688 603 688 q 303 613 368 688 q 215 383 238 538 q 385 368 297 368 m 314 908 q 368 1012 326 979 q 464 1044 410 1044 q 520 1032 494 1044 q 578 997 546 1019 q 631 966 611 976 q 675 956 651 956 q 742 980 714 956 q 776 1047 769 1004 l 818 1047 q 769 945 807 982 q 669 908 731 908 q 619 919 643 908 q 563 953 596 931 q 506 986 529 975 q 458 997 483 997 q 392 975 421 997 q 356 908 364 953 l 314 908 z "},"ə":{"ha":764,"x_min":110,"x_max":757,"o":"m 454 749 q 685 685 613 749 q 757 494 757 622 q 743 333 757 417 q 627 75 717 163 q 369 -12 538 -12 q 177 33 244 -12 q 110 185 110 79 q 464 425 110 425 q 586 419 529 425 q 672 403 643 413 q 678 499 678 446 q 620 640 678 596 q 431 685 563 685 l 210 685 l 218 735 q 454 749 353 749 m 497 372 q 267 333 347 372 q 188 193 188 293 q 233 85 188 118 q 375 53 279 53 q 579 128 514 53 q 667 357 644 203 q 497 372 585 372 z "},"f":{"ha":511,"x_min":144,"x_max":669,"o":"m 261 671 l 144 671 l 154 722 l 272 740 l 292 856 q 319 961 301 917 q 382 1037 338 1006 q 507 1068 426 1068 q 669 1060 578 1068 l 660 1001 l 514 1001 q 411 963 440 1001 q 369 840 382 924 l 353 740 l 592 740 l 581 671 l 342 671 l 236 0 l 156 0 l 261 671 z "},"ḟ":{"ha":511,"x_min":144,"x_max":669,"o":"m 261 671 l 144 671 l 154 722 l 272 740 l 292 856 q 319 961 301 917 q 382 1037 338 1006 q 507 1068 426 1068 q 669 1060 578 1068 l 660 1001 l 514 1001 q 411 963 440 1001 q 369 840 382 924 l 353 740 l 592 740 l 581 671 l 342 671 l 236 0 l 156 0 l 261 671 m 488 1201 q 476 1206 481 1201 q 471 1218 471 1211 l 471 1221 l 488 1321 q 511 1342 489 1342 l 547 1342 q 564 1326 564 1342 l 564 1321 l 549 1221 q 541 1206 547 1211 q 525 1201 535 1201 l 488 1201 z "},"g":{"ha":783,"x_min":78,"x_max":796,"o":"m 78 -319 l 86 -264 l 308 -264 q 495 -219 418 -264 q 588 -81 572 -175 l 614 81 q 472 14 549 36 q 328 -8 396 -8 q 224 20 271 -8 q 150 103 178 49 q 122 233 122 158 q 138 393 122 292 q 256 663 168 578 q 519 749 343 749 q 796 722 674 749 l 667 -90 q 549 -273 646 -217 q 322 -329 453 -329 q 285 -328 297 -329 l 78 -319 m 360 60 q 485 77 425 60 q 622 133 544 94 l 707 671 q 515 681 643 675 q 311 615 381 686 q 217 382 242 543 q 203 244 203 289 q 247 107 203 154 q 360 60 290 60 z "},"ğ":{"ha":783,"x_min":78,"x_max":796,"o":"m 78 -319 l 86 -264 l 308 -264 q 495 -219 418 -264 q 588 -81 572 -175 l 614 81 q 472 14 549 36 q 328 -8 396 -8 q 224 20 271 -8 q 150 103 178 49 q 122 233 122 158 q 138 393 122 292 q 256 663 168 578 q 519 749 343 749 q 796 722 674 749 l 667 -90 q 549 -273 646 -217 q 322 -329 453 -329 q 285 -328 297 -329 l 78 -319 m 360 60 q 485 77 425 60 q 622 133 544 94 l 707 671 q 515 681 643 675 q 311 615 381 686 q 217 382 242 543 q 203 244 203 289 q 247 107 203 154 q 360 60 290 60 m 535 875 q 425 910 467 875 q 383 1019 383 944 q 386 1068 383 1032 l 426 1068 q 424 1029 424 1040 q 456 943 424 971 q 538 915 488 915 q 647 951 601 915 q 704 1068 692 988 l 744 1068 q 672 919 729 964 q 535 875 614 875 z "},"ǧ":{"ha":783,"x_min":78,"x_max":796,"o":"m 78 -319 l 86 -264 l 308 -264 q 495 -219 418 -264 q 588 -81 572 -175 l 614 81 q 472 14 549 36 q 328 -8 396 -8 q 224 20 271 -8 q 150 103 178 49 q 122 233 122 158 q 138 393 122 292 q 256 663 168 578 q 519 749 343 749 q 796 722 674 749 l 667 -90 q 549 -273 646 -217 q 322 -329 453 -329 q 285 -328 297 -329 l 78 -319 m 360 60 q 485 77 425 60 q 622 133 544 94 l 707 671 q 515 681 643 675 q 311 615 381 686 q 217 382 242 543 q 203 244 203 289 q 247 107 203 154 q 360 60 290 60 m 385 1061 l 436 1061 l 550 917 l 726 1061 l 776 1061 l 572 876 l 514 876 l 385 1061 z "},"ĝ":{"ha":783,"x_min":78,"x_max":796,"o":"m 78 -319 l 86 -264 l 308 -264 q 495 -219 418 -264 q 588 -81 572 -175 l 614 81 q 472 14 549 36 q 328 -8 396 -8 q 224 20 271 -8 q 150 103 178 49 q 122 233 122 158 q 138 393 122 292 q 256 663 168 578 q 519 749 343 749 q 796 722 674 749 l 667 -90 q 549 -273 646 -217 q 322 -329 453 -329 q 285 -328 297 -329 l 78 -319 m 360 60 q 485 77 425 60 q 622 133 544 94 l 707 671 q 515 681 643 675 q 311 615 381 686 q 217 382 242 543 q 203 244 203 289 q 247 107 203 154 q 360 60 290 60 m 544 1061 l 603 1061 l 732 876 l 681 876 l 565 1021 l 392 876 l 340 876 l 544 1061 z "},"ģ":{"ha":783,"x_min":78,"x_max":796,"o":"m 78 -319 l 86 -264 l 308 -264 q 495 -219 418 -264 q 588 -81 572 -175 l 614 81 q 472 14 549 36 q 328 -8 396 -8 q 224 20 271 -8 q 150 103 178 49 q 122 233 122 158 q 138 393 122 292 q 256 663 168 578 q 519 749 343 749 q 796 722 674 749 l 667 -90 q 549 -273 646 -217 q 322 -329 453 -329 q 285 -328 297 -329 l 78 -319 m 360 60 q 485 77 425 60 q 622 133 544 94 l 707 671 q 515 681 643 675 q 311 615 381 686 q 217 382 242 543 q 203 244 203 289 q 247 107 203 154 q 360 60 290 60 m 456 853 q 485 967 467 926 q 540 1026 504 1007 q 635 1044 575 1044 l 682 1044 l 676 1011 l 633 1006 q 570 990 593 1001 q 531 947 547 979 q 507 853 515 915 l 456 853 z "},"ġ":{"ha":783,"x_min":78,"x_max":796,"o":"m 78 -319 l 86 -264 l 308 -264 q 495 -219 418 -264 q 588 -81 572 -175 l 614 81 q 472 14 549 36 q 328 -8 396 -8 q 224 20 271 -8 q 150 103 178 49 q 122 233 122 158 q 138 393 122 292 q 256 663 168 578 q 519 749 343 749 q 796 722 674 749 l 667 -90 q 549 -273 646 -217 q 322 -329 453 -329 q 285 -328 297 -329 l 78 -319 m 360 60 q 485 77 425 60 q 622 133 544 94 l 707 671 q 515 681 643 675 q 311 615 381 686 q 217 382 242 543 q 203 244 203 289 q 247 107 203 154 q 360 60 290 60 m 518 924 q 506 928 511 924 q 501 940 501 933 l 501 943 l 518 1043 q 542 1064 519 1064 l 578 1064 q 594 1049 594 1064 l 594 1043 l 579 943 q 572 928 578 933 q 556 924 565 924 l 518 924 z "},"ḡ":{"ha":783,"x_min":78,"x_max":796,"o":"m 78 -319 l 86 -264 l 308 -264 q 495 -219 418 -264 q 588 -81 572 -175 l 614 81 q 472 14 549 36 q 328 -8 396 -8 q 224 20 271 -8 q 150 103 178 49 q 122 233 122 158 q 138 393 122 292 q 256 663 168 578 q 519 749 343 749 q 796 722 674 749 l 667 -90 q 549 -273 646 -217 q 322 -329 453 -329 q 285 -328 297 -329 l 78 -319 m 360 60 q 485 77 425 60 q 622 133 544 94 l 707 671 q 515 681 643 675 q 311 615 381 686 q 217 382 242 543 q 203 244 203 289 q 247 107 203 154 q 360 60 290 60 m 372 992 l 733 992 l 725 943 l 364 943 l 372 992 z "},"h":{"ha":793,"x_min":101,"x_max":778,"o":"m 269 1060 l 350 1060 l 285 657 q 429 726 351 700 q 589 751 507 751 q 730 706 682 751 q 778 571 778 660 q 774 506 778 542 l 693 0 l 613 0 l 689 492 q 694 547 694 519 q 658 648 694 617 q 550 679 621 679 q 413 660 474 679 q 276 596 353 640 l 182 0 l 101 0 l 269 1060 z "},"ħ":{"ha":793,"x_min":101,"x_max":778,"o":"m 589 751 q 730 706 682 751 q 778 571 778 660 q 774 506 778 542 l 693 0 l 613 0 l 689 492 q 694 547 694 519 q 658 648 694 617 q 550 679 621 679 q 413 660 474 679 q 276 596 353 640 l 182 0 l 101 0 l 240 879 l 138 879 l 144 918 l 247 918 l 269 1060 l 350 1060 l 326 918 l 528 918 l 521 879 l 321 879 l 285 657 q 429 726 351 700 q 589 751 507 751 z "},"ḫ":{"ha":793,"x_min":101,"x_max":778,"o":"m 269 1060 l 350 1060 l 285 657 q 429 726 351 700 q 589 751 507 751 q 730 706 682 751 q 778 571 778 660 q 774 506 778 542 l 693 0 l 613 0 l 689 492 q 694 547 694 519 q 658 648 694 617 q 550 679 621 679 q 413 660 474 679 q 276 596 353 640 l 182 0 l 101 0 l 269 1060 m 360 -306 q 251 -271 293 -306 q 210 -161 210 -236 q 213 -112 210 -149 l 253 -112 q 250 -151 250 -140 q 282 -237 250 -210 q 364 -265 314 -265 q 473 -229 428 -265 q 531 -112 518 -193 l 571 -112 q 497 -261 554 -217 q 360 -306 440 -306 z "},"ĥ":{"ha":793,"x_min":101,"x_max":778,"o":"m 269 1060 l 350 1060 l 285 657 q 429 726 351 700 q 589 751 507 751 q 730 706 682 751 q 778 571 778 660 q 774 506 778 542 l 693 0 l 613 0 l 689 492 q 694 547 694 519 q 658 648 694 617 q 550 679 621 679 q 413 660 474 679 q 276 596 353 640 l 182 0 l 101 0 l 269 1060 m 438 1339 l 496 1339 l 625 1154 l 574 1154 l 458 1299 l 285 1154 l 233 1154 l 438 1339 z "},"ḥ":{"ha":793,"x_min":101,"x_max":778,"o":"m 269 1060 l 350 1060 l 285 657 q 429 726 351 700 q 589 751 507 751 q 730 706 682 751 q 778 571 778 660 q 774 506 778 542 l 693 0 l 613 0 l 689 492 q 694 547 694 519 q 658 648 694 617 q 550 679 621 679 q 413 660 474 679 q 276 596 353 640 l 182 0 l 101 0 l 269 1060 m 322 -285 q 310 -280 315 -285 q 306 -268 306 -275 l 306 -265 l 322 -165 q 346 -144 324 -144 l 382 -144 q 399 -160 399 -144 l 399 -165 l 383 -265 q 376 -280 382 -275 q 360 -285 369 -285 l 322 -285 z "},"i":{"ha":282,"x_min":101,"x_max":349,"o":"m 254 879 q 240 885 244 879 q 238 900 236 890 l 253 999 q 276 1019 257 1019 l 331 1019 q 346 999 349 1019 l 331 900 q 308 879 326 879 l 254 879 m 218 740 l 299 740 l 182 0 l 101 0 l 218 740 z "},"ı":{"ha":282,"x_min":101,"x_max":299,"o":"m 218 740 l 299 740 l 182 0 l 101 0 l 218 740 z "},"í":{"ha":282,"x_min":101,"x_max":507,"o":"m 218 740 l 299 740 l 182 0 l 101 0 l 218 740 m 433 1064 l 507 1064 l 303 876 l 253 876 l 433 1064 z "},"ĭ":{"ha":282,"x_min":101,"x_max":499,"o":"m 218 740 l 299 740 l 182 0 l 101 0 l 218 740 m 289 875 q 179 910 221 875 q 138 1019 138 944 q 140 1068 138 1032 l 181 1068 q 178 1029 178 1040 q 210 943 178 971 q 292 915 242 915 q 401 951 356 915 q 458 1068 446 988 l 499 1068 q 426 919 483 964 q 289 875 368 875 z "},"î":{"ha":282,"x_min":94,"x_max":486,"o":"m 218 740 l 299 740 l 182 0 l 101 0 l 218 740 m 299 1061 l 357 1061 l 486 876 l 435 876 l 319 1021 l 146 876 l 94 876 l 299 1061 z "},"ȉ":{"ha":282,"x_min":49,"x_max":433,"o":"m 218 740 l 299 740 l 182 0 l 101 0 l 218 740 m 49 1064 l 121 1064 l 244 876 l 197 876 l 49 1064 m 238 1064 l 310 1064 l 433 876 l 386 876 l 238 1064 z "},"ï":{"ha":282,"x_min":96,"x_max":475,"o":"m 218 740 l 299 740 l 182 0 l 101 0 l 218 740 m 113 914 q 96 931 96 914 l 111 1033 q 136 1054 115 1054 l 172 1054 q 189 1039 189 1054 l 172 933 q 165 919 171 924 q 149 914 158 914 l 113 914 m 397 914 q 385 919 390 914 q 381 931 381 924 q 397 1033 381 922 q 421 1054 399 1054 l 458 1054 q 475 1039 475 1054 q 458 933 475 1044 q 451 919 457 924 q 435 914 444 914 l 397 914 z "},"ḯ":{"ha":282,"x_min":96,"x_max":524,"o":"m 218 740 l 299 740 l 182 0 l 101 0 l 218 740 m 113 914 q 96 931 96 914 l 111 1033 q 136 1054 115 1054 l 172 1054 q 189 1039 189 1054 l 172 933 q 165 919 171 924 q 149 914 158 914 l 113 914 m 397 914 q 385 919 390 914 q 381 931 381 924 q 397 1033 381 922 q 421 1054 399 1054 l 458 1054 q 475 1039 475 1054 q 458 933 475 1044 q 451 919 457 924 q 435 914 444 914 l 397 914 m 450 1297 l 524 1297 l 319 1110 l 269 1110 l 450 1297 z "},"ị":{"ha":282,"x_min":65,"x_max":346,"o":"m 254 879 q 240 885 244 879 q 238 900 236 890 l 253 999 q 276 1019 257 1019 l 331 1019 q 346 999 349 1019 l 331 900 q 308 879 326 879 l 254 879 m 218 740 l 299 740 l 182 0 l 101 0 l 218 740 m 82 -285 q 70 -280 75 -285 q 65 -268 65 -275 l 65 -265 l 82 -165 q 106 -144 83 -144 l 142 -144 q 158 -160 158 -144 l 158 -165 l 143 -265 q 135 -280 142 -275 q 119 -285 129 -285 l 82 -285 z "},"ì":{"ha":282,"x_min":101,"x_max":342,"o":"m 218 740 l 299 740 l 182 0 l 101 0 l 218 740 m 146 1064 l 218 1064 l 342 876 l 294 876 l 146 1064 z "},"ỉ":{"ha":282,"x_min":101,"x_max":406,"o":"m 218 740 l 299 740 l 182 0 l 101 0 l 218 740 m 260 881 q 360 988 360 910 q 299 1039 360 1039 q 244 1031 272 1039 l 250 1067 q 314 1076 281 1076 q 406 993 406 1076 q 369 903 406 943 q 253 842 332 864 l 260 881 z "},"ȋ":{"ha":282,"x_min":99,"x_max":460,"o":"m 218 740 l 299 740 l 182 0 l 101 0 l 218 740 m 99 876 q 172 1025 114 981 q 308 1069 229 1069 q 418 1035 376 1069 q 460 925 460 1000 q 457 876 460 913 l 417 876 q 419 915 419 904 q 388 1001 419 974 q 303 1029 356 1029 q 197 992 242 1029 q 139 876 151 956 l 99 876 z "},"ī":{"ha":282,"x_min":101,"x_max":488,"o":"m 218 740 l 299 740 l 182 0 l 101 0 l 218 740 m 126 992 l 488 992 l 479 943 l 118 943 l 126 992 z "},"į":{"ha":282,"x_min":18,"x_max":346,"o":"m 254 879 q 240 885 244 879 q 238 900 236 890 l 253 999 q 276 1019 257 1019 l 331 1019 q 346 999 349 1019 l 331 900 q 308 879 326 879 l 254 879 m 218 740 l 299 740 l 182 0 l 101 0 l 218 740 m 146 -257 q 52 -228 86 -257 q 18 -154 18 -200 q 50 -72 18 -114 q 149 0 82 -29 l 182 0 q 97 -65 126 -26 q 67 -135 67 -103 q 95 -193 67 -172 q 179 -214 124 -214 l 188 -214 l 181 -254 q 146 -257 158 -257 z "},"ĩ":{"ha":282,"x_min":69,"x_max":574,"o":"m 218 740 l 299 740 l 182 0 l 101 0 l 218 740 m 69 908 q 124 1012 82 979 q 219 1044 165 1044 q 276 1032 250 1044 q 333 997 301 1019 q 387 966 367 976 q 431 956 407 956 q 497 980 469 956 q 532 1047 525 1004 l 574 1047 q 524 945 563 982 q 425 908 486 908 q 375 919 399 908 q 318 953 351 931 q 262 986 285 975 q 214 997 239 997 q 148 975 176 997 q 111 908 119 953 l 69 908 z "},"j":{"ha":282,"x_min":49,"x_max":349,"o":"m 254 879 q 240 885 244 879 q 238 900 236 890 l 253 999 q 276 1019 257 1019 l 331 1019 q 346 999 349 1019 l 331 900 q 308 879 326 879 l 254 879 m 218 740 l 299 740 l 181 -6 q 107 -329 157 -158 l 49 -329 l 218 740 z "},"ȷ":{"ha":282,"x_min":49,"x_max":299,"o":"m 218 740 l 299 740 l 181 -6 q 107 -329 157 -158 l 49 -329 l 218 740 z "},"ĵ":{"ha":282,"x_min":49,"x_max":486,"o":"m 218 740 l 299 740 l 181 -6 q 107 -329 157 -158 l 49 -329 l 218 740 m 299 1061 l 357 1061 l 486 876 l 435 876 l 319 1021 l 146 876 l 94 876 l 299 1061 z "},"k":{"ha":715,"x_min":101,"x_max":714,"o":"m 269 1060 l 350 1060 l 250 432 q 489 508 392 436 q 633 740 586 581 l 714 740 q 453 410 642 490 l 676 0 l 590 0 l 382 386 q 310 372 350 378 q 240 367 269 367 l 182 0 l 101 0 l 269 1060 z "},"ķ":{"ha":715,"x_min":101,"x_max":714,"o":"m 269 1060 l 350 1060 l 250 432 q 489 508 392 436 q 633 740 586 581 l 714 740 q 453 410 642 490 l 676 0 l 590 0 l 382 386 q 310 372 350 378 q 240 367 269 367 l 182 0 l 101 0 l 269 1060 m 213 -242 l 256 -236 q 319 -221 296 -232 q 358 -178 342 -210 q 383 -83 374 -146 l 435 -83 q 404 -197 424 -156 q 349 -256 385 -237 q 254 -275 314 -275 l 207 -275 l 213 -242 z "},"ĸ":{"ha":715,"x_min":101,"x_max":714,"o":"m 218 740 l 299 740 l 246 410 q 485 491 388 414 q 633 740 582 568 l 714 740 q 604 512 671 593 q 449 388 538 431 l 675 0 l 589 0 l 378 364 q 308 349 347 354 q 236 344 268 344 l 182 0 l 101 0 l 218 740 z "},"l":{"ha":394,"x_min":129,"x_max":378,"o":"m 288 0 q 170 37 211 0 q 129 143 129 74 q 140 251 129 188 l 269 1060 l 350 1060 l 224 271 l 219 242 q 213 160 213 179 q 234 91 213 113 q 299 65 256 69 l 378 57 l 368 0 l 288 0 z "},"ĺ":{"ha":394,"x_min":129,"x_max":557,"o":"m 288 0 q 170 37 211 0 q 129 143 129 74 q 140 251 129 188 l 269 1060 l 350 1060 l 224 271 l 219 242 q 213 160 213 179 q 234 91 213 113 q 299 65 256 69 l 378 57 l 368 0 l 288 0 m 483 1342 l 557 1342 l 353 1154 l 303 1154 l 483 1342 z "},"ľ":{"ha":394,"x_min":129,"x_max":511,"o":"m 288 0 q 170 37 211 0 q 129 143 129 74 q 140 251 129 188 l 269 1060 l 350 1060 l 224 271 l 219 242 q 213 160 213 179 q 234 91 213 113 q 299 65 256 69 l 378 57 l 368 0 l 288 0 m 421 1003 l 435 1096 l 511 1096 l 497 1003 l 456 790 l 400 790 l 421 1003 z "},"ļ":{"ha":394,"x_min":93,"x_max":378,"o":"m 288 0 q 170 37 211 0 q 129 143 129 74 q 140 251 129 188 l 269 1060 l 350 1060 l 224 271 l 219 242 q 213 160 213 179 q 234 91 213 113 q 299 65 256 69 l 378 57 l 368 0 l 288 0 m 99 -242 l 142 -236 q 205 -221 182 -232 q 244 -178 228 -210 q 269 -83 260 -146 l 321 -83 q 290 -197 310 -156 q 235 -256 271 -237 q 140 -275 200 -275 l 93 -275 l 99 -242 z "},"ŀ":{"ha":408,"x_min":129,"x_max":504,"o":"m 288 0 q 170 37 211 0 q 129 143 129 74 q 140 251 129 188 l 269 1060 l 350 1060 l 224 271 l 219 242 q 213 160 213 179 q 234 91 213 113 q 299 65 256 69 l 378 57 l 368 0 l 288 0 m 429 544 q 416 550 421 544 q 413 564 411 556 l 419 610 q 443 631 424 631 l 488 631 q 504 610 507 631 l 496 564 q 474 544 494 544 l 429 544 z "},"ḷ":{"ha":394,"x_min":129,"x_max":378,"o":"m 288 0 q 170 37 211 0 q 129 143 129 74 q 140 251 129 188 l 269 1060 l 350 1060 l 224 271 l 219 242 q 213 160 213 179 q 234 91 213 113 q 299 65 256 69 l 378 57 l 368 0 l 288 0 m 181 -285 q 169 -280 174 -285 q 164 -268 164 -275 l 164 -265 l 181 -165 q 204 -144 182 -144 l 240 -144 q 257 -160 257 -144 l 257 -165 l 242 -265 q 234 -280 240 -275 q 218 -285 228 -285 l 181 -285 z "},"ḻ":{"ha":394,"x_min":40,"x_max":410,"o":"m 288 0 q 170 37 211 0 q 129 143 129 74 q 140 251 129 188 l 269 1060 l 350 1060 l 224 271 l 219 242 q 213 160 213 179 q 234 91 213 113 q 299 65 256 69 l 378 57 l 368 0 l 288 0 m 49 -203 l 410 -203 l 401 -251 l 40 -251 l 49 -203 z "},"ł":{"ha":394,"x_min":76,"x_max":436,"o":"m 224 271 l 219 242 q 213 160 213 179 q 234 91 213 113 q 299 65 256 69 l 378 57 l 368 0 l 288 0 q 170 37 211 0 q 129 143 129 74 q 140 251 129 188 l 186 539 l 76 503 l 83 554 l 194 590 l 269 1060 l 350 1060 l 279 618 l 436 668 l 429 617 l 271 567 l 224 271 z "},"m":{"ha":1304,"x_min":101,"x_max":1289,"o":"m 218 740 l 281 740 l 285 657 q 586 751 440 751 q 707 723 664 751 q 772 639 750 694 q 926 721 842 690 q 1093 751 1011 751 q 1289 571 1289 751 q 1282 500 1289 532 l 1203 0 l 1122 0 l 1201 499 q 1207 546 1207 524 q 1060 679 1207 679 q 917 656 982 679 q 774 583 853 632 q 776 553 776 564 q 769 486 776 531 l 693 0 l 613 0 l 689 488 q 696 547 696 529 q 661 644 696 608 q 550 679 626 679 q 417 660 475 679 q 276 596 360 640 l 182 0 l 101 0 l 218 740 z "},"ṁ":{"ha":1304,"x_min":101,"x_max":1289,"o":"m 218 740 l 281 740 l 285 657 q 586 751 440 751 q 707 723 664 751 q 772 639 750 694 q 926 721 842 690 q 1093 751 1011 751 q 1289 571 1289 751 q 1282 500 1289 532 l 1203 0 l 1122 0 l 1201 499 q 1207 546 1207 524 q 1060 679 1207 679 q 917 656 982 679 q 774 583 853 632 q 776 553 776 564 q 769 486 776 531 l 693 0 l 613 0 l 689 488 q 696 547 696 529 q 661 644 696 608 q 550 679 626 679 q 417 660 475 679 q 276 596 360 640 l 182 0 l 101 0 l 218 740 m 772 924 q 760 928 765 924 q 756 940 756 933 l 756 943 l 772 1043 q 796 1064 774 1064 l 832 1064 q 849 1049 849 1064 l 849 1043 l 833 943 q 826 928 832 933 q 810 924 819 924 l 772 924 z "},"ṃ":{"ha":1304,"x_min":101,"x_max":1289,"o":"m 218 740 l 281 740 l 285 657 q 586 751 440 751 q 707 723 664 751 q 772 639 750 694 q 926 721 842 690 q 1093 751 1011 751 q 1289 571 1289 751 q 1282 500 1289 532 l 1203 0 l 1122 0 l 1201 499 q 1207 546 1207 524 q 1060 679 1207 679 q 917 656 982 679 q 774 583 853 632 q 776 553 776 564 q 769 486 776 531 l 693 0 l 613 0 l 689 488 q 696 547 696 529 q 661 644 696 608 q 550 679 626 679 q 417 660 475 679 q 276 596 360 640 l 182 0 l 101 0 l 218 740 m 572 -285 q 560 -280 565 -285 q 556 -268 556 -275 l 556 -265 l 572 -165 q 596 -144 574 -144 l 632 -144 q 649 -160 649 -144 l 649 -165 l 633 -265 q 626 -280 632 -275 q 610 -285 619 -285 l 572 -285 z "},"n":{"ha":793,"x_min":101,"x_max":778,"o":"m 218 740 l 281 740 l 285 657 q 429 726 351 700 q 586 751 507 751 q 732 703 686 751 q 778 575 778 656 q 765 453 778 532 l 693 0 l 613 0 l 683 450 q 696 547 696 532 q 550 679 696 679 q 413 660 474 679 q 276 596 353 640 l 182 0 l 101 0 l 218 740 z "},"ń":{"ha":793,"x_min":101,"x_max":778,"o":"m 218 740 l 281 740 l 285 657 q 429 726 351 700 q 586 751 507 751 q 732 703 686 751 q 778 575 778 656 q 765 453 778 532 l 693 0 l 613 0 l 683 450 q 696 547 696 532 q 550 679 696 679 q 413 660 474 679 q 276 596 353 640 l 182 0 l 101 0 l 218 740 m 685 1064 l 758 1064 l 554 876 l 504 876 l 685 1064 z "},"ň":{"ha":793,"x_min":101,"x_max":782,"o":"m 218 740 l 281 740 l 285 657 q 429 726 351 700 q 586 751 507 751 q 732 703 686 751 q 778 575 778 656 q 765 453 778 532 l 693 0 l 613 0 l 683 450 q 696 547 696 532 q 550 679 696 679 q 413 660 474 679 q 276 596 353 640 l 182 0 l 101 0 l 218 740 m 390 1061 l 442 1061 l 556 917 l 732 1061 l 782 1061 l 578 876 l 519 876 l 390 1061 z "},"ņ":{"ha":793,"x_min":101,"x_max":778,"o":"m 218 740 l 281 740 l 285 657 q 429 726 351 700 q 586 751 507 751 q 732 703 686 751 q 778 575 778 656 q 765 453 778 532 l 693 0 l 613 0 l 683 450 q 696 547 696 532 q 550 679 696 679 q 413 660 474 679 q 276 596 353 640 l 182 0 l 101 0 l 218 740 m 243 -242 l 286 -236 q 349 -221 326 -232 q 388 -178 372 -210 q 414 -83 404 -146 l 465 -83 q 435 -197 454 -156 q 380 -256 415 -237 q 285 -275 344 -275 l 238 -275 l 243 -242 z "},"ṅ":{"ha":793,"x_min":101,"x_max":778,"o":"m 218 740 l 281 740 l 285 657 q 429 726 351 700 q 586 751 507 751 q 732 703 686 751 q 778 575 778 656 q 765 453 778 532 l 693 0 l 613 0 l 683 450 q 696 547 696 532 q 550 679 696 679 q 413 660 474 679 q 276 596 353 640 l 182 0 l 101 0 l 218 740 m 324 -285 q 312 -280 317 -285 q 307 -268 307 -275 l 307 -265 l 324 -165 q 347 -144 325 -144 l 383 -144 q 400 -160 400 -144 l 400 -165 l 385 -265 q 377 -280 383 -275 q 361 -285 371 -285 l 324 -285 z "},"ṇ":{"ha":793,"x_min":101,"x_max":778,"o":"m 218 740 l 281 740 l 285 657 q 429 726 351 700 q 586 751 507 751 q 732 703 686 751 q 778 575 778 656 q 765 453 778 532 l 693 0 l 613 0 l 683 450 q 696 547 696 532 q 550 679 696 679 q 413 660 474 679 q 276 596 353 640 l 182 0 l 101 0 l 218 740 m 324 -285 q 312 -280 317 -285 q 307 -268 307 -275 l 307 -265 l 324 -165 q 347 -144 325 -144 l 383 -144 q 400 -160 400 -144 l 400 -165 l 385 -265 q 377 -280 383 -275 q 361 -285 371 -285 l 324 -285 z "},"ŋ":{"ha":793,"x_min":101,"x_max":778,"o":"m 586 751 q 732 703 686 751 q 778 575 778 656 q 765 453 778 532 l 693 0 l 692 0 l 690 -12 q 610 -213 672 -132 q 454 -329 549 -294 l 386 -329 q 537 -206 482 -282 q 610 -14 592 -129 l 619 49 l 621 49 l 683 450 q 696 547 696 532 q 550 679 696 679 q 413 660 474 679 q 276 596 353 640 l 182 0 l 101 0 l 218 740 l 281 740 l 285 657 q 429 726 351 700 q 586 751 507 751 z "},"ṉ":{"ha":793,"x_min":101,"x_max":778,"o":"m 218 740 l 281 740 l 285 657 q 429 726 351 700 q 586 751 507 751 q 732 703 686 751 q 778 575 778 656 q 765 453 778 532 l 693 0 l 613 0 l 683 450 q 696 547 696 532 q 550 679 696 679 q 413 660 474 679 q 276 596 353 640 l 182 0 l 101 0 l 218 740 m 192 -203 l 553 -203 l 544 -251 l 183 -251 l 192 -203 z "},"ñ":{"ha":793,"x_min":101,"x_max":825,"o":"m 218 740 l 281 740 l 285 657 q 429 726 351 700 q 586 751 507 751 q 732 703 686 751 q 778 575 778 656 q 765 453 778 532 l 693 0 l 613 0 l 683 450 q 696 547 696 532 q 550 679 696 679 q 413 660 474 679 q 276 596 353 640 l 182 0 l 101 0 l 218 740 m 321 908 q 375 1012 333 979 q 471 1044 417 1044 q 527 1032 501 1044 q 585 997 553 1019 q 638 966 618 976 q 682 956 658 956 q 749 980 721 956 q 783 1047 776 1004 l 825 1047 q 776 945 814 982 q 676 908 738 908 q 626 919 650 908 q 569 953 603 931 q 513 986 536 975 q 465 997 490 997 q 399 975 428 997 q 363 908 371 953 l 321 908 z "},"o":{"ha":783,"x_min":124,"x_max":776,"o":"m 390 -8 q 193 50 263 -8 q 124 240 124 108 q 135 375 124 300 q 203 603 158 522 q 319 716 247 683 q 510 749 392 749 q 715 685 654 749 q 776 492 776 622 q 763 344 776 435 q 697 132 740 208 q 581 24 654 56 q 390 -8 507 -8 m 401 60 q 541 83 488 60 q 628 172 594 107 q 682 360 663 236 q 694 493 694 439 q 649 639 694 596 q 497 682 604 682 q 354 656 407 682 q 268 560 301 629 q 214 360 235 492 q 203 243 203 286 q 253 99 203 138 q 401 60 304 60 z "},"ó":{"ha":783,"x_min":124,"x_max":776,"o":"m 390 -8 q 193 50 263 -8 q 124 240 124 108 q 135 375 124 300 q 203 603 158 522 q 319 716 247 683 q 510 749 392 749 q 715 685 654 749 q 776 492 776 622 q 763 344 776 435 q 697 132 740 208 q 581 24 654 56 q 390 -8 507 -8 m 401 60 q 541 83 488 60 q 628 172 594 107 q 682 360 663 236 q 694 493 694 439 q 649 639 694 596 q 497 682 604 682 q 354 656 407 682 q 268 560 301 629 q 214 360 235 492 q 203 243 203 286 q 253 99 203 138 q 401 60 304 60 m 672 1064 l 746 1064 l 542 876 l 492 876 l 672 1064 z "},"ŏ":{"ha":783,"x_min":124,"x_max":776,"o":"m 390 -8 q 193 50 263 -8 q 124 240 124 108 q 135 375 124 300 q 203 603 158 522 q 319 716 247 683 q 510 749 392 749 q 715 685 654 749 q 776 492 776 622 q 763 344 776 435 q 697 132 740 208 q 581 24 654 56 q 390 -8 507 -8 m 401 60 q 541 83 488 60 q 628 172 594 107 q 682 360 663 236 q 694 493 694 439 q 649 639 694 596 q 497 682 604 682 q 354 656 407 682 q 268 560 301 629 q 214 360 235 492 q 203 243 203 286 q 253 99 203 138 q 401 60 304 60 m 528 875 q 418 910 460 875 q 376 1019 376 944 q 379 1068 376 1032 l 419 1068 q 417 1029 417 1040 q 449 943 417 971 q 531 915 481 915 q 640 951 594 915 q 697 1068 685 988 l 738 1068 q 665 919 722 964 q 528 875 607 875 z "},"ô":{"ha":783,"x_min":124,"x_max":776,"o":"m 390 -8 q 193 50 263 -8 q 124 240 124 108 q 135 375 124 300 q 203 603 158 522 q 319 716 247 683 q 510 749 392 749 q 715 685 654 749 q 776 492 776 622 q 763 344 776 435 q 697 132 740 208 q 581 24 654 56 q 390 -8 507 -8 m 401 60 q 541 83 488 60 q 628 172 594 107 q 682 360 663 236 q 694 493 694 439 q 649 639 694 596 q 497 682 604 682 q 354 656 407 682 q 268 560 301 629 q 214 360 235 492 q 203 243 203 286 q 253 99 203 138 q 401 60 304 60 m 538 1061 l 596 1061 l 725 876 l 674 876 l 558 1021 l 385 876 l 333 876 l 538 1061 z "},"ố":{"ha":783,"x_min":124,"x_max":888,"o":"m 390 -8 q 193 50 263 -8 q 124 240 124 108 q 135 375 124 300 q 203 603 158 522 q 319 716 247 683 q 510 749 392 749 q 715 685 654 749 q 776 492 776 622 q 763 344 776 435 q 697 132 740 208 q 581 24 654 56 q 390 -8 507 -8 m 401 60 q 541 83 488 60 q 628 172 594 107 q 682 360 663 236 q 694 493 694 439 q 649 639 694 596 q 497 682 604 682 q 354 656 407 682 q 268 560 301 629 q 214 360 235 492 q 203 243 203 286 q 253 99 203 138 q 401 60 304 60 m 818 1161 l 888 1161 l 694 979 l 650 979 l 818 1161 m 510 1008 l 568 1008 l 707 876 l 656 876 l 532 968 l 365 876 l 315 876 l 510 1008 z "},"ộ":{"ha":783,"x_min":124,"x_max":776,"o":"m 390 -8 q 193 50 263 -8 q 124 240 124 108 q 135 375 124 300 q 203 603 158 522 q 319 716 247 683 q 510 749 392 749 q 715 685 654 749 q 776 492 776 622 q 763 344 776 435 q 697 132 740 208 q 581 24 654 56 q 390 -8 507 -8 m 401 60 q 541 83 488 60 q 628 172 594 107 q 682 360 663 236 q 694 493 694 439 q 649 639 694 596 q 497 682 604 682 q 354 656 407 682 q 268 560 301 629 q 214 360 235 492 q 203 243 203 286 q 253 99 203 138 q 401 60 304 60 m 538 1061 l 596 1061 l 725 876 l 674 876 l 558 1021 l 385 876 l 333 876 l 538 1061 m 311 -285 q 299 -280 304 -285 q 294 -268 294 -275 l 294 -265 l 311 -165 q 335 -144 313 -144 l 371 -144 q 388 -160 388 -144 l 388 -165 l 372 -265 q 365 -280 371 -275 q 349 -285 358 -285 l 311 -285 z "},"ồ":{"ha":783,"x_min":124,"x_max":776,"o":"m 390 -8 q 193 50 263 -8 q 124 240 124 108 q 135 375 124 300 q 203 603 158 522 q 319 716 247 683 q 510 749 392 749 q 715 685 654 749 q 776 492 776 622 q 763 344 776 435 q 697 132 740 208 q 581 24 654 56 q 390 -8 507 -8 m 401 60 q 541 83 488 60 q 628 172 594 107 q 682 360 663 236 q 694 493 694 439 q 649 639 694 596 q 497 682 604 682 q 354 656 407 682 q 268 560 301 629 q 214 360 235 492 q 203 243 203 286 q 253 99 203 138 q 401 60 304 60 m 238 1161 l 306 1161 l 417 979 l 372 979 l 238 1161 m 501 1008 l 560 1008 l 697 876 l 647 876 l 524 968 l 357 876 l 306 876 l 501 1008 z "},"ổ":{"ha":783,"x_min":124,"x_max":815,"o":"m 390 -8 q 193 50 263 -8 q 124 240 124 108 q 135 375 124 300 q 203 603 158 522 q 319 716 247 683 q 510 749 392 749 q 715 685 654 749 q 776 492 776 622 q 763 344 776 435 q 697 132 740 208 q 581 24 654 56 q 390 -8 507 -8 m 401 60 q 541 83 488 60 q 628 172 594 107 q 682 360 663 236 q 694 493 694 439 q 649 639 694 596 q 497 682 604 682 q 354 656 407 682 q 268 560 301 629 q 214 360 235 492 q 203 243 203 286 q 253 99 203 138 q 401 60 304 60 m 681 983 q 771 1075 771 1013 q 714 1117 771 1117 q 663 1108 685 1117 l 668 1144 q 729 1154 697 1154 q 794 1135 772 1154 q 815 1082 815 1117 q 781 1002 815 1038 q 675 947 747 967 l 681 983 m 514 1008 l 572 1008 l 711 876 l 660 876 l 536 968 l 371 876 l 319 876 l 514 1008 z "},"ỗ":{"ha":783,"x_min":124,"x_max":792,"o":"m 390 -8 q 193 50 263 -8 q 124 240 124 108 q 135 375 124 300 q 203 603 158 522 q 319 716 247 683 q 510 749 392 749 q 715 685 654 749 q 776 492 776 622 q 763 344 776 435 q 697 132 740 208 q 581 24 654 56 q 390 -8 507 -8 m 401 60 q 541 83 488 60 q 628 172 594 107 q 682 360 663 236 q 694 493 694 439 q 649 639 694 596 q 497 682 604 682 q 354 656 407 682 q 268 560 301 629 q 214 360 235 492 q 203 243 203 286 q 253 99 203 138 q 401 60 304 60 m 326 1075 q 374 1158 338 1133 q 460 1182 411 1182 q 512 1174 489 1182 q 568 1147 535 1165 q 615 1126 594 1133 q 658 1118 636 1118 q 719 1135 694 1118 q 750 1185 744 1153 l 792 1185 q 746 1103 781 1132 q 656 1075 711 1075 q 606 1083 629 1075 q 551 1108 583 1092 q 499 1131 519 1124 q 456 1139 479 1139 q 398 1123 422 1139 q 368 1075 374 1107 l 326 1075 m 515 1008 l 574 1008 l 711 876 l 660 876 l 536 968 l 369 876 l 319 876 l 515 1008 z "},"ȍ":{"ha":783,"x_min":124,"x_max":776,"o":"m 390 -8 q 193 50 263 -8 q 124 240 124 108 q 135 375 124 300 q 203 603 158 522 q 319 716 247 683 q 510 749 392 749 q 715 685 654 749 q 776 492 776 622 q 763 344 776 435 q 697 132 740 208 q 581 24 654 56 q 390 -8 507 -8 m 401 60 q 541 83 488 60 q 628 172 594 107 q 682 360 663 236 q 694 493 694 439 q 649 639 694 596 q 497 682 604 682 q 354 656 407 682 q 268 560 301 629 q 214 360 235 492 q 203 243 203 286 q 253 99 203 138 q 401 60 304 60 m 289 1064 l 361 1064 l 485 876 l 438 876 l 289 1064 m 478 1064 l 550 1064 l 674 876 l 626 876 l 478 1064 z "},"ö":{"ha":783,"x_min":124,"x_max":776,"o":"m 390 -8 q 193 50 263 -8 q 124 240 124 108 q 135 375 124 300 q 203 603 158 522 q 319 716 247 683 q 510 749 392 749 q 715 685 654 749 q 776 492 776 622 q 763 344 776 435 q 697 132 740 208 q 581 24 654 56 q 390 -8 507 -8 m 401 60 q 541 83 488 60 q 628 172 594 107 q 682 360 663 236 q 694 493 694 439 q 649 639 694 596 q 497 682 604 682 q 354 656 407 682 q 268 560 301 629 q 214 360 235 492 q 203 243 203 286 q 253 99 203 138 q 401 60 304 60 m 351 914 q 335 931 335 914 l 350 1033 q 375 1054 354 1054 l 411 1054 q 428 1039 428 1054 l 411 933 q 403 919 410 924 q 388 914 397 914 l 351 914 m 636 914 q 624 919 629 914 q 619 931 619 924 q 636 1033 619 922 q 660 1054 638 1054 l 697 1054 q 714 1039 714 1054 q 697 933 714 1044 q 690 919 696 924 q 674 914 683 914 l 636 914 z "},"ȫ":{"ha":783,"x_min":124,"x_max":776,"o":"m 390 -8 q 193 50 263 -8 q 124 240 124 108 q 135 375 124 300 q 203 603 158 522 q 319 716 247 683 q 510 749 392 749 q 715 685 654 749 q 776 492 776 622 q 763 344 776 435 q 697 132 740 208 q 581 24 654 56 q 390 -8 507 -8 m 401 60 q 541 83 488 60 q 628 172 594 107 q 682 360 663 236 q 694 493 694 439 q 649 639 694 596 q 497 682 604 682 q 354 656 407 682 q 268 560 301 629 q 214 360 235 492 q 203 243 203 286 q 253 99 203 138 q 401 60 304 60 m 351 908 q 335 925 335 908 l 350 1028 q 375 1049 354 1049 l 411 1049 q 428 1033 428 1049 l 411 928 q 403 913 410 918 q 388 908 397 908 l 351 908 m 636 908 q 624 913 629 908 q 619 925 619 918 q 636 1028 619 917 q 660 1049 638 1049 l 697 1049 q 714 1033 714 1049 q 697 928 714 1039 q 690 913 696 918 q 674 908 683 908 l 636 908 m 372 1194 l 733 1194 l 725 1146 l 364 1146 l 372 1194 z "},"ȱ":{"ha":783,"x_min":124,"x_max":776,"o":"m 390 -8 q 193 50 263 -8 q 124 240 124 108 q 135 375 124 300 q 203 603 158 522 q 319 716 247 683 q 510 749 392 749 q 715 685 654 749 q 776 492 776 622 q 763 344 776 435 q 697 132 740 208 q 581 24 654 56 q 390 -8 507 -8 m 401 60 q 541 83 488 60 q 628 172 594 107 q 682 360 663 236 q 694 493 694 439 q 649 639 694 596 q 497 682 604 682 q 354 656 407 682 q 268 560 301 629 q 214 360 235 492 q 203 243 203 286 q 253 99 203 138 q 401 60 304 60 m 510 915 q 498 920 503 915 q 493 932 493 925 l 493 935 l 510 1035 q 533 1056 511 1056 l 569 1056 q 586 1040 586 1056 l 586 1035 l 571 935 q 563 920 569 925 q 547 915 557 915 l 510 915 m 392 1194 l 753 1194 l 744 1146 l 383 1146 l 392 1194 z "},"ọ":{"ha":783,"x_min":124,"x_max":776,"o":"m 390 -8 q 193 50 263 -8 q 124 240 124 108 q 135 375 124 300 q 203 603 158 522 q 319 716 247 683 q 510 749 392 749 q 715 685 654 749 q 776 492 776 622 q 763 344 776 435 q 697 132 740 208 q 581 24 654 56 q 390 -8 507 -8 m 401 60 q 541 83 488 60 q 628 172 594 107 q 682 360 663 236 q 694 493 694 439 q 649 639 694 596 q 497 682 604 682 q 354 656 407 682 q 268 560 301 629 q 214 360 235 492 q 203 243 203 286 q 253 99 203 138 q 401 60 304 60 m 311 -285 q 299 -280 304 -285 q 294 -268 294 -275 l 294 -265 l 311 -165 q 335 -144 313 -144 l 371 -144 q 388 -160 388 -144 l 388 -165 l 372 -265 q 365 -280 371 -275 q 349 -285 358 -285 l 311 -285 z "},"ò":{"ha":783,"x_min":124,"x_max":776,"o":"m 390 -8 q 193 50 263 -8 q 124 240 124 108 q 135 375 124 300 q 203 603 158 522 q 319 716 247 683 q 510 749 392 749 q 715 685 654 749 q 776 492 776 622 q 763 344 776 435 q 697 132 740 208 q 581 24 654 56 q 390 -8 507 -8 m 401 60 q 541 83 488 60 q 628 172 594 107 q 682 360 663 236 q 694 493 694 439 q 649 639 694 596 q 497 682 604 682 q 354 656 407 682 q 268 560 301 629 q 214 360 235 492 q 203 243 203 286 q 253 99 203 138 q 401 60 304 60 m 385 1064 l 457 1064 l 581 876 l 533 876 l 385 1064 z "},"ỏ":{"ha":783,"x_min":124,"x_max":776,"o":"m 390 -8 q 193 50 263 -8 q 124 240 124 108 q 135 375 124 300 q 203 603 158 522 q 319 716 247 683 q 510 749 392 749 q 715 685 654 749 q 776 492 776 622 q 763 344 776 435 q 697 132 740 208 q 581 24 654 56 q 390 -8 507 -8 m 401 60 q 541 83 488 60 q 628 172 594 107 q 682 360 663 236 q 694 493 694 439 q 649 639 694 596 q 497 682 604 682 q 354 656 407 682 q 268 560 301 629 q 214 360 235 492 q 203 243 203 286 q 253 99 203 138 q 401 60 304 60 m 500 881 q 600 988 600 910 q 539 1039 600 1039 q 485 1031 513 1039 l 490 1067 q 554 1076 521 1076 q 646 993 646 1076 q 609 903 646 943 q 493 842 572 864 l 500 881 z "},"ơ":{"ha":803,"x_min":124,"x_max":899,"o":"m 899 899 q 830 742 882 790 q 707 693 778 693 q 760 612 743 661 q 776 492 776 563 q 763 344 776 435 q 697 132 740 208 q 581 24 654 56 q 390 -8 507 -8 q 193 50 263 -8 q 124 240 124 108 q 135 375 124 300 q 203 603 158 522 q 319 716 247 683 q 510 749 392 749 q 603 740 563 749 l 701 740 q 838 899 815 740 l 899 899 m 682 360 q 694 493 694 439 q 649 639 694 596 q 497 682 604 682 q 354 656 407 682 q 268 560 301 629 q 214 360 235 492 q 203 243 203 286 q 253 99 203 138 q 401 60 304 60 q 541 83 488 60 q 628 172 594 107 q 682 360 663 236 z "},"ớ":{"ha":803,"x_min":124,"x_max":899,"o":"m 899 899 q 830 742 882 790 q 707 693 778 693 q 760 612 743 661 q 776 492 776 563 q 763 344 776 435 q 697 132 740 208 q 581 24 654 56 q 390 -8 507 -8 q 193 50 263 -8 q 124 240 124 108 q 135 375 124 300 q 203 603 158 522 q 319 716 247 683 q 510 749 392 749 q 603 740 563 749 l 701 740 q 838 899 815 740 l 899 899 m 682 360 q 694 493 694 439 q 649 639 694 596 q 497 682 604 682 q 354 656 407 682 q 268 560 301 629 q 214 360 235 492 q 203 243 203 286 q 253 99 203 138 q 401 60 304 60 q 541 83 488 60 q 628 172 594 107 q 682 360 663 236 m 665 1064 l 739 1064 l 535 876 l 485 876 l 665 1064 z "},"ợ":{"ha":803,"x_min":124,"x_max":899,"o":"m 899 899 q 830 742 882 790 q 707 693 778 693 q 760 612 743 661 q 776 492 776 563 q 763 344 776 435 q 697 132 740 208 q 581 24 654 56 q 390 -8 507 -8 q 193 50 263 -8 q 124 240 124 108 q 135 375 124 300 q 203 603 158 522 q 319 716 247 683 q 510 749 392 749 q 603 740 563 749 l 701 740 q 838 899 815 740 l 899 899 m 682 360 q 694 493 694 439 q 649 639 694 596 q 497 682 604 682 q 354 656 407 682 q 268 560 301 629 q 214 360 235 492 q 203 243 203 286 q 253 99 203 138 q 401 60 304 60 q 541 83 488 60 q 628 172 594 107 q 682 360 663 236 m 324 -285 q 312 -280 317 -285 q 307 -268 307 -275 l 307 -265 l 324 -165 q 347 -144 325 -144 l 383 -144 q 400 -160 400 -144 l 400 -165 l 385 -265 q 377 -280 383 -275 q 361 -285 371 -285 l 324 -285 z "},"ờ":{"ha":803,"x_min":124,"x_max":899,"o":"m 899 899 q 830 742 882 790 q 707 693 778 693 q 760 612 743 661 q 776 492 776 563 q 763 344 776 435 q 697 132 740 208 q 581 24 654 56 q 390 -8 507 -8 q 193 50 263 -8 q 124 240 124 108 q 135 375 124 300 q 203 603 158 522 q 319 716 247 683 q 510 749 392 749 q 603 740 563 749 l 701 740 q 838 899 815 740 l 899 899 m 682 360 q 694 493 694 439 q 649 639 694 596 q 497 682 604 682 q 354 656 407 682 q 268 560 301 629 q 214 360 235 492 q 203 243 203 286 q 253 99 203 138 q 401 60 304 60 q 541 83 488 60 q 628 172 594 107 q 682 360 663 236 m 378 1064 l 450 1064 l 574 876 l 526 876 l 378 1064 z "},"ở":{"ha":803,"x_min":124,"x_max":899,"o":"m 899 899 q 830 742 882 790 q 707 693 778 693 q 760 612 743 661 q 776 492 776 563 q 763 344 776 435 q 697 132 740 208 q 581 24 654 56 q 390 -8 507 -8 q 193 50 263 -8 q 124 240 124 108 q 135 375 124 300 q 203 603 158 522 q 319 716 247 683 q 510 749 392 749 q 603 740 563 749 l 701 740 q 838 899 815 740 l 899 899 m 682 360 q 694 493 694 439 q 649 639 694 596 q 497 682 604 682 q 354 656 407 682 q 268 560 301 629 q 214 360 235 492 q 203 243 203 286 q 253 99 203 138 q 401 60 304 60 q 541 83 488 60 q 628 172 594 107 q 682 360 663 236 m 492 881 q 592 988 592 910 q 531 1039 592 1039 q 476 1031 504 1039 l 482 1067 q 546 1076 513 1076 q 638 993 638 1076 q 601 903 638 943 q 485 842 564 864 l 492 881 z "},"ỡ":{"ha":803,"x_min":124,"x_max":899,"o":"m 899 899 q 830 742 882 790 q 707 693 778 693 q 760 612 743 661 q 776 492 776 563 q 763 344 776 435 q 697 132 740 208 q 581 24 654 56 q 390 -8 507 -8 q 193 50 263 -8 q 124 240 124 108 q 135 375 124 300 q 203 603 158 522 q 319 716 247 683 q 510 749 392 749 q 603 740 563 749 l 701 740 q 838 899 815 740 l 899 899 m 682 360 q 694 493 694 439 q 649 639 694 596 q 497 682 604 682 q 354 656 407 682 q 268 560 301 629 q 214 360 235 492 q 203 243 203 286 q 253 99 203 138 q 401 60 304 60 q 541 83 488 60 q 628 172 594 107 q 682 360 663 236 m 301 908 q 356 1012 314 979 q 451 1044 397 1044 q 508 1032 482 1044 q 565 997 533 1019 q 619 966 599 976 q 663 956 639 956 q 729 980 701 956 q 764 1047 757 1004 l 806 1047 q 756 945 794 982 q 657 908 718 908 q 607 919 631 908 q 550 953 583 931 q 494 986 517 975 q 446 997 471 997 q 380 975 408 997 q 343 908 351 953 l 301 908 z "},"ő":{"ha":783,"x_min":124,"x_max":829,"o":"m 390 -8 q 193 50 263 -8 q 124 240 124 108 q 135 375 124 300 q 203 603 158 522 q 319 716 247 683 q 510 749 392 749 q 715 685 654 749 q 776 492 776 622 q 763 344 776 435 q 697 132 740 208 q 581 24 654 56 q 390 -8 507 -8 m 401 60 q 541 83 488 60 q 628 172 594 107 q 682 360 663 236 q 694 493 694 439 q 649 639 694 596 q 497 682 604 682 q 354 656 407 682 q 268 560 301 629 q 214 360 235 492 q 203 243 203 286 q 253 99 203 138 q 401 60 304 60 m 558 1064 l 626 1064 l 425 876 l 378 876 l 558 1064 m 760 1064 l 829 1064 l 628 876 l 581 876 l 760 1064 z "},"ȏ":{"ha":783,"x_min":124,"x_max":776,"o":"m 390 -8 q 193 50 263 -8 q 124 240 124 108 q 135 375 124 300 q 203 603 158 522 q 319 716 247 683 q 510 749 392 749 q 715 685 654 749 q 776 492 776 622 q 763 344 776 435 q 697 132 740 208 q 581 24 654 56 q 390 -8 507 -8 m 401 60 q 541 83 488 60 q 628 172 594 107 q 682 360 663 236 q 694 493 694 439 q 649 639 694 596 q 497 682 604 682 q 354 656 407 682 q 268 560 301 629 q 214 360 235 492 q 203 243 203 286 q 253 99 203 138 q 401 60 304 60 m 338 876 q 410 1025 353 981 q 547 1069 468 1069 q 657 1035 615 1069 q 699 925 699 1000 q 696 876 699 913 l 656 876 q 658 915 658 904 q 626 1001 658 974 q 542 1029 594 1029 q 435 992 481 1029 q 378 876 390 956 l 338 876 z "},"ō":{"ha":783,"x_min":124,"x_max":776,"o":"m 390 -8 q 193 50 263 -8 q 124 240 124 108 q 135 375 124 300 q 203 603 158 522 q 319 716 247 683 q 510 749 392 749 q 715 685 654 749 q 776 492 776 622 q 763 344 776 435 q 697 132 740 208 q 581 24 654 56 q 390 -8 507 -8 m 401 60 q 541 83 488 60 q 628 172 594 107 q 682 360 663 236 q 694 493 694 439 q 649 639 694 596 q 497 682 604 682 q 354 656 407 682 q 268 560 301 629 q 214 360 235 492 q 203 243 203 286 q 253 99 203 138 q 401 60 304 60 m 365 992 l 726 992 l 718 943 l 357 943 l 365 992 z "},"ṓ":{"ha":783,"x_min":124,"x_max":776,"o":"m 390 -8 q 193 50 263 -8 q 124 240 124 108 q 135 375 124 300 q 203 603 158 522 q 319 716 247 683 q 510 749 392 749 q 715 685 654 749 q 776 492 776 622 q 763 344 776 435 q 697 132 740 208 q 581 24 654 56 q 390 -8 507 -8 m 401 60 q 541 83 488 60 q 628 172 594 107 q 682 360 663 236 q 694 493 694 439 q 649 639 694 596 q 497 682 604 682 q 354 656 407 682 q 268 560 301 629 q 214 360 235 492 q 203 243 203 286 q 253 99 203 138 q 401 60 304 60 m 365 992 l 726 992 l 718 943 l 357 943 l 365 992 m 703 1242 l 776 1242 l 572 1054 l 522 1054 l 703 1242 z "},"ṑ":{"ha":783,"x_min":124,"x_max":776,"o":"m 390 -8 q 193 50 263 -8 q 124 240 124 108 q 135 375 124 300 q 203 603 158 522 q 319 716 247 683 q 510 749 392 749 q 715 685 654 749 q 776 492 776 622 q 763 344 776 435 q 697 132 740 208 q 581 24 654 56 q 390 -8 507 -8 m 401 60 q 541 83 488 60 q 628 172 594 107 q 682 360 663 236 q 694 493 694 439 q 649 639 694 596 q 497 682 604 682 q 354 656 407 682 q 268 560 301 629 q 214 360 235 492 q 203 243 203 286 q 253 99 203 138 q 401 60 304 60 m 365 992 l 726 992 l 718 943 l 357 943 l 365 992 m 385 1242 l 457 1242 l 581 1054 l 533 1054 l 385 1242 z "},"ǫ":{"ha":783,"x_min":124,"x_max":776,"o":"m 510 749 q 715 685 654 749 q 776 492 776 622 q 763 344 776 435 q 676 99 736 178 q 500 0 615 19 l 501 0 q 416 -65 446 -26 q 386 -135 386 -103 q 415 -193 386 -172 q 499 -214 443 -214 l 507 -214 l 500 -254 q 465 -257 478 -257 q 372 -228 406 -257 q 338 -154 338 -200 q 367 -76 338 -117 q 456 -6 396 -35 q 390 -8 414 -8 q 193 50 263 -8 q 124 240 124 108 q 135 375 124 300 q 203 603 158 522 q 319 716 247 683 q 510 749 392 749 m 682 360 q 694 493 694 439 q 649 639 694 596 q 497 682 604 682 q 354 656 407 682 q 268 560 301 629 q 214 360 235 492 q 203 243 203 286 q 253 99 203 138 q 401 60 304 60 q 541 83 488 60 q 628 172 594 107 q 682 360 663 236 z "},"ø":{"ha":782,"x_min":82,"x_max":817,"o":"m 739 656 q 776 492 776 599 q 763 344 776 435 q 697 132 740 208 q 581 24 654 56 q 390 -8 507 -8 q 185 58 251 -8 l 131 0 l 82 0 l 163 86 q 124 240 124 144 q 135 375 124 300 q 203 603 158 522 q 319 716 247 683 q 510 749 392 749 q 717 685 650 749 l 768 740 l 817 740 l 739 656 m 203 243 q 218 147 203 186 l 661 625 q 599 669 639 656 q 497 682 560 682 q 354 656 407 682 q 268 560 301 629 q 214 360 235 492 q 203 243 203 286 m 694 493 q 679 592 694 556 l 238 115 q 303 72 263 85 q 401 60 344 60 q 541 83 488 60 q 628 172 594 107 q 682 360 663 236 q 694 493 694 439 z "},"ǿ":{"ha":782,"x_min":82,"x_max":817,"o":"m 739 656 q 776 492 776 599 q 763 344 776 435 q 697 132 740 208 q 581 24 654 56 q 390 -8 507 -8 q 185 58 251 -8 l 131 0 l 82 0 l 163 86 q 124 240 124 144 q 135 375 124 300 q 203 603 158 522 q 319 716 247 683 q 510 749 392 749 q 717 685 650 749 l 768 740 l 817 740 l 739 656 m 203 243 q 218 147 203 186 l 661 625 q 599 669 639 656 q 497 682 560 682 q 354 656 407 682 q 268 560 301 629 q 214 360 235 492 q 203 243 203 286 m 694 493 q 679 592 694 556 l 238 115 q 303 72 263 85 q 401 60 344 60 q 541 83 488 60 q 628 172 594 107 q 682 360 663 236 q 694 493 694 439 m 632 1064 l 706 1064 l 501 876 l 451 876 l 632 1064 z "}}}
